  0
SECTION
  2
HEADER
  9
$ACADVER
  1
AC1009
  0
ENDSEC
  0
SECTION
  2
ENTITIES
  0
POLYLINE
  8
FLAN
 66
1
 39
0
 10
0.000000
 20
0.000000
 30
0.000000
 70
1
  0
VERTEX
  8
FLAN
 39
0
 10
-17.745000
 20
-15.000000
 30
0.000000
 70
0
 42
0
  0
VERTEX
  8
FLAN
 39
0
 10
17.745000
 20
-15.000000
 30
0.000000
 70
0
 42
0
  0
VERTEX
  8
FLAN
 39
0
 10
17.745000
 20
59.025000
 30
0.000000
 70
0
 42
0
  0
VERTEX
  8
FLAN
 39
0
 10
-17.745000
 20
59.025000
 30
0.000000
 70
0
 42
0
  0
SEQEND
  8
FLAN
  0
POLYLINE
  8
PEC
 66
1
 39
0
 10
0.000000
 20
0.000000
 30
0.000000
 70
1
  0
VERTEX
  8
PEC
 39
0
 10
-1.745000
 20
-9.080000
 30
0.000000
 70
0
 42
0
  0
VERTEX
  8
PEC
 39
0
 10
-1.745000
 20
-15.000000
 30
0.000000
 70
0
 42
0
  0
VERTEX
  8
PEC
 39
0
 10
1.745000
 20
-15.000000
 30
0.000000
 70
0
 42
0
  0
VERTEX
  8
PEC
 39
0
 10
1.745000
 20
-9.080000
 30
0.000000
 70
0
 42
0
  0
SEQEND
  8
PEC
  0
POLYLINE
  8
PEC
 66
1
 39
0
 10
0.000000
 20
0.000000
 30
0.000000
 70
1
  0
VERTEX
  8
PEC
 39
0
 10
-1.000000
 20
-10.000000
 30
0.000000
 70
0
 42
0
  0
VERTEX
  8
PEC
 39
0
 10
-1.000000
 20
-9.080000
 30
0.000000
 70
0
 42
-0.414214
  0
VERTEX
  8
PEC
 39
0
 10
-11.710000
 20
1.630000
 30
0.000000
 70
0
 42
-0.414214
  0
VERTEX
  8
PEC
 39
0
 10
-1.000000
 20
12.340000
 30
0.000000
 70
0
 42
0
  0
VERTEX
  8
PEC
 39
0
 10
-1.000000
 20
13.260000
 30
0.000000
 70
0
 42
0.414214
  0
VERTEX
  8
PEC
 39
0
 10
-12.630000
 20
1.630000
 30
0.000000
 70
0
 42
0.414214
  0
SEQEND
  8
PEC
  0
POLYLINE
  8
PEC
 66
1
 39
0
 10
0.000000
 20
0.000000
 30
0.000000
 70
1
  0
VERTEX
  8
PEC
 39
0
 10
1.000000
 20
-9.080000
 30
0.000000
 70
0
 42
0
  0
VERTEX
  8
PEC
 39
0
 10
1.000000
 20
-10.000000
 30
0.000000
 70
0
 42
0.414214
  0
VERTEX
  8
PEC
 39
0
 10
12.630000
 20
1.630000
 30
0.000000
 70
0
 42
0.414214
  0
VERTEX
  8
PEC
 39
0
 10
1.000000
 20
13.260000
 30
0.000000
 70
0
 42
0
  0
VERTEX
  8
PEC
 39
0
 10
1.000000
 20
12.340000
 30
0.000000
 70
0
 42
-0.414214
  0
VERTEX
  8
PEC
 39
0
 10
11.710000
 20
1.630000
 30
0.000000
 70
0
 42
-0.414214
  0
SEQEND
  8
PEC
  0
POLYLINE
  8
PEC
 66
1
 39
0
 10
0.000000
 20
0.000000
 30
0.000000
 70
1
  0
VERTEX
  8
PEC
 39
0
 10
-1.000000
 20
12.340000
 30
0.000000
 70
0
 42
0
  0
VERTEX
  8
PEC
 39
0
 10
-1.000000
 20
13.590000
 30
0.000000
 70
0
 42
-0.414214
  0
VERTEX
  8
PEC
 39
0
 10
-5.255000
 20
17.845000
 30
0.000000
 70
0
 42
-0.414214
  0
VERTEX
  8
PEC
 39
0
 10
-1.000000
 20
22.100000
 30
0.000000
 70
0
 42
0
  0
VERTEX
  8
PEC
 39
0
 10
-1.000000
 20
23.350000
 30
0.000000
 70
0
 42
0.414214
  0
VERTEX
  8
PEC
 39
0
 10
-6.505000
 20
17.845000
 30
0.000000
 70
0
 42
0.414214
  0
SEQEND
  8
PEC
  0
POLYLINE
  8
PEC
 66
1
 39
0
 10
0.000000
 20
0.000000
 30
0.000000
 70
1
  0
VERTEX
  8
PEC
 39
0
 10
1.000000
 20
13.590000
 30
0.000000
 70
0
 42
0
  0
VERTEX
  8
PEC
 39
0
 10
1.000000
 20
12.340000
 30
0.000000
 70
0
 42
0.414214
  0
VERTEX
  8
PEC
 39
0
 10
6.505000
 20
17.845000
 30
0.000000
 70
0
 42
0.414214
  0
VERTEX
  8
PEC
 39
0
 10
1.000000
 20
23.350000
 30
0.000000
 70
0
 42
0
  0
VERTEX
  8
PEC
 39
0
 10
1.000000
 20
22.100000
 30
0.000000
 70
0
 42
-0.414214
  0
VERTEX
  8
PEC
 39
0
 10
5.255000
 20
17.845000
 30
0.000000
 70
0
 42
-0.414214
  0
SEQEND
  8
PEC
  0
POLYLINE
  8
PEC
 66
1
 39
0
 10
0.000000
 20
0.000000
 30
0.000000
 70
1
  0
VERTEX
  8
PEC
 39
0
 10
-1.000000
 20
22.100000
 30
0.000000
 70
0
 42
0
  0
VERTEX
  8
PEC
 39
0
 10
-1.000000
 20
24.270000
 30
0.000000
 70
0
 42
-0.414214
  0
VERTEX
  8
PEC
 39
0
 10
-5.005000
 20
28.275000
 30
0.000000
 70
0
 42
-0.414214
  0
VERTEX
  8
PEC
 39
0
 10
-1.000000
 20
32.280000
 30
0.000000
 70
0
 42
0
  0
VERTEX
  8
PEC
 39
0
 10
-1.000000
 20
34.450000
 30
0.000000
 70
0
 42
0.414214
  0
VERTEX
  8
PEC
 39
0
 10
-7.175000
 20
28.275000
 30
0.000000
 70
0
 42
0.414214
  0
SEQEND
  8
PEC
  0
POLYLINE
  8
PEC
 66
1
 39
0
 10
0.000000
 20
0.000000
 30
0.000000
 70
1
  0
VERTEX
  8
PEC
 39
0
 10
1.000000
 20
24.270000
 30
0.000000
 70
0
 42
0
  0
VERTEX
  8
PEC
 39
0
 10
1.000000
 20
22.100000
 30
0.000000
 70
0
 42
0.414214
  0
VERTEX
  8
PEC
 39
0
 10
7.175000
 20
28.275000
 30
0.000000
 70
0
 42
0.414214
  0
VERTEX
  8
PEC
 39
0
 10
1.000000
 20
34.450000
 30
0.000000
 70
0
 42
0
  0
VERTEX
  8
PEC
 39
0
 10
1.000000
 20
32.280000
 30
0.000000
 70
0
 42
-0.414214
  0
VERTEX
  8
PEC
 39
0
 10
5.005000
 20
28.275000
 30
0.000000
 70
0
 42
-0.414214
  0
SEQEND
  8
PEC
  0
POLYLINE
  8
PEC
 66
1
 39
0
 10
0.000000
 20
0.000000
 30
0.000000
 70
1
  0
VERTEX
  8
PEC
 39
0
 10
1.000000
 20
32.280000
 30
0.000000
 70
0
 42
0
  0
VERTEX
  8
PEC
 39
0
 10
4.490000
 20
32.280000
 30
0.000000
 70
0
 42
-0.198912
  0
VERTEX
  8
PEC
 39
0
 10
8.372300
 20
41.652700
 30
0.000000
 70
0
 42
-0.198912
  0
VERTEX
  8
PEC
 39
0
 10
17.745000
 20
45.535000
 30
0.000000
 70
0
 42
0
  0
VERTEX
  8
PEC
 39
0
 10
17.745000
 20
49.025000
 30
0.000000
 70
0
 42
0.198912
  0
VERTEX
  8
PEC
 39
0
 10
5.904497
 20
44.120503
 30
0.000000
 70
0
 42
0.198912
  0
SEQEND
  8
PEC
  0
POLYLINE
  8
PEC
 66
1
 39
0
 10
0.000000
 20
0.000000
 30
0.000000
 70
1
  0
VERTEX
  8
PEC
 39
0
 10
-4.490000
 20
32.280000
 30
0.000000
 70
0
 42
0
  0
VERTEX
  8
PEC
 39
0
 10
-1.000000
 20
32.280000
 30
0.000000
 70
0
 42
0.198912
  0
VERTEX
  8
PEC
 39
0
 10
-5.904497
 20
44.120503
 30
0.000000
 70
0
 42
0.198912
  0
VERTEX
  8
PEC
 39
0
 10
-17.745000
 20
49.025000
 30
0.000000
 70
0
 42
0
  0
VERTEX
  8
PEC
 39
0
 10
-17.745000
 20
45.535000
 30
0.000000
 70
0
 42
-0.198912
  0
VERTEX
  8
PEC
 39
0
 10
-8.372300
 20
41.652700
 30
0.000000
 70
0
 42
-0.198912
  0
SEQEND
  8
PEC
  0
POLYLINE
  8
FLAN
 66
1
 39
0
 10
0.000000
 20
0.000000
 30
0.000000
 70
1
  0
VERTEX
  8
FLAN
 39
0
 10
17.745000
 20
59.025000
 30
0.000000
 70
0
 42
0
  0
VERTEX
  8
FLAN
 39
0
 10
17.745000
 20
65.025000
 30
0.000000
 70
0
 42
0
  0
VERTEX
  8
FLAN
 39
0
 10
-17.745000
 20
65.025000
 30
0.000000
 70
0
 42
0
  0
VERTEX
  8
FLAN
 39
0
 10
-17.745000
 20
59.025000
 30
0.000000
 70
0
 42
0
  0
SEQEND
  8
FLAN
  0
POLYLINE
  8
PEC
 66
1
 39
0
 10
0.000000
 20
0.000000
 30
0.000000
 70
1
  0
VERTEX
  8
PEC
 39
0
 10
23.665000
 20
49.025000
 30
0.000000
 70
0
 42
0
  0
VERTEX
  8
PEC
 39
0
 10
17.745000
 20
49.025000
 30
0.000000
 70
0
 42
0
  0
VERTEX
  8
PEC
 39
0
 10
17.745000
 20
45.535000
 30
0.000000
 70
0
 42
0
  0
VERTEX
  8
PEC
 39
0
 10
23.665000
 20
45.535000
 30
0.000000
 70
0
 42
0
  0
SEQEND
  8
PEC
  0
POLYLINE
  8
PEC
 66
1
 39
0
 10
0.000000
 20
0.000000
 30
0.000000
 70
1
  0
VERTEX
  8
PEC
 39
0
 10
22.745000
 20
48.280000
 30
0.000000
 70
0
 42
0
  0
VERTEX
  8
PEC
 39
0
 10
23.665000
 20
48.280000
 30
0.000000
 70
0
 42
-0.414214
  0
VERTEX
  8
PEC
 39
0
 10
34.375000
 20
58.990000
 30
0.000000
 70
0
 42
-0.414214
  0
VERTEX
  8
PEC
 39
0
 10
45.085000
 20
48.280000
 30
0.000000
 70
0
 42
0
  0
VERTEX
  8
PEC
 39
0
 10
46.005000
 20
48.280000
 30
0.000000
 70
0
 42
0.414214
  0
VERTEX
  8
PEC
 39
0
 10
34.375000
 20
59.910000
 30
0.000000
 70
0
 42
0.414214
  0
SEQEND
  8
PEC
  0
POLYLINE
  8
PEC
 66
1
 39
0
 10
0.000000
 20
0.000000
 30
0.000000
 70
1
  0
VERTEX
  8
PEC
 39
0
 10
23.665000
 20
46.280000
 30
0.000000
 70
0
 42
0
  0
VERTEX
  8
PEC
 39
0
 10
22.745000
 20
46.280000
 30
0.000000
 70
0
 42
0.414214
  0
VERTEX
  8
PEC
 39
0
 10
34.375000
 20
34.650000
 30
0.000000
 70
0
 42
0.414214
  0
VERTEX
  8
PEC
 39
0
 10
46.005000
 20
46.280000
 30
0.000000
 70
0
 42
0
  0
VERTEX
  8
PEC
 39
0
 10
45.085000
 20
46.280000
 30
0.000000
 70
0
 42
-0.414214
  0
VERTEX
  8
PEC
 39
0
 10
34.375000
 20
35.570000
 30
0.000000
 70
0
 42
-0.414214
  0
SEQEND
  8
PEC
  0
POLYLINE
  8
PEC
 66
1
 39
0
 10
0.000000
 20
0.000000
 30
0.000000
 70
1
  0
VERTEX
  8
PEC
 39
0
 10
45.085000
 20
48.280000
 30
0.000000
 70
0
 42
0
  0
VERTEX
  8
PEC
 39
0
 10
46.335000
 20
48.280000
 30
0.000000
 70
0
 42
-0.414214
  0
VERTEX
  8
PEC
 39
0
 10
50.590000
 20
52.535000
 30
0.000000
 70
0
 42
-0.414214
  0
VERTEX
  8
PEC
 39
0
 10
54.845000
 20
48.280000
 30
0.000000
 70
0
 42
0
  0
VERTEX
  8
PEC
 39
0
 10
56.095000
 20
48.280000
 30
0.000000
 70
0
 42
0.414214
  0
VERTEX
  8
PEC
 39
0
 10
50.590000
 20
53.785000
 30
0.000000
 70
0
 42
0.414214
  0
SEQEND
  8
PEC
  0
POLYLINE
  8
PEC
 66
1
 39
0
 10
0.000000
 20
0.000000
 30
0.000000
 70
1
  0
VERTEX
  8
PEC
 39
0
 10
46.335000
 20
46.280000
 30
0.000000
 70
0
 42
0
  0
VERTEX
  8
PEC
 39
0
 10
45.085000
 20
46.280000
 30
0.000000
 70
0
 42
0.414214
  0
VERTEX
  8
PEC
 39
0
 10
50.590000
 20
40.775000
 30
0.000000
 70
0
 42
0.414214
  0
VERTEX
  8
PEC
 39
0
 10
56.095000
 20
46.280000
 30
0.000000
 70
0
 42
0
  0
VERTEX
  8
PEC
 39
0
 10
54.845000
 20
46.280000
 30
0.000000
 70
0
 42
-0.414214
  0
VERTEX
  8
PEC
 39
0
 10
50.590000
 20
42.025000
 30
0.000000
 70
0
 42
-0.414214
  0
SEQEND
  8
PEC
  0
POLYLINE
  8
PEC
 66
1
 39
0
 10
0.000000
 20
0.000000
 30
0.000000
 70
1
  0
VERTEX
  8
PEC
 39
0
 10
54.845000
 20
48.280000
 30
0.000000
 70
0
 42
0
  0
VERTEX
  8
PEC
 39
0
 10
57.015000
 20
48.280000
 30
0.000000
 70
0
 42
-0.414214
  0
VERTEX
  8
PEC
 39
0
 10
61.020000
 20
52.285000
 30
0.000000
 70
0
 42
-0.414214
  0
VERTEX
  8
PEC
 39
0
 10
65.025000
 20
48.280000
 30
0.000000
 70
0
 42
0
  0
VERTEX
  8
PEC
 39
0
 10
67.195000
 20
48.280000
 30
0.000000
 70
0
 42
0.414214
  0
VERTEX
  8
PEC
 39
0
 10
61.020000
 20
54.455000
 30
0.000000
 70
0
 42
0.414214
  0
SEQEND
  8
PEC
  0
POLYLINE
  8
PEC
 66
1
 39
0
 10
0.000000
 20
0.000000
 30
0.000000
 70
1
  0
VERTEX
  8
PEC
 39
0
 10
57.015000
 20
46.280000
 30
0.000000
 70
0
 42
0
  0
VERTEX
  8
PEC
 39
0
 10
54.845000
 20
46.280000
 30
0.000000
 70
0
 42
0.414214
  0
VERTEX
  8
PEC
 39
0
 10
61.020000
 20
40.105000
 30
0.000000
 70
0
 42
0.414214
  0
VERTEX
  8
PEC
 39
0
 10
67.195000
 20
46.280000
 30
0.000000
 70
0
 42
0
  0
VERTEX
  8
PEC
 39
0
 10
65.025000
 20
46.280000
 30
0.000000
 70
0
 42
-0.414214
  0
VERTEX
  8
PEC
 39
0
 10
61.020000
 20
42.275000
 30
0.000000
 70
0
 42
-0.414214
  0
SEQEND
  8
PEC
  0
POLYLINE
  8
PEC
 66
1
 39
0
 10
0.000000
 20
0.000000
 30
0.000000
 70
1
  0
VERTEX
  8
PEC
 39
0
 10
65.025000
 20
46.280000
 30
0.000000
 70
0
 42
0
  0
VERTEX
  8
PEC
 39
0
 10
65.025000
 20
42.790000
 30
0.000000
 70
0
 42
-0.198912
  0
VERTEX
  8
PEC
 39
0
 10
74.397700
 20
38.907700
 30
0.000000
 70
0
 42
-0.198912
  0
VERTEX
  8
PEC
 39
0
 10
78.280000
 20
29.535000
 30
0.000000
 70
0
 42
0
  0
VERTEX
  8
PEC
 39
0
 10
81.770000
 20
29.535000
 30
0.000000
 70
0
 42
0.198912
  0
VERTEX
  8
PEC
 39
0
 10
76.865503
 20
41.375503
 30
0.000000
 70
0
 42
0.198912
  0
SEQEND
  8
PEC
  0
POLYLINE
  8
PEC
 66
1
 39
0
 10
0.000000
 20
0.000000
 30
0.000000
 70
1
  0
VERTEX
  8
PEC
 39
0
 10
65.025000
 20
51.770000
 30
0.000000
 70
0
 42
0
  0
VERTEX
  8
PEC
 39
0
 10
65.025000
 20
48.280000
 30
0.000000
 70
0
 42
0.198912
  0
VERTEX
  8
PEC
 39
0
 10
76.865503
 20
53.184497
 30
0.000000
 70
0
 42
0.198912
  0
VERTEX
  8
PEC
 39
0
 10
81.770000
 20
65.025000
 30
0.000000
 70
0
 42
0
  0
VERTEX
  8
PEC
 39
0
 10
78.280000
 20
65.025000
 30
0.000000
 70
0
 42
-0.198912
  0
VERTEX
  8
PEC
 39
0
 10
74.397700
 20
55.652300
 30
0.000000
 70
0
 42
-0.198912
  0
SEQEND
  8
PEC
  0
POLYLINE
  8
FLAN
 66
1
 39
0
 10
0.000000
 20
0.000000
 30
0.000000
 70
1
  0
VERTEX
  8
FLAN
 39
0
 10
17.745000
 20
65.025000
 30
0.000000
 70
0
 42
0
  0
VERTEX
  8
FLAN
 39
0
 10
17.745000
 20
29.535000
 30
0.000000
 70
0
 42
0
  0
VERTEX
  8
FLAN
 39
0
 10
91.770000
 20
29.535000
 30
0.000000
 70
0
 42
0
  0
VERTEX
  8
FLAN
 39
0
 10
91.770000
 20
65.025000
 30
0.000000
 70
0
 42
0
  0
SEQEND
  8
FLAN
  0
POLYLINE
  8
PEC
 66
1
 39
0
 10
0.000000
 20
0.000000
 30
0.000000
 70
1
  0
VERTEX
  8
PEC
 39
0
 10
-23.665000
 20
45.535000
 30
0.000000
 70
0
 42
0
  0
VERTEX
  8
PEC
 39
0
 10
-17.745000
 20
45.535000
 30
0.000000
 70
0
 42
0
  0
VERTEX
  8
PEC
 39
0
 10
-17.745000
 20
49.025000
 30
0.000000
 70
0
 42
0
  0
VERTEX
  8
PEC
 39
0
 10
-23.665000
 20
49.025000
 30
0.000000
 70
0
 42
0
  0
SEQEND
  8
PEC
  0
POLYLINE
  8
FLAN
 66
1
 39
0
 10
0.000000
 20
0.000000
 30
0.000000
 70
1
  0
VERTEX
  8
FLAN
 39
0
 10
-17.745000
 20
29.535000
 30
0.000000
 70
0
 42
0
  0
VERTEX
  8
FLAN
 39
0
 10
-17.745000
 20
65.025000
 30
0.000000
 70
0
 42
0
  0
VERTEX
  8
FLAN
 39
0
 10
-91.770000
 20
65.025000
 30
0.000000
 70
0
 42
0
  0
VERTEX
  8
FLAN
 39
0
 10
-91.770000
 20
29.535000
 30
0.000000
 70
0
 42
0
  0
SEQEND
  8
FLAN
  0
POLYLINE
  8
PEC
 66
1
 39
0
 10
0.000000
 20
0.000000
 30
0.000000
 70
1
  0
VERTEX
  8
PEC
 39
0
 10
-22.745000
 20
46.280000
 30
0.000000
 70
0
 42
0
  0
VERTEX
  8
PEC
 39
0
 10
-23.665000
 20
46.280000
 30
0.000000
 70
0
 42
-0.414214
  0
VERTEX
  8
PEC
 39
0
 10
-34.375000
 20
35.570000
 30
0.000000
 70
0
 42
-0.414214
  0
VERTEX
  8
PEC
 39
0
 10
-45.085000
 20
46.280000
 30
0.000000
 70
0
 42
0
  0
VERTEX
  8
PEC
 39
0
 10
-46.005000
 20
46.280000
 30
0.000000
 70
0
 42
0.414214
  0
VERTEX
  8
PEC
 39
0
 10
-34.375000
 20
34.650000
 30
0.000000
 70
0
 42
0.414214
  0
SEQEND
  8
PEC
  0
POLYLINE
  8
PEC
 66
1
 39
0
 10
0.000000
 20
0.000000
 30
0.000000
 70
1
  0
VERTEX
  8
PEC
 39
0
 10
-23.665000
 20
48.280000
 30
0.000000
 70
0
 42
0
  0
VERTEX
  8
PEC
 39
0
 10
-22.745000
 20
48.280000
 30
0.000000
 70
0
 42
0.414214
  0
VERTEX
  8
PEC
 39
0
 10
-34.375000
 20
59.910000
 30
0.000000
 70
0
 42
0.414214
  0
VERTEX
  8
PEC
 39
0
 10
-46.005000
 20
48.280000
 30
0.000000
 70
0
 42
0
  0
VERTEX
  8
PEC
 39
0
 10
-45.085000
 20
48.280000
 30
0.000000
 70
0
 42
-0.414214
  0
VERTEX
  8
PEC
 39
0
 10
-34.375000
 20
58.990000
 30
0.000000
 70
0
 42
-0.414214
  0
SEQEND
  8
PEC
  0
POLYLINE
  8
PEC
 66
1
 39
0
 10
0.000000
 20
0.000000
 30
0.000000
 70
1
  0
VERTEX
  8
PEC
 39
0
 10
-45.085000
 20
46.280000
 30
0.000000
 70
0
 42
0
  0
VERTEX
  8
PEC
 39
0
 10
-46.335000
 20
46.280000
 30
0.000000
 70
0
 42
-0.414214
  0
VERTEX
  8
PEC
 39
0
 10
-50.590000
 20
42.025000
 30
0.000000
 70
0
 42
-0.414214
  0
VERTEX
  8
PEC
 39
0
 10
-54.845000
 20
46.280000
 30
0.000000
 70
0
 42
0
  0
VERTEX
  8
PEC
 39
0
 10
-56.095000
 20
46.280000
 30
0.000000
 70
0
 42
0.414214
  0
VERTEX
  8
PEC
 39
0
 10
-50.590000
 20
40.775000
 30
0.000000
 70
0
 42
0.414214
  0
SEQEND
  8
PEC
  0
POLYLINE
  8
PEC
 66
1
 39
0
 10
0.000000
 20
0.000000
 30
0.000000
 70
1
  0
VERTEX
  8
PEC
 39
0
 10
-46.335000
 20
48.280000
 30
0.000000
 70
0
 42
0
  0
VERTEX
  8
PEC
 39
0
 10
-45.085000
 20
48.280000
 30
0.000000
 70
0
 42
0.414214
  0
VERTEX
  8
PEC
 39
0
 10
-50.590000
 20
53.785000
 30
0.000000
 70
0
 42
0.414214
  0
VERTEX
  8
PEC
 39
0
 10
-56.095000
 20
48.280000
 30
0.000000
 70
0
 42
0
  0
VERTEX
  8
PEC
 39
0
 10
-54.845000
 20
48.280000
 30
0.000000
 70
0
 42
-0.414214
  0
VERTEX
  8
PEC
 39
0
 10
-50.590000
 20
52.535000
 30
0.000000
 70
0
 42
-0.414214
  0
SEQEND
  8
PEC
  0
POLYLINE
  8
PEC
 66
1
 39
0
 10
0.000000
 20
0.000000
 30
0.000000
 70
1
  0
VERTEX
  8
PEC
 39
0
 10
-54.845000
 20
46.280000
 30
0.000000
 70
0
 42
0
  0
VERTEX
  8
PEC
 39
0
 10
-57.015000
 20
46.280000
 30
0.000000
 70
0
 42
-0.414214
  0
VERTEX
  8
PEC
 39
0
 10
-61.020000
 20
42.275000
 30
0.000000
 70
0
 42
-0.414214
  0
VERTEX
  8
PEC
 39
0
 10
-65.025000
 20
46.280000
 30
0.000000
 70
0
 42
0
  0
VERTEX
  8
PEC
 39
0
 10
-67.195000
 20
46.280000
 30
0.000000
 70
0
 42
0.414214
  0
VERTEX
  8
PEC
 39
0
 10
-61.020000
 20
40.105000
 30
0.000000
 70
0
 42
0.414214
  0
SEQEND
  8
PEC
  0
POLYLINE
  8
PEC
 66
1
 39
0
 10
0.000000
 20
0.000000
 30
0.000000
 70
1
  0
VERTEX
  8
PEC
 39
0
 10
-57.015000
 20
48.280000
 30
0.000000
 70
0
 42
0
  0
VERTEX
  8
PEC
 39
0
 10
-54.845000
 20
48.280000
 30
0.000000
 70
0
 42
0.414214
  0
VERTEX
  8
PEC
 39
0
 10
-61.020000
 20
54.455000
 30
0.000000
 70
0
 42
0.414214
  0
VERTEX
  8
PEC
 39
0
 10
-67.195000
 20
48.280000
 30
0.000000
 70
0
 42
0
  0
VERTEX
  8
PEC
 39
0
 10
-65.025000
 20
48.280000
 30
0.000000
 70
0
 42
-0.414214
  0
VERTEX
  8
PEC
 39
0
 10
-61.020000
 20
52.285000
 30
0.000000
 70
0
 42
-0.414214
  0
SEQEND
  8
PEC
  0
POLYLINE
  8
PEC
 66
1
 39
0
 10
0.000000
 20
0.000000
 30
0.000000
 70
1
  0
VERTEX
  8
PEC
 39
0
 10
-65.025000
 20
48.280000
 30
0.000000
 70
0
 42
0
  0
VERTEX
  8
PEC
 39
0
 10
-65.025000
 20
51.770000
 30
0.000000
 70
0
 42
-0.198912
  0
VERTEX
  8
PEC
 39
0
 10
-74.397700
 20
55.652300
 30
0.000000
 70
0
 42
-0.198912
  0
VERTEX
  8
PEC
 39
0
 10
-78.280000
 20
65.025000
 30
0.000000
 70
0
 42
0
  0
VERTEX
  8
PEC
 39
0
 10
-81.770000
 20
65.025000
 30
0.000000
 70
0
 42
0.198912
  0
VERTEX
  8
PEC
 39
0
 10
-76.865503
 20
53.184497
 30
0.000000
 70
0
 42
0.198912
  0
SEQEND
  8
PEC
  0
POLYLINE
  8
PEC
 66
1
 39
0
 10
0.000000
 20
0.000000
 30
0.000000
 70
1
  0
VERTEX
  8
PEC
 39
0
 10
-65.025000
 20
42.790000
 30
0.000000
 70
0
 42
0
  0
VERTEX
  8
PEC
 39
0
 10
-65.025000
 20
46.280000
 30
0.000000
 70
0
 42
0.198912
  0
VERTEX
  8
PEC
 39
0
 10
-76.865503
 20
41.375503
 30
0.000000
 70
0
 42
0.198912
  0
VERTEX
  8
PEC
 39
0
 10
-81.770000
 20
29.535000
 30
0.000000
 70
0
 42
0
  0
VERTEX
  8
PEC
 39
0
 10
-78.280000
 20
29.535000
 30
0.000000
 70
0
 42
-0.198912
  0
VERTEX
  8
PEC
 39
0
 10
-74.397700
 20
38.907700
 30
0.000000
 70
0
 42
-0.198912
  0
SEQEND
  8
PEC
  0
ENDSEC
  0
EOF
