  0
SECTION
  2
HEADER
  9
$ACADVER
  1
AC1027
  9
$ACADMAINTVER
 70
    10
  9
$DWGCODEPAGE
  3
ANSI_1252
  9
$LASTSAVEDBY
  1
nlv05872
  9
$REQUIREDVERSIONS
160
                 0
  9
$INSBASE
 10
0.0
 20
0.0
 30
0.0
  9
$EXTMIN
 10
-51.50289933017674
 20
-40.25254121998833
 30
-0.0015258207003583
  9
$EXTMAX
 10
43.51539977261322
 20
39.75234159251738
 30
0.0000000349246037
  9
$LIMMIN
 10
0.0
 20
0.0
  9
$LIMMAX
 10
12.0
 20
9.0
  9
$ORTHOMODE
 70
     0
  9
$REGENMODE
 70
     1
  9
$FILLMODE
 70
     1
  9
$QTEXTMODE
 70
     0
  9
$MIRRTEXT
 70
     0
  9
$LTSCALE
 40
1.0
  9
$ATTMODE
 70
     1
  9
$TEXTSIZE
 40
1.0
  9
$TRACEWID
 40
0.05
  9
$TEXTSTYLE
  7
STANDARD
  9
$CLAYER
  8
0
  9
$CELTYPE
  6
Continuous
  9
$CECOLOR
 62
   256
  9
$CELTSCALE
 40
1.0
  9
$DISPSILH
 70
     0
  9
$DIMSCALE
 40
1.0
  9
$DIMASZ
 40
0.18
  9
$DIMEXO
 40
0.0625
  9
$DIMDLI
 40
0.38
  9
$DIMRND
 40
0.0
  9
$DIMDLE
 40
0.0
  9
$DIMEXE
 40
0.18
  9
$DIMTP
 40
0.0
  9
$DIMTM
 40
0.0
  9
$DIMTXT
 40
0.18
  9
$DIMCEN
 40
0.09
  9
$DIMTSZ
 40
0.0
  9
$DIMTOL
 70
     0
  9
$DIMLIM
 70
     0
  9
$DIMTIH
 70
     1
  9
$DIMTOH
 70
     1
  9
$DIMSE1
 70
     0
  9
$DIMSE2
 70
     0
  9
$DIMTAD
 70
     0
  9
$DIMZIN
 70
     0
  9
$DIMBLK
  1

  9
$DIMASO
 70
     1
  9
$DIMSHO
 70
     1
  9
$DIMPOST
  1

  9
$DIMAPOST
  1

  9
$DIMALT
 70
     0
  9
$DIMALTD
 70
     2
  9
$DIMALTF
 40
25.4
  9
$DIMLFAC
 40
1.0
  9
$DIMTOFL
 70
     0
  9
$DIMTVP
 40
0.0
  9
$DIMTIX
 70
     0
  9
$DIMSOXD
 70
     0
  9
$DIMSAH
 70
     0
  9
$DIMBLK1
  1

  9
$DIMBLK2
  1

  9
$DIMSTYLE
  2
Standard
  9
$DIMCLRD
 70
     0
  9
$DIMCLRE
 70
     0
  9
$DIMCLRT
 70
     0
  9
$DIMTFAC
 40
1.0
  9
$DIMGAP
 40
0.09
  9
$DIMJUST
 70
     0
  9
$DIMSD1
 70
     0
  9
$DIMSD2
 70
     0
  9
$DIMTOLJ
 70
     1
  9
$DIMTZIN
 70
     0
  9
$DIMALTZ
 70
     0
  9
$DIMALTTZ
 70
     0
  9
$DIMUPT
 70
     0
  9
$DIMDEC
 70
     4
  9
$DIMTDEC
 70
     4
  9
$DIMALTU
 70
     2
  9
$DIMALTTD
 70
     2
  9
$DIMTXSTY
  7
STANDARD
  9
$DIMAUNIT
 70
     0
  9
$DIMADEC
 70
     0
  9
$DIMALTRND
 40
0.0
  9
$DIMAZIN
 70
     0
  9
$DIMDSEP
 70
    46
  9
$DIMATFIT
 70
     3
  9
$DIMFRAC
 70
     0
  9
$DIMLDRBLK
  1

  9
$DIMLUNIT
 70
     2
  9
$DIMLWD
 70
    -2
  9
$DIMLWE
 70
    -2
  9
$DIMTMOVE
 70
     0
  9
$DIMFXL
 40
1.0
  9
$DIMFXLON
 70
     0
  9
$DIMJOGANG
 40
0.7853981633974483
  9
$DIMTFILL
 70
     0
  9
$DIMTFILLCLR
 70
     0
  9
$DIMARCSYM
 70
     0
  9
$DIMLTYPE
  6

  9
$DIMLTEX1
  6

  9
$DIMLTEX2
  6

  9
$DIMTXTDIRECTION
 70
     0
  9
$LUNITS
 70
     2
  9
$LUPREC
 70
     4
  9
$SKETCHINC
 40
0.1
  9
$FILLETRAD
 40
0.0
  9
$AUNITS
 70
     0
  9
$AUPREC
 70
     0
  9
$MENU
  1
.
  9
$ELEVATION
 40
0.0
  9
$PELEVATION
 40
0.0
  9
$THICKNESS
 40
0.0
  9
$LIMCHECK
 70
     0
  9
$CHAMFERA
 40
0.0
  9
$CHAMFERB
 40
0.0
  9
$CHAMFERC
 40
0.0
  9
$CHAMFERD
 40
0.0
  9
$SKPOLY
 70
     0
  9
$TDCREATE
 40
2457228.651096076
  9
$TDUCREATE
 40
2457228.567762744
  9
$TDUPDATE
 40
2457228.651362361
  9
$TDUUPDATE
 40
2457228.568029028
  9
$TDINDWG
 40
0.0002662847
  9
$TDUSRTIMER
 40
0.0002662847
  9
$USRTIMER
 70
     1
  9
$ANGBASE
 50
0.0
  9
$ANGDIR
 70
     0
  9
$PDMODE
 70
     0
  9
$PDSIZE
 40
0.0
  9
$PLINEWID
 40
0.0
  9
$SPLFRAME
 70
     0
  9
$SPLINETYPE
 70
     6
  9
$SPLINESEGS
 70
     8
  9
$HANDSEED
  5
460
  9
$SURFTAB1
 70
     6
  9
$SURFTAB2
 70
     6
  9
$SURFTYPE
 70
     6
  9
$SURFU
 70
     6
  9
$SURFV
 70
     6
  9
$UCSBASE
  2

  9
$UCSNAME
  2

  9
$UCSORG
 10
0.0
 20
0.0
 30
0.0
  9
$UCSXDIR
 10
1.0
 20
0.0
 30
0.0
  9
$UCSYDIR
 10
0.0
 20
1.0
 30
0.0
  9
$UCSORTHOREF
  2

  9
$UCSORTHOVIEW
 70
     0
  9
$UCSORGTOP
 10
0.0
 20
0.0
 30
0.0
  9
$UCSORGBOTTOM
 10
0.0
 20
0.0
 30
0.0
  9
$UCSORGLEFT
 10
0.0
 20
0.0
 30
0.0
  9
$UCSORGRIGHT
 10
0.0
 20
0.0
 30
0.0
  9
$UCSORGFRONT
 10
0.0
 20
0.0
 30
0.0
  9
$UCSORGBACK
 10
0.0
 20
0.0
 30
0.0
  9
$PUCSBASE
  2

  9
$PUCSNAME
  2

  9
$PUCSORG
 10
0.0
 20
0.0
 30
0.0
  9
$PUCSXDIR
 10
1.0
 20
0.0
 30
0.0
  9
$PUCSYDIR
 10
0.0
 20
1.0
 30
0.0
  9
$PUCSORTHOREF
  2

  9
$PUCSORTHOVIEW
 70
     0
  9
$PUCSORGTOP
 10
0.0
 20
0.0
 30
0.0
  9
$PUCSORGBOTTOM
 10
0.0
 20
0.0
 30
0.0
  9
$PUCSORGLEFT
 10
0.0
 20
0.0
 30
0.0
  9
$PUCSORGRIGHT
 10
0.0
 20
0.0
 30
0.0
  9
$PUCSORGFRONT
 10
0.0
 20
0.0
 30
0.0
  9
$PUCSORGBACK
 10
0.0
 20
0.0
 30
0.0
  9
$USERI1
 70
     0
  9
$USERI2
 70
     0
  9
$USERI3
 70
     0
  9
$USERI4
 70
     0
  9
$USERI5
 70
     0
  9
$USERR1
 40
0.0
  9
$USERR2
 40
0.0
  9
$USERR3
 40
0.0
  9
$USERR4
 40
0.0
  9
$USERR5
 40
0.0
  9
$WORLDVIEW
 70
     1
  9
$SHADEDGE
 70
     3
  9
$SHADEDIF
 70
    70
  9
$TILEMODE
 70
     1
  9
$MAXACTVP
 70
    64
  9
$PINSBASE
 10
0.0
 20
0.0
 30
0.0
  9
$PLIMCHECK
 70
     0
  9
$PEXTMIN
 10
1.000000000000000E+20
 20
1.000000000000000E+20
 30
1.000000000000000E+20
  9
$PEXTMAX
 10
-1.000000000000000E+20
 20
-1.000000000000000E+20
 30
-1.000000000000000E+20
  9
$PLIMMIN
 10
0.0
 20
0.0
  9
$PLIMMAX
 10
12.0
 20
9.0
  9
$UNITMODE
 70
     0
  9
$VISRETAIN
 70
     1
  9
$PLINEGEN
 70
     0
  9
$PSLTSCALE
 70
     1
  9
$TREEDEPTH
 70
  3020
  9
$CMLSTYLE
  2
Standard
  9
$CMLJUST
 70
     0
  9
$CMLSCALE
 40
1.0
  9
$PROXYGRAPHICS
 70
     1
  9
$MEASUREMENT
 70
     0
  9
$CELWEIGHT
370
    -1
  9
$ENDCAPS
280
     0
  9
$JOINSTYLE
280
     0
  9
$LWDISPLAY
290
     0
  9
$INSUNITS
 70
     0
  9
$HYPERLINKBASE
  1

  9
$STYLESHEET
  1

  9
$XEDIT
290
     1
  9
$CEPSNTYPE
380
     0
  9
$PSTYLEMODE
290
     1
  9
$FINGERPRINTGUID
  2
{EFE30B7E-506B-4DB9-8D9B-9A00FDE92A71}
  9
$VERSIONGUID
  2
{0B04DE5E-5440-4FD1-8914-5979FDA760D0}
  9
$EXTNAMES
290
     1
  9
$PSVPSCALE
 40
0.0
  9
$OLESTARTUP
290
     0
  9
$SORTENTS
280
   127
  9
$INDEXCTL
280
     0
  9
$HIDETEXT
280
     0
  9
$XCLIPFRAME
280
     2
  9
$HALOGAP
280
     0
  9
$OBSCOLOR
 70
   257
  9
$OBSLTYPE
280
     0
  9
$INTERSECTIONDISPLAY
280
     0
  9
$INTERSECTIONCOLOR
 70
   257
  9
$DIMASSOC
280
     1
  9
$PROJECTNAME
  1

  9
$CAMERADISPLAY
290
     0
  9
$LENSLENGTH
 40
50.0
  9
$CAMERAHEIGHT
 40
0.0
  9
$STEPSPERSEC
 40
2.0
  9
$STEPSIZE
 40
6.0
  9
$3DDWFPREC
 40
2.0
  9
$PSOLWIDTH
 40
0.25
  9
$PSOLHEIGHT
 40
4.0
  9
$LOFTANG1
 40
1.570796326794896
  9
$LOFTANG2
 40
1.570796326794896
  9
$LOFTMAG1
 40
0.0
  9
$LOFTMAG2
 40
0.0
  9
$LOFTPARAM
 70
     7
  9
$LOFTNORMALS
280
     1
  9
$LATITUDE
 40
37.795
  9
$LONGITUDE
 40
-122.394
  9
$NORTHDIRECTION
 40
0.0
  9
$TIMEZONE
 70
 -8000
  9
$LIGHTGLYPHDISPLAY
280
     1
  9
$TILEMODELIGHTSYNCH
280
     1
  9
$CMATERIAL
347
11
  9
$SOLIDHIST
280
     0
  9
$SHOWHIST
280
     1
  9
$DWFFRAME
280
     2
  9
$DGNFRAME
280
     0
  9
$REALWORLDSCALE
290
     1
  9
$INTERFERECOLOR
 62
     1
  9
$INTERFEREOBJVS
345
33
  9
$INTERFEREVPVS
346
30
  9
$CSHADOW
280
     0
  9
$SHADOWPLANELOCATION
 40
0.0
  0
ENDSEC
  0
SECTION
  2
CLASSES
  0
CLASS
  1
ACDBDICTIONARYWDFLT
  2
AcDbDictionaryWithDefault
  3
ObjectDBX Classes
 90
        0
 91
        1
280
     0
281
     0
  0
CLASS
  1
MATERIAL
  2
AcDbMaterial
  3
ObjectDBX Classes
 90
     1153
 91
        3
280
     0
281
     0
  0
CLASS
  1
VISUALSTYLE
  2
AcDbVisualStyle
  3
ObjectDBX Classes
 90
     4095
 91
       24
280
     0
281
     0
  0
CLASS
  1
SCALE
  2
AcDbScale
  3
ObjectDBX Classes
 90
     1153
 91
       17
280
     0
281
     0
  0
CLASS
  1
TABLESTYLE
  2
AcDbTableStyle
  3
ObjectDBX Classes
 90
     4095
 91
        1
280
     0
281
     0
  0
CLASS
  1
MLEADERSTYLE
  2
AcDbMLeaderStyle
  3
ACDB_MLEADERSTYLE_CLASS
 90
     4095
 91
        1
280
     0
281
     0
  0
CLASS
  1
ACDBSECTIONVIEWSTYLE
  2
AcDbSectionViewStyle
  3
ObjectDBX Classes
 90
     1025
 91
        1
280
     0
281
     0
  0
CLASS
  1
ACDBDETAILVIEWSTYLE
  2
AcDbDetailViewStyle
  3
ObjectDBX Classes
 90
     1025
 91
        1
280
     0
281
     0
  0
CLASS
  1
DICTIONARYVAR
  2
AcDbDictionaryVar
  3
ObjectDBX Classes
 90
        0
 91
        9
280
     0
281
     0
  0
CLASS
  1
CELLSTYLEMAP
  2
AcDbCellStyleMap
  3
ObjectDBX Classes
 90
     1152
 91
        1
280
     0
281
     0
  0
ENDSEC
  0
SECTION
  2
TABLES
  0
TABLE
  2
VPORT
  5
8
330
0
100
AcDbSymbolTable
 70
     1
  0
VPORT
  5
79
330
8
100
AcDbSymbolTableRecord
100
AcDbViewportTableRecord
  2
*Active
 70
     0
 10
0.0
 20
0.0
 11
1.0
 21
1.0
 12
-3.993749778781758
 22
-0.2500998137354742
 13
0.0
 23
0.0
 14
1.0
 24
1.0
 15
0.0
 25
0.0
 16
0.0
 26
0.0
 36
1.0
 17
0.0
 27
0.0
 37
0.0
 40
80.89713057621395
 41
1.897579143389199
 42
50.0
 43
0.0
 44
0.0
 50
0.0
 51
0.0
 71
     0
 72
   100
 73
     1
 74
     1
 75
     0
 76
     0
 77
     0
 78
     0
281
     0
 65
     1
110
0.0
120
0.0
130
0.0
111
1.0
121
0.0
131
0.0
112
0.0
122
1.0
132
0.0
 79
     0
146
0.0
348
2F
 60
     3
 61
     5
292
     1
282
     1
141
0.0
142
0.0
 63
   250
421
  3355443
1001
ACAD_NAV_VCDISPLAY
1070
     3
  0
ENDTAB
  0
TABLE
  2
LTYPE
  5
5
330
0
100
AcDbSymbolTable
 70
     2
  0
LTYPE
  5
5A
330
5
100
AcDbSymbolTableRecord
100
AcDbLinetypeTableRecord
  2
ByBlock
 70
     0
  3

 72
    65
 73
     0
 40
0.0
  0
LTYPE
  5
5B
330
5
100
AcDbSymbolTableRecord
100
AcDbLinetypeTableRecord
  2
ByLayer
 70
     0
  3

 72
    65
 73
     0
 40
0.0
  0
LTYPE
  5
5C
330
5
100
AcDbSymbolTableRecord
100
AcDbLinetypeTableRecord
  2
Continuous
 70
     0
  3
Solid line
 72
    65
 73
     0
 40
0.0
  0
LTYPE
  5
68
330
5
100
AcDbSymbolTableRecord
100
AcDbLinetypeTableRecord
  2
PHANTOM2
 70
     0
  3
Phantom (.5x) ___ _ _ ___ _ _ ___ _ _ ___ _ _
 72
    65
 73
     6
 40
1.25
 49
0.625
 74
     0
 49
-0.125
 74
     0
 49
0.125
 74
     0
 49
-0.125
 74
     0
 49
0.125
 74
     0
 49
-0.125
 74
     0
  0
ENDTAB
  0
TABLE
  2
LAYER
  5
2
330
0
100
AcDbSymbolTable
 70
     5
  0
LAYER
  5
54
102
{ACAD_XDICTIONARY
360
448
102
}
330
2
100
AcDbSymbolTableRecord
100
AcDbLayerTableRecord
  2
0
 70
     0
 62
    15
  6
Continuous
370
    -3
390
F
347
21
348
0
  0
LAYER
  5
74
102
{ACAD_XDICTIONARY
360
44A
102
}
330
2
100
AcDbSymbolTableRecord
100
AcDbLayerTableRecord
  2
BLF571_BB_INPUT_PCB_REV1
 70
     0
 62
    14
  6
Continuous
370
    -3
390
F
347
21
348
0
  0
LAYER
  5
75
102
{ACAD_XDICTIONARY
360
44C
102
}
330
2
100
AcDbSymbolTableRecord
100
AcDbLayerTableRecord
  2
COND
 70
     0
 62
    13
  6
Continuous
370
    -3
390
F
347
21
348
0
  0
LAYER
  5
76
102
{ACAD_XDICTIONARY
360
44E
102
}
330
2
100
AcDbSymbolTableRecord
100
AcDbLayerTableRecord
  2
HOLE
 70
     0
 62
    12
  6
Continuous
370
    -3
390
F
347
21
348
0
  0
LAYER
  5
77
102
{ACAD_XDICTIONARY
360
450
102
}
330
2
100
AcDbSymbolTableRecord
100
AcDbLayerTableRecord
  2
BOUND
 70
     0
 62
    11
  6
Continuous
370
    -3
390
F
347
21
348
0
  0
ENDTAB
  0
TABLE
  2
STYLE
  5
3
330
0
100
AcDbSymbolTable
 70
     2
  0
STYLE
  5
55
330
3
100
AcDbSymbolTableRecord
100
AcDbTextStyleTableRecord
  2
STANDARD
 70
     0
 40
1.0
 41
1.0
 50
0.0
 71
     0
 42
1.0
  3
txt
  4

  0
STYLE
  5
59
330
3
100
AcDbSymbolTableRecord
100
AcDbTextStyleTableRecord
  2
Annotative
 70
     0
 40
0.0
 41
1.0
 50
0.0
 71
     0
 42
0.2
  3
txt
  4

1001
AcadAnnotative
1000
AnnotativeData
1002
{
1070
     1
1070
     1
1002
}
  0
ENDTAB
  0
TABLE
  2
VIEW
  5
6
330
0
100
AcDbSymbolTable
 70
     0
  0
ENDTAB
  0
TABLE
  2
UCS
  5
7
330
0
100
AcDbSymbolTable
 70
     0
  0
ENDTAB
  0
TABLE
  2
APPID
  5
9
330
0
100
AcDbSymbolTable
 70
     3
  0
APPID
  5
56
330
9
100
AcDbSymbolTableRecord
100
AcDbRegAppTableRecord
  2
ACAD
 70
     0
  0
APPID
  5
5D
330
9
100
AcDbSymbolTableRecord
100
AcDbRegAppTableRecord
  2
AcadAnnotative
 70
     0
  0
APPID
  5
45C
330
9
100
AcDbSymbolTableRecord
100
AcDbRegAppTableRecord
  2
ACAD_NAV_VCDISPLAY
 70
     0
  0
ENDTAB
  0
TABLE
  2
DIMSTYLE
  5
A
330
0
100
AcDbSymbolTable
 70
     2
100
AcDbDimStyleTable
 71
     0
  0
DIMSTYLE
105
57
330
A
100
AcDbSymbolTableRecord
100
AcDbDimStyleTableRecord
  2
Standard
 70
     0
340
55
  0
DIMSTYLE
105
58
330
A
100
AcDbSymbolTableRecord
100
AcDbDimStyleTableRecord
  2
Annotative
 70
     0
340
55
1001
AcadAnnotative
1000
AnnotativeData
1002
{
1070
     1
1070
     1
1002
}
  0
ENDTAB
  0
TABLE
  2
BLOCK_RECORD
  5
1
330
0
100
AcDbSymbolTable
 70
     0
  0
BLOCK_RECORD
  5
70
330
1
100
AcDbSymbolTableRecord
100
AcDbBlockTableRecord
  2
*Model_Space
340
73
 70
     0
280
     1
281
     0
  0
BLOCK_RECORD
  5
6C
330
1
100
AcDbSymbolTableRecord
100
AcDbBlockTableRecord
  2
*Paper_Space
340
6F
 70
     0
280
     1
281
     0
  0
ENDTAB
  0
ENDSEC
  0
SECTION
  2
BLOCKS
  0
BLOCK
  5
71
330
70
100
AcDbEntity
  8
0
100
AcDbBlockBegin
  2
*Model_Space
 70
     0
 10
0.0
 20
0.0
 30
0.0
  3
*Model_Space
  1

  0
ENDBLK
  5
72
330
70
100
AcDbEntity
  8
0
100
AcDbBlockEnd
  0
BLOCK
  5
6D
330
6C
100
AcDbEntity
 67
     1
  8
0
100
AcDbBlockBegin
  2
*Paper_Space
 70
     0
 10
0.0
 20
0.0
 30
0.0
  3
*Paper_Space
  1

  0
ENDBLK
  5
6E
330
6C
100
AcDbEntity
 67
     1
  8
0
100
AcDbBlockEnd
  0
ENDSEC
  0
SECTION
  2
ENTITIES
  0
LWPOLYLINE
  5
7A
330
70
100
AcDbEntity
  8
COND
100
AcDbPolyline
 90
       16
 70
     1
 43
0.0
 10
40.49999999999999
 20
5.7
 10
40.49999999999999
 20
3.7
 10
43.5
 20
3.7
 10
43.5
 20
-4.299999999999999
 10
35.5
 20
-4.299999999999999
 10
35.5
 20
-1.5
 10
32.0
 20
-1.5
 10
32.0
 20
-2.799999999999999
 10
29.0
 20
-2.799999999999999
 10
29.0
 20
2.2
 10
32.0
 20
2.2
 10
32.0
 20
0.9
 10
35.5
 20
0.9
 10
35.5
 20
3.7
 10
38.5
 20
3.7
 10
38.5
 20
5.7
  0
LWPOLYLINE
  5
8C
330
70
100
AcDbEntity
  8
COND
100
AcDbPolyline
 90
        8
 70
     1
 43
0.0
 10
-23.0
 20
2.2
 10
-23.0
 20
-2.799999999999999
 10
-26.0
 20
-2.799999999999999
 10
-26.0
 20
-1.5
 10
-42.5
 20
-1.5
 10
-42.5
 20
0.9
 10
-26.0
 20
0.9
 10
-26.0
 20
2.2
  0
LWPOLYLINE
  5
96
330
70
100
AcDbEntity
  8
COND
100
AcDbPolyline
 90
       12
 70
     1
 43
0.0
 10
27.0
 20
2.2
 10
27.0
 20
-2.799999999999999
 10
24.0
 20
-2.799999999999999
 10
24.0
 20
-1.5
 10
-19.0
 20
-1.5
 10
-19.0
 20
-2.799999999999999
 10
-22.0
 20
-2.799999999999999
 10
-22.0
 20
2.2
 10
-19.0
 20
2.2
 10
-19.0
 20
0.9
 10
24.0
 20
0.9
 10
24.0
 20
2.2
  0
LWPOLYLINE
  5
A4
330
70
100
AcDbEntity
  8
COND
100
AcDbPolyline
 90
        8
 70
     1
 43
0.0
 10
9.8275
 20
-36.1815
 10
9.714199999999999
 20
-36.1815
 10
9.714199999999999
 20
-36.0681
 10
10.038
 20
-35.7788
 10
10.1513
 20
-35.7788
 10
10.1513
 20
-36.8567
 10
10.038
 20
-36.8567
 10
10.038
 20
-35.9934
  0
LWPOLYLINE
  5
AE
330
70
100
AcDbEntity
  8
COND
100
AcDbPolyline
 90
        9
 70
     1
 43
0.0
 10
8.912699999999999
 20
-36.5987
 10
9.2339
 20
-35.7788
 10
9.3472
 20
-35.7788
 10
9.3472
 20
-35.8921
 10
8.9694
 20
-36.8567
 10
8.856099999999999
 20
-36.8567
 10
8.4783
 20
-35.8921
 10
8.4783
 20
-35.7788
 10
8.591599999999999
 20
-35.7788
  0
LWPOLYLINE
  5
B9
330
70
100
AcDbEntity
  8
COND
100
AcDbPolyline
 90
       12
 70
     1
 43
0.0
 10
8.327199999999999
 20
-35.8921
 10
7.5716
 20
-35.8921
 10
7.5716
 20
-36.2128
 10
8.2193
 20
-36.2128
 10
8.2193
 20
-36.3262
 10
7.5716
 20
-36.3262
 10
7.5716
 20
-36.7433
 10
8.327199999999999
 20
-36.7433
 10
8.327199999999999
 20
-36.8567
 10
7.4583
 20
-36.8567
 10
7.4583
 20
-35.7788
 10
8.327199999999999
 20
-35.7788
  0
LWPOLYLINE
  5
C7
330
70
100
AcDbEntity
  8
COND
100
AcDbPolyline
 90
       33
 70
     1
 43
0.0
 10
6.951
 20
-35.7788
 10
6.951
 20
-35.8921
 10
6.551599999999999
 20
-35.8921
 10
6.551599999999999
 20
-36.2611
 10
6.951
 20
-36.2611
 10
7.0589
 20
-36.2369
 10
7.139899999999999
 20
-36.1887
 10
7.1669
 20
-36.14050000000001
 10
7.190699999999999
 20
-36.0766
 10
7.1669
 20
-36.0127
 10
7.139899999999999
 20
-35.9645
 10
7.0589
 20
-35.91620000000001
 10
6.951
 20
-35.8921
 10
6.951
 20
-35.7788
 10
7.0643
 20
-35.7788
 10
7.172299999999999
 20
-35.8029
 10
7.253199999999999
 20
-35.8511
 10
7.280199999999999
 20
-35.8994
 10
7.307199999999999
 20
-35.9717
 10
7.307199999999999
 20
-36.1815
 10
7.280199999999999
 20
-36.2538
 10
7.253199999999999
 20
-36.302
 10
7.172299999999999
 20
-36.3503
 10
7.0643
 20
-36.3744
 10
7.059499999999999
 20
-36.3744
 10
7.307199999999999
 20
-36.7433
 10
7.307199999999999
 20
-36.8567
 10
7.1939
 20
-36.8567
 10
6.87
 20
-36.3744
 10
6.551599999999999
 20
-36.3744
 10
6.551599999999999
 20
-36.8567
 10
6.438299999999999
 20
-36.8567
 10
6.438299999999999
 20
-35.7788
  0
LWPOLYLINE
  5
EA
330
70
100
AcDbEntity
  8
COND
100
AcDbPolyline
 90
       41
 70
     1
 43
0.0
 10
5.132299999999999
 20
-36.2611
 10
5.1862
 20
-36.3093
 10
5.240199999999999
 20
-36.42990000000001
 10
5.240199999999999
 20
-36.6638
 10
5.1862
 20
-36.7602
 10
5.132299999999999
 20
-36.8084
 10
5.0243
 20
-36.8567
 10
4.4253
 20
-36.8567
 10
4.4253
 20
-35.7788
 10
4.83
 20
-35.7788
 10
4.83
 20
-35.8921
 10
4.538599999999999
 20
-35.8921
 10
4.538599999999999
 20
-36.2128
 10
4.857
 20
-36.2128
 10
4.911
 20
-36.19680000000001
 10
4.911
 20
-36.3262
 10
4.538599999999999
 20
-36.3262
 10
4.538599999999999
 20
-36.7433
 10
4.911
 20
-36.7433
 10
5.0189
 20
-36.6951
 10
5.072899999999999
 20
-36.6469
 10
5.1269
 20
-36.5504
 10
5.1269
 20
-36.5432
 10
5.072899999999999
 20
-36.4226
 10
5.0189
 20
-36.3744
 10
4.911
 20
-36.3262
 10
4.911
 20
-36.19680000000001
 10
4.937999999999999
 20
-36.1887
 10
5.0189
 20
-36.14050000000001
 10
5.065299999999999
 20
-36.0577
 10
5.045899999999999
 20
-35.9886
 10
4.964999999999999
 20
-35.91620000000001
 10
4.83
 20
-35.8921
 10
4.83
 20
-35.7788
 10
4.943399999999999
 20
-35.7788
 10
5.078299999999999
 20
-35.8029
 10
5.159299999999999
 20
-35.8752
 10
5.1862
 20
-35.9717
 10
5.1862
 20
-36.15740000000001
 10
5.132299999999999
 20
-36.2538
 10
5.1253
 20
-36.258
  0
LWPOLYLINE
  5
115
330
70
100
AcDbEntity
  8
COND
100
AcDbPolyline
 90
       28
 70
     1
 43
0.0
 10
3.545599999999999
 20
-36.454
 10
3.572599999999999
 20
-36.5504
 10
3.599499999999999
 20
-36.6228
 10
3.6535
 20
-36.671
 10
3.7345
 20
-36.7192
 10
3.842399999999999
 20
-36.7433
 10
4.1932
 20
-36.7433
 10
4.1932
 20
-36.8567
 10
3.729099999999999
 20
-36.8567
 10
3.6211
 20
-36.83250000000001
 10
3.5402
 20
-36.7843
 10
3.4862
 20
-36.7361
 10
3.4592
 20
-36.6638
 10
3.432199999999999
 20
-36.5673
 10
3.432199999999999
 20
-36.0681
 10
3.4592
 20
-35.9717
 10
3.4862
 20
-35.8994
 10
3.5402
 20
-35.8511
 10
3.6211
 20
-35.8029
 10
3.729099999999999
 20
-35.7788
 10
4.1932
 20
-35.7788
 10
4.1932
 20
-35.8921
 10
3.842399999999999
 20
-35.8921
 10
3.7345
 20
-35.91620000000001
 10
3.6535
 20
-35.9645
 10
3.599499999999999
 20
-36.0127
 10
3.572599999999999
 20
-36.085
 10
3.545599999999999
 20
-36.1815
  0
LWPOLYLINE
  5
133
330
70
100
AcDbEntity
  8
COND
100
AcDbPolyline
 90
       28
 70
     1
 43
0.0
 10
2.4716
 20
-36.8567
 10
2.358299999999999
 20
-36.8567
 10
2.358299999999999
 20
-35.7788
 10
2.871
 20
-35.7788
 10
2.871
 20
-35.8921
 10
2.4716
 20
-35.8921
 10
2.4716
 20
-36.2611
 10
2.871
 20
-36.2611
 10
2.978899999999999
 20
-36.2369
 10
3.059899999999999
 20
-36.1887
 10
3.086899999999999
 20
-36.14050000000001
 10
3.1107
 20
-36.0766
 10
3.086899999999999
 20
-36.0127
 10
3.059899999999999
 20
-35.9645
 10
2.978899999999999
 20
-35.91620000000001
 10
2.871
 20
-35.8921
 10
2.871
 20
-35.7788
 10
2.9843
 20
-35.7788
 10
3.092299999999999
 20
-35.8029
 10
3.1732
 20
-35.8511
 10
3.2002
 20
-35.8994
 10
3.227199999999999
 20
-35.9717
 10
3.227199999999999
 20
-36.1815
 10
3.2002
 20
-36.2538
 10
3.1732
 20
-36.302
 10
3.092299999999999
 20
-36.3503
 10
2.9843
 20
-36.3744
 10
2.4716
 20
-36.3744
  0
LWPOLYLINE
  5
151
330
70
100
AcDbEntity
  8
COND
100
AcDbPolyline
 90
        8
 70
     1
 43
0.0
 10
0.3183
 20
-35.7788
 10
1.1872
 20
-35.7788
 10
1.1872
 20
-35.8921
 10
0.8093999999999999
 20
-35.8921
 10
0.8093999999999999
 20
-36.8567
 10
0.6961000000000001
 20
-36.8567
 10
0.6961000000000001
 20
-35.8921
 10
0.3183
 20
-35.8921
  0
LWPOLYLINE
  5
15B
330
70
100
AcDbEntity
  8
COND
100
AcDbPolyline
 90
       28
 70
     1
 43
0.0
 10
-0.4858000000000001
 20
-36.83250000000001
 10
-0.5668
 20
-36.7843
 10
-0.6208000000000001
 20
-36.7361
 10
-0.6747
 20
-36.6638
 10
-0.7017
 20
-36.5673
 10
-0.7017
 20
-35.7788
 10
-0.5884000000000001
 20
-35.7788
 10
-0.5884000000000001
 20
-36.454
 10
-0.5614
 20
-36.5504
 10
-0.5074
 20
-36.6228
 10
-0.4535000000000001
 20
-36.671
 10
-0.3725
 20
-36.7192
 10
-0.2916
 20
-36.7433
 10
-0.243
 20
-36.7433
 10
-0.162
 20
-36.7192
 10
-0.0811
 20
-36.671
 10
-0.0271
 20
-36.6228
 10
0.0269
 20
-36.5504
 10
0.0539
 20
-36.454
 10
0.0539
 20
-35.7788
 10
0.1672
 20
-35.7788
 10
0.1672
 20
-36.5673
 10
0.1402
 20
-36.6638
 10
0.0862
 20
-36.7361
 10
0.0323
 20
-36.7843
 10
-0.0487
 20
-36.83250000000001
 10
-0.1296
 20
-36.8567
 10
-0.4049
 20
-36.8567
  0
LWPOLYLINE
  5
179
330
70
100
AcDbEntity
  8
COND
100
AcDbPolyline
 90
       28
 70
     1
 43
0.0
 10
-1.6084
 20
-36.8567
 10
-1.7217
 20
-36.8567
 10
-1.7217
 20
-35.7788
 10
-1.209
 20
-35.7788
 10
-1.209
 20
-35.8921
 10
-1.6084
 20
-35.8921
 10
-1.6084
 20
-36.2611
 10
-1.209
 20
-36.2611
 10
-1.101099999999999
 20
-36.2369
 10
-1.0201
 20
-36.1887
 10
-0.9930999999999999
 20
-36.14050000000001
 10
-0.9693000000000001
 20
-36.0766
 10
-0.9930999999999999
 20
-36.0127
 10
-1.0201
 20
-35.9645
 10
-1.101099999999999
 20
-35.91620000000001
 10
-1.209
 20
-35.8921
 10
-1.209
 20
-35.7788
 10
-1.095699999999999
 20
-35.7788
 10
-0.9877
 20
-35.8029
 10
-0.9068000000000001
 20
-35.8511
 10
-0.8798
 20
-35.8994
 10
-0.8528
 20
-35.9717
 10
-0.8528
 20
-36.1815
 10
-0.8798
 20
-36.2538
 10
-0.9068000000000001
 20
-36.302
 10
-0.9877
 20
-36.3503
 10
-1.095699999999999
 20
-36.3744
 10
-1.6084
 20
-36.3744
  0
LWPOLYLINE
  5
197
330
70
100
AcDbEntity
  8
COND
100
AcDbPolyline
 90
       10
 70
     1
 43
0.0
 10
-2.6284
 20
-36.8567
 10
-2.741699999999999
 20
-36.8567
 10
-2.741699999999999
 20
-35.7788
 10
-2.6284
 20
-35.7788
 10
-1.9861
 20
-36.5987
 10
-1.9861
 20
-35.7788
 10
-1.872799999999999
 20
-35.7788
 10
-1.872799999999999
 20
-36.8567
 10
-1.9861
 20
-36.8567
 10
-2.6284
 20
-36.0368
  0
LWPOLYLINE
  5
1A3
330
70
100
AcDbEntity
  8
COND
100
AcDbPolyline
 90
        4
 70
     1
 43
0.0
 10
-3.386699999999999
 20
-35.78
 10
-3.273299999999999
 20
-35.78
 10
-3.273299999999999
 20
-36.8567
 10
-3.386699999999999
 20
-36.8567
  0
LWPOLYLINE
  5
1A9
330
70
100
AcDbEntity
  8
COND
100
AcDbPolyline
 90
       10
 70
     1
 43
0.0
 10
-5.8017
 20
-35.7788
 10
-4.9328
 20
-35.7788
 10
-4.9328
 20
-35.8921
 10
-5.599599999999999
 20
-36.7433
 10
-4.9328
 20
-36.7433
 10
-4.9328
 20
-36.8567
 10
-5.8017
 20
-36.8567
 10
-5.8017
 20
-36.7433
 10
-5.1349
 20
-35.8921
 10
-5.8017
 20
-35.8921
  0
LWPOLYLINE
  5
1B5
330
70
100
AcDbEntity
  8
COND
100
AcDbPolyline
 90
       12
 70
     1
 43
0.0
 10
-6.066099999999999
 20
-36.8567
 10
-6.066099999999999
 20
-36.3262
 10
-6.7084
 20
-36.3262
 10
-6.7084
 20
-36.8567
 10
-6.821699999999999
 20
-36.8567
 10
-6.821699999999999
 20
-35.7788
 10
-6.7084
 20
-35.7788
 10
-6.7084
 20
-36.2128
 10
-6.066099999999999
 20
-36.2128
 10
-6.066099999999999
 20
-35.7788
 10
-5.952799999999999
 20
-35.7788
 10
-5.952799999999999
 20
-36.8567
  0
LWPOLYLINE
  5
1C3
330
70
100
AcDbEntity
  8
COND
100
AcDbPolyline
 90
       13
 70
     1
 43
0.0
 10
-7.728399999999999
 20
-36.8567
 10
-7.8417
 20
-36.8567
 10
-7.8417
 20
-35.7788
 10
-7.728399999999999
 20
-35.7788
 10
-7.4073
 20
-36.2297
 10
-7.0861
 20
-35.7788
 10
-6.9728
 20
-35.7788
 10
-6.9728
 20
-36.8567
 10
-7.0861
 20
-36.8567
 10
-7.0861
 20
-36.0513
 10
-7.3506
 20
-36.4226
 10
-7.463899999999999
 20
-36.4226
 10
-7.728399999999999
 20
-36.0513
  0
LWPOLYLINE
  5
1D2
330
70
100
AcDbEntity
  8
COND
100
AcDbPolyline
 90
       26
 70
     1
 43
0.0
 10
-8.267999999999998
 20
-36.302
 10
-8.402999999999998
 20
-36.2779
 10
-8.8078
 20
-36.2779
 10
-8.8078
 20
-35.7788
 10
-8.100699999999999
 20
-35.7788
 10
-8.100699999999999
 20
-35.8921
 10
-8.694399999999999
 20
-35.8921
 10
-8.694399999999999
 20
-36.1646
 10
-8.2896
 20
-36.1646
 10
-8.1547
 20
-36.1887
 10
-8.0738
 20
-36.2611
 10
-8.046799999999999
 20
-36.3575
 10
-8.046799999999999
 20
-36.6155
 10
-8.0738
 20
-36.712
 10
-8.1277
 20
-36.7843
 10
-8.2087
 20
-36.83250000000001
 10
-8.2896
 20
-36.8567
 10
-8.8078
 20
-36.8567
 10
-8.8078
 20
-36.7433
 10
-8.402999999999998
 20
-36.7433
 10
-8.322
 20
-36.7192
 10
-8.241099999999999
 20
-36.671
 10
-8.187099999999999
 20
-36.5987
 10
-8.160099999999999
 20
-36.5022
 10
-8.160099999999999
 20
-36.4708
 10
-8.187099999999999
 20
-36.3744
  0
LWPOLYLINE
  5
1EE
330
70
100
AcDbEntity
  8
COND
100
AcDbPolyline
 90
       25
 70
     1
 43
0.0
 10
-9.234099999999999
 20
-36.1164
 10
-9.185499999999999
 20
-36.0296
 10
-9.234099999999999
 20
-35.9645
 10
-9.314999999999999
 20
-35.91620000000001
 10
-9.423
 20
-35.8921
 10
-9.4716
 20
-35.8921
 10
-9.579499999999999
 20
-35.91620000000001
 10
-9.6605
 20
-35.9645
 10
-9.714399999999999
 20
-36.0368
 10
-9.827799999999999
 20
-36.0368
 10
-9.827799999999999
 20
-35.9235
 10
-9.773799999999999
 20
-35.8511
 10
-9.6928
 20
-35.8029
 10
-9.584899999999999
 20
-35.7788
 10
-9.309599999999999
 20
-35.7788
 10
-9.2017
 20
-35.8029
 10
-9.120699999999999
 20
-35.8511
 10
-9.0668
 20
-35.9235
 10
-9.0668
 20
-36.1333
 10
-9.120699999999999
 20
-36.2297
 10
-9.6071
 20
-36.7433
 10
-9.0668
 20
-36.7433
 10
-9.0668
 20
-36.8567
 10
-9.827799999999999
 20
-36.8567
 10
-9.827799999999999
 20
-36.7433
  0
LWPOLYLINE
  5
209
330
70
100
AcDbEntity
  8
COND
100
AcDbPolyline
 90
       25
 70
     1
 43
0.0
 10
-10.2541
 20
-36.1164
 10
-10.2055
 20
-36.0296
 10
-10.2541
 20
-35.9645
 10
-10.335
 20
-35.91620000000001
 10
-10.443
 20
-35.8921
 10
-10.4916
 20
-35.8921
 10
-10.5995
 20
-35.91620000000001
 10
-10.6805
 20
-35.9645
 10
-10.7344
 20
-36.0368
 10
-10.8478
 20
-36.0368
 10
-10.8478
 20
-35.9235
 10
-10.7938
 20
-35.8511
 10
-10.7128
 20
-35.8029
 10
-10.6049
 20
-35.7788
 10
-10.3296
 20
-35.7788
 10
-10.2217
 20
-35.8029
 10
-10.1407
 20
-35.8511
 10
-10.0868
 20
-35.9235
 10
-10.0868
 20
-36.1333
 10
-10.1407
 20
-36.2297
 10
-10.6271
 20
-36.7433
 10
-10.0868
 20
-36.7433
 10
-10.0868
 20
-36.8567
 10
-10.8478
 20
-36.8567
 10
-10.8478
 20
-36.7433
  0
LWPOLYLINE
  5
224
330
70
100
AcDbEntity
  8
COND
100
AcDbPolyline
 90
        8
 70
     1
 43
0.0
 10
-12.6125
 20
-36.1815
 10
-12.7258
 20
-36.1815
 10
-12.7258
 20
-36.0681
 10
-12.402
 20
-35.7788
 10
-12.2887
 20
-35.7788
 10
-12.2887
 20
-36.8567
 10
-12.402
 20
-36.8567
 10
-12.402
 20
-35.9934
  0
LWPOLYLINE
  5
22E
330
70
100
AcDbEntity
  8
COND
100
AcDbPolyline
 90
       10
 70
     1
 43
0.0
 10
-13.1468
 20
-35.8921
 10
-13.6865
 20
-36.8567
 10
-13.7998
 20
-36.8567
 10
-13.7998
 20
-36.7433
 10
-13.3235
 20
-35.8921
 10
-13.7944
 20
-35.8921
 10
-13.7944
 20
-35.9886
 10
-13.9078
 20
-35.9886
 10
-13.9078
 20
-35.7788
 10
-13.1468
 20
-35.7788
  0
LWPOLYLINE
  5
23A
330
70
100
AcDbEntity
  8
COND
100
AcDbPolyline
 90
       26
 70
     1
 43
0.0
 10
-14.388
 20
-36.302
 10
-14.523
 20
-36.2779
 10
-14.9278
 20
-36.2779
 10
-14.9278
 20
-35.7788
 10
-14.2207
 20
-35.7788
 10
-14.2207
 20
-35.8921
 10
-14.8144
 20
-35.8921
 10
-14.8144
 20
-36.1646
 10
-14.4096
 20
-36.1646
 10
-14.2747
 20
-36.1887
 10
-14.1938
 20
-36.2611
 10
-14.1668
 20
-36.3575
 10
-14.1668
 20
-36.6155
 10
-14.1938
 20
-36.712
 10
-14.2477
 20
-36.7843
 10
-14.3287
 20
-36.83250000000001
 10
-14.4096
 20
-36.8567
 10
-14.9278
 20
-36.8567
 10
-14.9278
 20
-36.7433
 10
-14.523
 20
-36.7433
 10
-14.442
 20
-36.7192
 10
-14.3611
 20
-36.671
 10
-14.3071
 20
-36.5987
 10
-14.2801
 20
-36.5022
 10
-14.2801
 20
-36.4708
 10
-14.3071
 20
-36.3744
  0
LWPOLYLINE
  5
256
330
70
100
AcDbEntity
  8
COND
100
AcDbPolyline
 90
       10
 70
     1
 43
0.0
 10
-15.1328
 20
-35.8921
 10
-15.8884
 20
-35.8921
 10
-15.8884
 20
-36.2128
 10
-15.1328
 20
-36.2128
 10
-15.1328
 20
-36.3262
 10
-15.8884
 20
-36.3262
 10
-15.8884
 20
-36.8567
 10
-16.0017
 20
-36.8567
 10
-16.0017
 20
-35.7788
 10
-15.1328
 20
-35.7788
  0
LWPOLYLINE
  5
262
330
70
100
AcDbEntity
  8
COND
100
AcDbPolyline
 90
        6
 70
     1
 43
0.0
 10
-16.8544
 20
-36.7433
 10
-16.2068
 20
-36.7433
 10
-16.2068
 20
-36.8567
 10
-16.9678
 20
-36.8567
 10
-16.9678
 20
-35.7788
 10
-16.8544
 20
-35.7788
  0
LWPOLYLINE
  5
26A
330
70
100
AcDbEntity
  8
COND
100
AcDbPolyline
 90
       41
 70
     1
 43
0.0
 10
-17.3077
 20
-36.2611
 10
-17.2538
 20
-36.3093
 10
-17.1998
 20
-36.42990000000001
 10
-17.1998
 20
-36.6638
 10
-17.2538
 20
-36.7602
 10
-17.3077
 20
-36.8084
 10
-17.4157
 20
-36.8567
 10
-18.0147
 20
-36.8567
 10
-18.0147
 20
-35.7788
 10
-17.61
 20
-35.7788
 10
-17.61
 20
-35.8921
 10
-17.9014
 20
-35.8921
 10
-17.9014
 20
-36.2128
 10
-17.583
 20
-36.2128
 10
-17.529
 20
-36.19680000000001
 10
-17.529
 20
-36.3262
 10
-17.9014
 20
-36.3262
 10
-17.9014
 20
-36.7433
 10
-17.529
 20
-36.7433
 10
-17.4211
 20
-36.6951
 10
-17.3671
 20
-36.6469
 10
-17.3131
 20
-36.5504
 10
-17.3131
 20
-36.5432
 10
-17.3671
 20
-36.4226
 10
-17.4211
 20
-36.3744
 10
-17.529
 20
-36.3262
 10
-17.529
 20
-36.19680000000001
 10
-17.502
 20
-36.1887
 10
-17.4211
 20
-36.14050000000001
 10
-17.3747
 20
-36.0577
 10
-17.3941
 20
-35.9886
 10
-17.475
 20
-35.91620000000001
 10
-17.61
 20
-35.8921
 10
-17.61
 20
-35.7788
 10
-17.4966
 20
-35.7788
 10
-17.3617
 20
-35.8029
 10
-17.2807
 20
-35.8752
 10
-17.2538
 20
-35.9717
 10
-17.2538
 20
-36.15740000000001
 10
-17.3077
 20
-36.2538
 10
-17.3147
 20
-36.258
  0
LWPOLYLINE
  5
2D1
330
70
100
AcDbEntity
  8
COND
100
AcDbPolyline
 90
       34
 70
     1
 43
0.0
 10
21.4875
 20
-2.450099999999999
 10
21.4875
 20
-8.4501
 10
34.4875
 20
-8.4501
 10
34.4875
 20
-16.2501
 10
37.0
 20
-16.2501
 10
37.0
 20
-26.2001
 10
36.99730000000001
 20
-26.7401
 10
36.99730000000001
 20
-30.2401
 10
36.9843
 20
-30.5451
 10
36.9443
 20
-30.8481
 10
36.8783
 20
-31.1461
 10
36.7863
 20
-31.4371
 10
36.6693
 20
-31.7191
 10
36.5283
 20
-31.9901
 10
36.3643
 20
-32.2481
 10
36.1783
 20
-32.4901
 10
35.9723
 20
-32.7151
 10
35.74730000000001
 20
-32.9211
 10
35.5053
 20
-33.1071
 10
35.2473
 20
-33.2711
 10
34.9763
 20
-33.4121
 10
34.6943
 20
-33.5291
 10
34.4033
 20
-33.6211
 10
34.1053
 20
-33.6871
 10
33.8023
 20
-33.7271
 10
33.4973
 20
-33.7401
 10
-51.5
 20
-33.7401
 10
-51.5
 20
-8.4501
 10
-42.4346
 20
-8.4501
 10
-42.4346
 20
-2.450099999999999
 10
-28.25
 20
-2.450099999999999
 10
-28.25
 20
-8.4501
 10
-16.75
 20
-8.4501
 10
-16.75
 20
-2.450099999999999
  0
LWPOLYLINE
  5
2F5
330
70
100
AcDbEntity
  8
COND
100
AcDbPolyline
 90
       38
 70
     1
 43
0.0
 10
-29.9875
 20
39.7499
 10
-29.9875
 20
23.45
 10
-4.987499999999999
 20
23.45
 10
-4.987499999999999
 20
33.19
 10
33.5098
 20
33.19
 10
33.8148
 20
33.177
 10
34.1178
 20
33.137
 10
34.4158
 20
33.071
 10
34.7068
 20
32.979
 10
34.9888
 20
32.862
 10
35.2598
 20
32.721
 10
35.5178
 20
32.557
 10
35.7598
 20
32.371
 10
35.9848
 20
32.165
 10
36.1908
 20
31.94
 10
36.3768
 20
31.698
 10
36.5408
 20
31.44
 10
36.6818
 20
31.169
 10
36.7988
 20
30.887
 10
36.8908
 20
30.596
 10
36.9568
 20
30.298
 10
36.9968
 20
29.995
 10
37.0098
 20
29.69
 10
37.0098
 20
26.19
 10
37.0125
 20
25.65
 10
37.0125
 20
15.7
 10
34.5
 20
15.7
 10
34.5
 20
7.9
 10
21.5
 20
7.9
 10
21.5
 20
1.9
 10
-16.85
 20
1.9
 10
-16.85
 20
7.9
 10
-28.35
 20
7.9
 10
-28.35
 20
1.9
 10
-42.4377
 20
1.9
 10
-42.4377
 20
7.9
 10
-51.48749999999999
 20
7.9
 10
-51.48749999999999
 20
39.7499
  0
LWPOLYLINE
  5
31D
330
70
100
AcDbEntity
  8
COND
100
AcDbPolyline
 90
       48
 70
     1
 43
0.0
 10
-28.9875
 20
39.7
 10
-28.9875
 20
24.45
 10
-5.987499999999999
 20
24.45
 10
-5.987499999999999
 20
34.2
 10
32.7625
 20
34.2
 10
33.2205
 20
34.18
 10
33.6745
 20
34.12
 10
34.1215
 20
34.021
 10
34.5585
 20
33.883
 10
34.9815
 20
33.708
 10
35.3875
 20
33.497
 10
35.7735
 20
33.251
 10
36.1375
 20
32.972
 10
36.4745
 20
32.662
 10
36.7845
 20
32.325
 10
37.0635
 20
31.961
 10
37.3095
 20
31.575
 10
37.5205
 20
31.169
 10
37.69550000000001
 20
30.746
 10
37.8335
 20
30.309
 10
37.9325
 20
29.862
 10
37.9925
 20
29.408
 10
38.0125
 20
29.0205
 10
38.0
 20
15.7
 10
38.0
 20
13.7
 10
40.49999999999999
 20
13.7
 10
40.5125
 20
14.0353
 10
40.49999999999999
 20
15.7
 10
43.5
 20
15.7
 10
43.5125
 20
28.95
 10
43.4715
 20
29.887
 10
43.3495
 20
30.817
 10
43.1465
 20
31.732
 10
42.8645
 20
32.627
 10
42.50549999999999
 20
33.493
 10
42.0725
 20
34.325
 10
41.5685
 20
35.116
 10
40.9975
 20
35.86
 10
40.3635
 20
36.551
 10
39.6725
 20
37.18500000000001
 10
38.9285
 20
37.756
 10
38.1375
 20
38.26
 10
37.3055
 20
38.69300000000001
 10
36.4395
 20
39.052
 10
35.5445
 20
39.33400000000001
 10
34.6295
 20
39.537
 10
33.6995
 20
39.659
 10
32.7625
 20
39.7
  0
LWPOLYLINE
  5
34F
330
70
100
AcDbEntity
  8
COND
100
AcDbPolyline
 90
        4
 70
     1
 43
0.0
 10
-43.5
 20
-1.5
 10
-43.5
 20
0.9
 10
-51.5
 20
0.9
 10
-51.5
 20
-1.5
  0
CIRCLE
  5
355
330
70
100
AcDbEntity
  8
HOLE
100
AcDbCircle
 10
-13.9097
 20
-3.518999999999999
 30
0.0
 40
0.4
  0
CIRCLE
  5
356
330
70
100
AcDbEntity
  8
HOLE
100
AcDbCircle
 10
-7.909699999999999
 20
-3.518999999999999
 30
0.0
 40
0.4
  0
CIRCLE
  5
357
330
70
100
AcDbEntity
  8
HOLE
100
AcDbCircle
 10
-6.409699999999999
 20
-3.518999999999999
 30
0.0
 40
0.4
  0
CIRCLE
  5
358
330
70
100
AcDbEntity
  8
HOLE
100
AcDbCircle
 10
-4.909699999999999
 20
-3.518999999999999
 30
0.0
 40
0.4
  0
CIRCLE
  5
359
330
70
100
AcDbEntity
  8
HOLE
100
AcDbCircle
 10
-3.409699999999999
 20
-3.518999999999999
 30
0.0
 40
0.4
  0
CIRCLE
  5
35A
330
70
100
AcDbEntity
  8
HOLE
100
AcDbCircle
 10
-12.4097
 20
-3.518999999999999
 30
0.0
 40
0.4
  0
CIRCLE
  5
35B
330
70
100
AcDbEntity
  8
HOLE
100
AcDbCircle
 10
-10.9097
 20
-3.518999999999999
 30
0.0
 40
0.4
  0
CIRCLE
  5
35C
330
70
100
AcDbEntity
  8
HOLE
100
AcDbCircle
 10
-9.4097
 20
-3.518999999999999
 30
0.0
 40
0.4
  0
CIRCLE
  5
35D
330
70
100
AcDbEntity
  8
HOLE
100
AcDbCircle
 10
-29.2375
 20
-7.962999999999999
 30
0.0
 40
0.4
  0
CIRCLE
  5
35E
330
70
100
AcDbEntity
  8
HOLE
100
AcDbCircle
 10
-29.2375
 20
-6.462999999999999
 30
0.0
 40
0.4
  0
CIRCLE
  5
35F
330
70
100
AcDbEntity
  8
HOLE
100
AcDbCircle
 10
-29.2375
 20
-4.963
 30
0.0
 40
0.4
  0
CIRCLE
  5
360
330
70
100
AcDbEntity
  8
HOLE
100
AcDbCircle
 10
-15.7375
 20
-4.9184
 30
0.0
 40
0.4
  0
CIRCLE
  5
361
330
70
100
AcDbEntity
  8
HOLE
100
AcDbCircle
 10
-15.7375
 20
-6.4184
 30
0.0
 40
0.4
  0
CIRCLE
  5
362
330
70
100
AcDbEntity
  8
HOLE
100
AcDbCircle
 10
-15.7375
 20
-7.9184
 30
0.0
 40
0.4
  0
CIRCLE
  5
363
330
70
100
AcDbEntity
  8
HOLE
100
AcDbCircle
 10
-19.4375
 20
-9.4625
 30
0.0
 40
0.4
  0
CIRCLE
  5
364
330
70
100
AcDbEntity
  8
HOLE
100
AcDbCircle
 10
-17.9375
 20
-9.4625
 30
0.0
 40
0.4
  0
CIRCLE
  5
365
330
70
100
AcDbEntity
  8
HOLE
100
AcDbCircle
 10
-16.4375
 20
-9.4625
 30
0.0
 40
0.4
  0
CIRCLE
  5
366
330
70
100
AcDbEntity
  8
HOLE
100
AcDbCircle
 10
-28.4375
 20
-9.4625
 30
0.0
 40
0.4
  0
CIRCLE
  5
367
330
70
100
AcDbEntity
  8
HOLE
100
AcDbCircle
 10
-26.9375
 20
-9.4625
 30
0.0
 40
0.4
  0
CIRCLE
  5
368
330
70
100
AcDbEntity
  8
HOLE
100
AcDbCircle
 10
-25.4375
 20
-9.4625
 30
0.0
 40
0.4
  0
CIRCLE
  5
369
330
70
100
AcDbEntity
  8
HOLE
100
AcDbCircle
 10
-23.9375
 20
-9.4625
 30
0.0
 40
0.4
  0
CIRCLE
  5
36A
330
70
100
AcDbEntity
  8
HOLE
100
AcDbCircle
 10
-22.4375
 20
-9.4625
 30
0.0
 40
0.4
  0
CIRCLE
  5
36B
330
70
100
AcDbEntity
  8
HOLE
100
AcDbCircle
 10
-20.9375
 20
-9.4625
 30
0.0
 40
0.4
  0
CIRCLE
  5
36C
330
70
100
AcDbEntity
  8
HOLE
100
AcDbCircle
 10
-7.909699999999999
 20
2.956
 30
0.0
 40
0.4
  0
CIRCLE
  5
36D
330
70
100
AcDbEntity
  8
HOLE
100
AcDbCircle
 10
-6.409699999999999
 20
2.956
 30
0.0
 40
0.4
  0
CIRCLE
  5
36E
330
70
100
AcDbEntity
  8
HOLE
100
AcDbCircle
 10
-4.909699999999999
 20
2.956
 30
0.0
 40
0.4
  0
CIRCLE
  5
36F
330
70
100
AcDbEntity
  8
HOLE
100
AcDbCircle
 10
-3.409699999999999
 20
2.956
 30
0.0
 40
0.4
  0
CIRCLE
  5
370
330
70
100
AcDbEntity
  8
HOLE
100
AcDbCircle
 10
-13.9097
 20
2.956
 30
0.0
 40
0.4
  0
CIRCLE
  5
371
330
70
100
AcDbEntity
  8
HOLE
100
AcDbCircle
 10
-12.4097
 20
2.956
 30
0.0
 40
0.4
  0
CIRCLE
  5
372
330
70
100
AcDbEntity
  8
HOLE
100
AcDbCircle
 10
-10.9097
 20
2.956
 30
0.0
 40
0.4
  0
CIRCLE
  5
373
330
70
100
AcDbEntity
  8
HOLE
100
AcDbCircle
 10
-9.4097
 20
2.956
 30
0.0
 40
0.4
  0
CIRCLE
  5
374
330
70
100
AcDbEntity
  8
HOLE
100
AcDbCircle
 10
-29.35
 20
7.4
 30
0.0
 40
0.4
  0
CIRCLE
  5
375
330
70
100
AcDbEntity
  8
HOLE
100
AcDbCircle
 10
-29.35
 20
5.9
 30
0.0
 40
0.4
  0
CIRCLE
  5
376
330
70
100
AcDbEntity
  8
HOLE
100
AcDbCircle
 10
-29.35
 20
4.4
 30
0.0
 40
0.4
  0
CIRCLE
  5
377
330
70
100
AcDbEntity
  8
HOLE
100
AcDbCircle
 10
-15.85
 20
4.3554
 30
0.0
 40
0.4
  0
CIRCLE
  5
378
330
70
100
AcDbEntity
  8
HOLE
100
AcDbCircle
 10
-15.85
 20
5.8554
 30
0.0
 40
0.4
  0
CIRCLE
  5
379
330
70
100
AcDbEntity
  8
HOLE
100
AcDbCircle
 10
-15.85
 20
7.3554
 30
0.0
 40
0.4
  0
CIRCLE
  5
37A
330
70
100
AcDbEntity
  8
HOLE
100
AcDbCircle
 10
-19.55
 20
8.899499999999999
 30
0.0
 40
0.4
  0
CIRCLE
  5
37B
330
70
100
AcDbEntity
  8
HOLE
100
AcDbCircle
 10
-18.05
 20
8.899499999999999
 30
0.0
 40
0.4
  0
CIRCLE
  5
37C
330
70
100
AcDbEntity
  8
HOLE
100
AcDbCircle
 10
-16.55
 20
8.899499999999999
 30
0.0
 40
0.4
  0
CIRCLE
  5
37D
330
70
100
AcDbEntity
  8
HOLE
100
AcDbCircle
 10
-28.55
 20
8.899499999999999
 30
0.0
 40
0.4
  0
CIRCLE
  5
37E
330
70
100
AcDbEntity
  8
HOLE
100
AcDbCircle
 10
-27.05
 20
8.899499999999999
 30
0.0
 40
0.4
  0
CIRCLE
  5
37F
330
70
100
AcDbEntity
  8
HOLE
100
AcDbCircle
 10
-25.55
 20
8.899499999999999
 30
0.0
 40
0.4
  0
CIRCLE
  5
380
330
70
100
AcDbEntity
  8
HOLE
100
AcDbCircle
 10
-24.05
 20
8.899499999999999
 30
0.0
 40
0.4
  0
CIRCLE
  5
381
330
70
100
AcDbEntity
  8
HOLE
100
AcDbCircle
 10
-22.55
 20
8.899499999999999
 30
0.0
 40
0.4
  0
CIRCLE
  5
382
330
70
100
AcDbEntity
  8
HOLE
100
AcDbCircle
 10
-21.05
 20
8.899499999999999
 30
0.0
 40
0.4
  0
CIRCLE
  5
383
330
70
100
AcDbEntity
  8
HOLE
100
AcDbCircle
 10
-5.254199999999999
 20
22.4133
 30
0.0
 40
0.4
  0
CIRCLE
  5
384
330
70
100
AcDbEntity
  8
HOLE
100
AcDbCircle
 10
28.8
 20
-9.4625
 30
0.0
 40
0.4
  0
CIRCLE
  5
385
330
70
100
AcDbEntity
  8
HOLE
100
AcDbCircle
 10
27.3
 20
-9.4625
 30
0.0
 40
0.4
  0
CIRCLE
  5
386
330
70
100
AcDbEntity
  8
HOLE
100
AcDbCircle
 10
25.8
 20
-9.4625
 30
0.0
 40
0.4
  0
CIRCLE
  5
387
330
70
100
AcDbEntity
  8
HOLE
100
AcDbCircle
 10
24.3
 20
-9.4625
 30
0.0
 40
0.4
  0
CIRCLE
  5
388
330
70
100
AcDbEntity
  8
HOLE
100
AcDbCircle
 10
22.8
 20
-9.4625
 30
0.0
 40
0.4
  0
CIRCLE
  5
389
330
70
100
AcDbEntity
  8
HOLE
100
AcDbCircle
 10
21.3
 20
-9.4625
 30
0.0
 40
0.4
  0
CIRCLE
  5
38A
330
70
100
AcDbEntity
  8
HOLE
100
AcDbCircle
 10
31.8
 20
-9.4625
 30
0.0
 40
0.4
  0
CIRCLE
  5
38B
330
70
100
AcDbEntity
  8
HOLE
100
AcDbCircle
 10
30.3
 20
-9.4625
 30
0.0
 40
0.4
  0
CIRCLE
  5
38C
330
70
100
AcDbEntity
  8
HOLE
100
AcDbCircle
 10
21.3
 20
-9.4625
 30
0.0
 40
0.4
  0
CIRCLE
  5
38D
330
70
100
AcDbEntity
  8
HOLE
100
AcDbCircle
 10
20.5
 20
-4.963
 30
0.0
 40
0.4
  0
CIRCLE
  5
38E
330
70
100
AcDbEntity
  8
HOLE
100
AcDbCircle
 10
20.5
 20
-6.462999999999999
 30
0.0
 40
0.4
  0
CIRCLE
  5
38F
330
70
100
AcDbEntity
  8
HOLE
100
AcDbCircle
 10
20.5
 20
-7.962999999999999
 30
0.0
 40
0.4
  0
CIRCLE
  5
390
330
70
100
AcDbEntity
  8
HOLE
100
AcDbCircle
 10
19.0903
 20
-3.518999999999999
 30
0.0
 40
0.4
  0
CIRCLE
  5
391
330
70
100
AcDbEntity
  8
HOLE
100
AcDbCircle
 10
17.5903
 20
-3.518999999999999
 30
0.0
 40
0.4
  0
CIRCLE
  5
392
330
70
100
AcDbEntity
  8
HOLE
100
AcDbCircle
 10
4.0903
 20
-3.518999999999999
 30
0.0
 40
0.4
  0
CIRCLE
  5
393
330
70
100
AcDbEntity
  8
HOLE
100
AcDbCircle
 10
2.5903
 20
-3.518999999999999
 30
0.0
 40
0.4
  0
CIRCLE
  5
394
330
70
100
AcDbEntity
  8
HOLE
100
AcDbCircle
 10
5.5903
 20
-3.518999999999999
 30
0.0
 40
0.4
  0
CIRCLE
  5
395
330
70
100
AcDbEntity
  8
HOLE
100
AcDbCircle
 10
7.0903
 20
-3.518999999999999
 30
0.0
 40
0.4
  0
CIRCLE
  5
396
330
70
100
AcDbEntity
  8
HOLE
100
AcDbCircle
 10
8.590299999999999
 20
-3.518999999999999
 30
0.0
 40
0.4
  0
CIRCLE
  5
397
330
70
100
AcDbEntity
  8
HOLE
100
AcDbCircle
 10
10.0903
 20
-3.518999999999999
 30
0.0
 40
0.4
  0
CIRCLE
  5
398
330
70
100
AcDbEntity
  8
HOLE
100
AcDbCircle
 10
11.5903
 20
-3.518999999999999
 30
0.0
 40
0.4
  0
CIRCLE
  5
399
330
70
100
AcDbEntity
  8
HOLE
100
AcDbCircle
 10
13.0903
 20
-3.518999999999999
 30
0.0
 40
0.4
  0
CIRCLE
  5
39A
330
70
100
AcDbEntity
  8
HOLE
100
AcDbCircle
 10
14.5903
 20
-3.518999999999999
 30
0.0
 40
0.4
  0
CIRCLE
  5
39B
330
70
100
AcDbEntity
  8
HOLE
100
AcDbCircle
 10
16.0903
 20
-3.518999999999999
 30
0.0
 40
0.4
  0
CIRCLE
  5
39C
330
70
100
AcDbEntity
  8
HOLE
100
AcDbCircle
 10
1.0903
 20
-3.518999999999999
 30
0.0
 40
0.4
  0
CIRCLE
  5
39D
330
70
100
AcDbEntity
  8
HOLE
100
AcDbCircle
 10
-0.4097000000000001
 20
-3.518999999999999
 30
0.0
 40
0.4
  0
CIRCLE
  5
39E
330
70
100
AcDbEntity
  8
HOLE
100
AcDbCircle
 10
-1.909699999999999
 20
-3.518999999999999
 30
0.0
 40
0.4
  0
CIRCLE
  5
39F
330
70
100
AcDbEntity
  8
HOLE
100
AcDbCircle
 10
-30.9096
 20
-3.463
 30
0.0
 40
0.4
  0
CIRCLE
  5
3A0
330
70
100
AcDbEntity
  8
HOLE
100
AcDbCircle
 10
-29.4096
 20
-3.463
 30
0.0
 40
0.4
  0
CIRCLE
  5
3A1
330
70
100
AcDbEntity
  8
HOLE
100
AcDbCircle
 10
-41.40959999999999
 20
-7.962999999999999
 30
0.0
 40
0.4
  0
CIRCLE
  5
3A2
330
70
100
AcDbEntity
  8
HOLE
100
AcDbCircle
 10
-41.40959999999999
 20
-6.462999999999999
 30
0.0
 40
0.4
  0
CIRCLE
  5
3A3
330
70
100
AcDbEntity
  8
HOLE
100
AcDbCircle
 10
-41.40959999999999
 20
-4.963
 30
0.0
 40
0.4
  0
CIRCLE
  5
3A4
330
70
100
AcDbEntity
  8
HOLE
100
AcDbCircle
 10
-48.90959999999999
 20
-9.462999999999999
 30
0.0
 40
0.4
  0
CIRCLE
  5
3A5
330
70
100
AcDbEntity
  8
HOLE
100
AcDbCircle
 10
-47.4096
 20
-9.462999999999999
 30
0.0
 40
0.4
  0
CIRCLE
  5
3A6
330
70
100
AcDbEntity
  8
HOLE
100
AcDbCircle
 10
-45.90959999999999
 20
-9.462999999999999
 30
0.0
 40
0.4
  0
CIRCLE
  5
3A7
330
70
100
AcDbEntity
  8
HOLE
100
AcDbCircle
 10
-44.40959999999999
 20
-9.462999999999999
 30
0.0
 40
0.4
  0
CIRCLE
  5
3A8
330
70
100
AcDbEntity
  8
HOLE
100
AcDbCircle
 10
-42.9096
 20
-9.462999999999999
 30
0.0
 40
0.4
  0
CIRCLE
  5
3A9
330
70
100
AcDbEntity
  8
HOLE
100
AcDbCircle
 10
-33.9096
 20
-3.463
 30
0.0
 40
0.4
  0
CIRCLE
  5
3AA
330
70
100
AcDbEntity
  8
HOLE
100
AcDbCircle
 10
-35.4096
 20
-3.463
 30
0.0
 40
0.4
  0
CIRCLE
  5
3AB
330
70
100
AcDbEntity
  8
HOLE
100
AcDbCircle
 10
-36.9096
 20
-3.463
 30
0.0
 40
0.4
  0
CIRCLE
  5
3AC
330
70
100
AcDbEntity
  8
HOLE
100
AcDbCircle
 10
-38.4096
 20
-3.463
 30
0.0
 40
0.4
  0
CIRCLE
  5
3AD
330
70
100
AcDbEntity
  8
HOLE
100
AcDbCircle
 10
-39.9096
 20
-3.463
 30
0.0
 40
0.4
  0
CIRCLE
  5
3AE
330
70
100
AcDbEntity
  8
HOLE
100
AcDbCircle
 10
-32.4096
 20
-3.463
 30
0.0
 40
0.4
  0
CIRCLE
  5
3AF
330
70
100
AcDbEntity
  8
HOLE
100
AcDbCircle
 10
28.8
 20
8.899499999999999
 30
0.0
 40
0.4
  0
CIRCLE
  5
3B0
330
70
100
AcDbEntity
  8
HOLE
100
AcDbCircle
 10
27.3
 20
8.899499999999999
 30
0.0
 40
0.4
  0
CIRCLE
  5
3B1
330
70
100
AcDbEntity
  8
HOLE
100
AcDbCircle
 10
25.8
 20
8.899499999999999
 30
0.0
 40
0.4
  0
CIRCLE
  5
3B2
330
70
100
AcDbEntity
  8
HOLE
100
AcDbCircle
 10
24.3
 20
8.899499999999999
 30
0.0
 40
0.4
  0
CIRCLE
  5
3B3
330
70
100
AcDbEntity
  8
HOLE
100
AcDbCircle
 10
22.8
 20
8.899499999999999
 30
0.0
 40
0.4
  0
CIRCLE
  5
3B4
330
70
100
AcDbEntity
  8
HOLE
100
AcDbCircle
 10
21.3
 20
8.899499999999999
 30
0.0
 40
0.4
  0
CIRCLE
  5
3B5
330
70
100
AcDbEntity
  8
HOLE
100
AcDbCircle
 10
31.8
 20
8.899499999999999
 30
0.0
 40
0.4
  0
CIRCLE
  5
3B6
330
70
100
AcDbEntity
  8
HOLE
100
AcDbCircle
 10
30.3
 20
8.899499999999999
 30
0.0
 40
0.4
  0
CIRCLE
  5
3B7
330
70
100
AcDbEntity
  8
HOLE
100
AcDbCircle
 10
21.3
 20
8.899499999999999
 30
0.0
 40
0.4
  0
CIRCLE
  5
3B8
330
70
100
AcDbEntity
  8
HOLE
100
AcDbCircle
 10
20.5
 20
4.4
 30
0.0
 40
0.4
  0
CIRCLE
  5
3B9
330
70
100
AcDbEntity
  8
HOLE
100
AcDbCircle
 10
20.5
 20
5.9
 30
0.0
 40
0.4
  0
CIRCLE
  5
3BA
330
70
100
AcDbEntity
  8
HOLE
100
AcDbCircle
 10
20.5
 20
7.4
 30
0.0
 40
0.4
  0
CIRCLE
  5
3BB
330
70
100
AcDbEntity
  8
HOLE
100
AcDbCircle
 10
19.0903
 20
2.956
 30
0.0
 40
0.4
  0
CIRCLE
  5
3BC
330
70
100
AcDbEntity
  8
HOLE
100
AcDbCircle
 10
17.5903
 20
2.956
 30
0.0
 40
0.4
  0
CIRCLE
  5
3BD
330
70
100
AcDbEntity
  8
HOLE
100
AcDbCircle
 10
4.0903
 20
2.956
 30
0.0
 40
0.4
  0
CIRCLE
  5
3BE
330
70
100
AcDbEntity
  8
HOLE
100
AcDbCircle
 10
2.5903
 20
2.956
 30
0.0
 40
0.4
  0
CIRCLE
  5
3BF
330
70
100
AcDbEntity
  8
HOLE
100
AcDbCircle
 10
5.5903
 20
2.956
 30
0.0
 40
0.4
  0
CIRCLE
  5
3C0
330
70
100
AcDbEntity
  8
HOLE
100
AcDbCircle
 10
7.0903
 20
2.956
 30
0.0
 40
0.4
  0
CIRCLE
  5
3C1
330
70
100
AcDbEntity
  8
HOLE
100
AcDbCircle
 10
8.590299999999999
 20
2.956
 30
0.0
 40
0.4
  0
CIRCLE
  5
3C2
330
70
100
AcDbEntity
  8
HOLE
100
AcDbCircle
 10
10.0903
 20
2.956
 30
0.0
 40
0.4
  0
CIRCLE
  5
3C3
330
70
100
AcDbEntity
  8
HOLE
100
AcDbCircle
 10
11.5903
 20
2.956
 30
0.0
 40
0.4
  0
CIRCLE
  5
3C4
330
70
100
AcDbEntity
  8
HOLE
100
AcDbCircle
 10
13.0903
 20
2.956
 30
0.0
 40
0.4
  0
CIRCLE
  5
3C5
330
70
100
AcDbEntity
  8
HOLE
100
AcDbCircle
 10
14.5903
 20
2.956
 30
0.0
 40
0.4
  0
CIRCLE
  5
3C6
330
70
100
AcDbEntity
  8
HOLE
100
AcDbCircle
 10
16.0903
 20
2.956
 30
0.0
 40
0.4
  0
CIRCLE
  5
3C7
330
70
100
AcDbEntity
  8
HOLE
100
AcDbCircle
 10
1.0903
 20
2.956
 30
0.0
 40
0.4
  0
CIRCLE
  5
3C8
330
70
100
AcDbEntity
  8
HOLE
100
AcDbCircle
 10
-0.4097000000000001
 20
2.956
 30
0.0
 40
0.4
  0
CIRCLE
  5
3C9
330
70
100
AcDbEntity
  8
HOLE
100
AcDbCircle
 10
-1.909699999999999
 20
2.956
 30
0.0
 40
0.4
  0
CIRCLE
  5
3CA
330
70
100
AcDbEntity
  8
HOLE
100
AcDbCircle
 10
-30.9096
 20
2.9
 30
0.0
 40
0.4
  0
CIRCLE
  5
3CB
330
70
100
AcDbEntity
  8
HOLE
100
AcDbCircle
 10
-41.40959999999999
 20
7.4
 30
0.0
 40
0.4
  0
CIRCLE
  5
3CC
330
70
100
AcDbEntity
  8
HOLE
100
AcDbCircle
 10
-41.40959999999999
 20
5.9
 30
0.0
 40
0.4
  0
CIRCLE
  5
3CD
330
70
100
AcDbEntity
  8
HOLE
100
AcDbCircle
 10
-41.40959999999999
 20
4.4
 30
0.0
 40
0.4
  0
CIRCLE
  5
3CE
330
70
100
AcDbEntity
  8
HOLE
100
AcDbCircle
 10
-48.90959999999999
 20
8.9
 30
0.0
 40
0.4
  0
CIRCLE
  5
3CF
330
70
100
AcDbEntity
  8
HOLE
100
AcDbCircle
 10
-47.4096
 20
8.9
 30
0.0
 40
0.4
  0
CIRCLE
  5
3D0
330
70
100
AcDbEntity
  8
HOLE
100
AcDbCircle
 10
-45.90959999999999
 20
8.9
 30
0.0
 40
0.4
  0
CIRCLE
  5
3D1
330
70
100
AcDbEntity
  8
HOLE
100
AcDbCircle
 10
-44.40959999999999
 20
8.9
 30
0.0
 40
0.4
  0
CIRCLE
  5
3D2
330
70
100
AcDbEntity
  8
HOLE
100
AcDbCircle
 10
-42.9096
 20
8.9
 30
0.0
 40
0.4
  0
CIRCLE
  5
3D3
330
70
100
AcDbEntity
  8
HOLE
100
AcDbCircle
 10
-33.9096
 20
2.9
 30
0.0
 40
0.4
  0
CIRCLE
  5
3D4
330
70
100
AcDbEntity
  8
HOLE
100
AcDbCircle
 10
-35.4096
 20
2.9
 30
0.0
 40
0.4
  0
CIRCLE
  5
3D5
330
70
100
AcDbEntity
  8
HOLE
100
AcDbCircle
 10
-36.9096
 20
2.9
 30
0.0
 40
0.4
  0
CIRCLE
  5
3D6
330
70
100
AcDbEntity
  8
HOLE
100
AcDbCircle
 10
-38.4096
 20
2.9
 30
0.0
 40
0.4
  0
CIRCLE
  5
3D7
330
70
100
AcDbEntity
  8
HOLE
100
AcDbCircle
 10
-39.9096
 20
2.9
 30
0.0
 40
0.4
  0
CIRCLE
  5
3D8
330
70
100
AcDbEntity
  8
HOLE
100
AcDbCircle
 10
-32.4096
 20
2.9
 30
0.0
 40
0.4
  0
CIRCLE
  5
3D9
330
70
100
AcDbEntity
  8
HOLE
100
AcDbCircle
 10
22.0562
 20
32.1101
 30
0.0
 40
0.4
  0
CIRCLE
  5
3DA
330
70
100
AcDbEntity
  8
HOLE
100
AcDbCircle
 10
33.4999
 20
15.2102
 30
0.0
 40
0.4
  0
CIRCLE
  5
3DB
330
70
100
AcDbEntity
  8
HOLE
100
AcDbCircle
 10
33.4999
 20
13.7102
 30
0.0
 40
0.4
  0
CIRCLE
  5
3DC
330
70
100
AcDbEntity
  8
HOLE
100
AcDbCircle
 10
33.4999
 20
12.2102
 30
0.0
 40
0.4
  0
CIRCLE
  5
3DD
330
70
100
AcDbEntity
  8
HOLE
100
AcDbCircle
 10
33.4999
 20
10.7102
 30
0.0
 40
0.4
  0
CIRCLE
  5
3DE
330
70
100
AcDbEntity
  8
HOLE
100
AcDbCircle
 10
36.0
 20
18.3101
 30
0.0
 40
0.4
  0
CIRCLE
  5
3DF
330
70
100
AcDbEntity
  8
HOLE
100
AcDbCircle
 10
36.0
 20
19.8101
 30
0.0
 40
0.4
  0
CIRCLE
  5
3E0
330
70
100
AcDbEntity
  8
HOLE
100
AcDbCircle
 10
36.0
 20
21.3101
 30
0.0
 40
0.4
  0
CIRCLE
  5
3E1
330
70
100
AcDbEntity
  8
HOLE
100
AcDbCircle
 10
36.0
 20
22.8101
 30
0.0
 40
0.4
  0
CIRCLE
  5
3E2
330
70
100
AcDbEntity
  8
HOLE
100
AcDbCircle
 10
36.0
 20
24.3101
 30
0.0
 40
0.4
  0
CIRCLE
  5
3E3
330
70
100
AcDbEntity
  8
HOLE
100
AcDbCircle
 10
36.0
 20
25.8101
 30
0.0
 40
0.4
  0
CIRCLE
  5
3E4
330
70
100
AcDbEntity
  8
HOLE
100
AcDbCircle
 10
36.0
 20
27.3101
 30
0.0
 40
0.4
  0
CIRCLE
  5
3E5
330
70
100
AcDbEntity
  8
HOLE
100
AcDbCircle
 10
36.0
 20
16.8101
 30
0.0
 40
0.4
  0
CIRCLE
  5
3E6
330
70
100
AcDbEntity
  8
HOLE
100
AcDbCircle
 10
31.0562
 20
32.1101
 30
0.0
 40
0.4
  0
CIRCLE
  5
3E7
330
70
100
AcDbEntity
  8
HOLE
100
AcDbCircle
 10
29.5562
 20
32.1101
 30
0.0
 40
0.4
  0
CIRCLE
  5
3E8
330
70
100
AcDbEntity
  8
HOLE
100
AcDbCircle
 10
28.0562
 20
32.1101
 30
0.0
 40
0.4
  0
CIRCLE
  5
3E9
330
70
100
AcDbEntity
  8
HOLE
100
AcDbCircle
 10
26.5562
 20
32.1101
 30
0.0
 40
0.4
  0
CIRCLE
  5
3EA
330
70
100
AcDbEntity
  8
HOLE
100
AcDbCircle
 10
25.0562
 20
32.1101
 30
0.0
 40
0.4
  0
CIRCLE
  5
3EB
330
70
100
AcDbEntity
  8
HOLE
100
AcDbCircle
 10
23.5562
 20
32.1101
 30
0.0
 40
0.4
  0
CIRCLE
  5
3EC
330
70
100
AcDbEntity
  8
HOLE
100
AcDbCircle
 10
20.5562
 20
32.1101
 30
0.0
 40
0.4
  0
CIRCLE
  5
3ED
330
70
100
AcDbEntity
  8
HOLE
100
AcDbCircle
 10
19.0562
 20
32.1101
 30
0.0
 40
0.4
  0
CIRCLE
  5
3EE
330
70
100
AcDbEntity
  8
HOLE
100
AcDbCircle
 10
10.0562
 20
32.1101
 30
0.0
 40
0.4
  0
CIRCLE
  5
3EF
330
70
100
AcDbEntity
  8
HOLE
100
AcDbCircle
 10
11.5562
 20
32.1101
 30
0.0
 40
0.4
  0
CIRCLE
  5
3F0
330
70
100
AcDbEntity
  8
HOLE
100
AcDbCircle
 10
13.0562
 20
32.1101
 30
0.0
 40
0.4
  0
CIRCLE
  5
3F1
330
70
100
AcDbEntity
  8
HOLE
100
AcDbCircle
 10
14.5562
 20
32.1101
 30
0.0
 40
0.4
  0
CIRCLE
  5
3F2
330
70
100
AcDbEntity
  8
HOLE
100
AcDbCircle
 10
16.0562
 20
32.1101
 30
0.0
 40
0.4
  0
CIRCLE
  5
3F3
330
70
100
AcDbEntity
  8
HOLE
100
AcDbCircle
 10
17.5562
 20
32.1101
 30
0.0
 40
0.4
  0
CIRCLE
  5
3F4
330
70
100
AcDbEntity
  8
HOLE
100
AcDbCircle
 10
1.0562
 20
32.1101
 30
0.0
 40
0.4
  0
CIRCLE
  5
3F5
330
70
100
AcDbEntity
  8
HOLE
100
AcDbCircle
 10
-0.4438
 20
32.1101
 30
0.0
 40
0.4
  0
CIRCLE
  5
3F6
330
70
100
AcDbEntity
  8
HOLE
100
AcDbCircle
 10
-1.943799999999999
 20
32.1101
 30
0.0
 40
0.4
  0
CIRCLE
  5
3F7
330
70
100
AcDbEntity
  8
HOLE
100
AcDbCircle
 10
-3.443799999999999
 20
32.1101
 30
0.0
 40
0.4
  0
CIRCLE
  5
3F8
330
70
100
AcDbEntity
  8
HOLE
100
AcDbCircle
 10
2.5562
 20
32.1101
 30
0.0
 40
0.4
  0
CIRCLE
  5
3F9
330
70
100
AcDbEntity
  8
HOLE
100
AcDbCircle
 10
4.056199999999999
 20
32.1101
 30
0.0
 40
0.4
  0
CIRCLE
  5
3FA
330
70
100
AcDbEntity
  8
HOLE
100
AcDbCircle
 10
5.556199999999999
 20
32.1101
 30
0.0
 40
0.4
  0
CIRCLE
  5
3FB
330
70
100
AcDbEntity
  8
HOLE
100
AcDbCircle
 10
7.056199999999999
 20
32.1101
 30
0.0
 40
0.4
  0
CIRCLE
  5
3FC
330
70
100
AcDbEntity
  8
HOLE
100
AcDbCircle
 10
8.5562
 20
32.1101
 30
0.0
 40
0.4
  0
CIRCLE
  5
3FD
330
70
100
AcDbEntity
  8
HOLE
100
AcDbCircle
 10
-4.0
 20
30.6101
 30
0.0
 40
0.4
  0
CIRCLE
  5
3FE
330
70
100
AcDbEntity
  8
HOLE
100
AcDbCircle
 10
-4.0
 20
24.6101
 30
0.0
 40
0.4
  0
CIRCLE
  5
3FF
330
70
100
AcDbEntity
  8
HOLE
100
AcDbCircle
 10
-4.0
 20
26.1101
 30
0.0
 40
0.4
  0
CIRCLE
  5
400
330
70
100
AcDbEntity
  8
HOLE
100
AcDbCircle
 10
-4.0
 20
27.6101
 30
0.0
 40
0.4
  0
CIRCLE
  5
401
330
70
100
AcDbEntity
  8
HOLE
100
AcDbCircle
 10
-4.0
 20
29.1101
 30
0.0
 40
0.4
  0
CIRCLE
  5
402
330
70
100
AcDbEntity
  8
HOLE
100
AcDbCircle
 10
-4.0
 20
30.6101
 30
0.0
 40
0.4
  0
CIRCLE
  5
403
330
70
100
AcDbEntity
  8
HOLE
100
AcDbCircle
 10
-6.754199999999999
 20
22.4133
 30
0.0
 40
0.4
  0
CIRCLE
  5
404
330
70
100
AcDbEntity
  8
HOLE
100
AcDbCircle
 10
-8.2542
 20
22.4133
 30
0.0
 40
0.4
  0
CIRCLE
  5
405
330
70
100
AcDbEntity
  8
HOLE
100
AcDbCircle
 10
-9.7542
 20
22.4133
 30
0.0
 40
0.4
  0
CIRCLE
  5
406
330
70
100
AcDbEntity
  8
HOLE
100
AcDbCircle
 10
-11.2542
 20
22.4133
 30
0.0
 40
0.4
  0
CIRCLE
  5
407
330
70
100
AcDbEntity
  8
HOLE
100
AcDbCircle
 10
-12.7542
 20
22.4133
 30
0.0
 40
0.4
  0
CIRCLE
  5
408
330
70
100
AcDbEntity
  8
HOLE
100
AcDbCircle
 10
-14.2542
 20
22.4133
 30
0.0
 40
0.4
  0
CIRCLE
  5
409
330
70
100
AcDbEntity
  8
HOLE
100
AcDbCircle
 10
-15.7542
 20
22.4133
 30
0.0
 40
0.4
  0
CIRCLE
  5
40A
330
70
100
AcDbEntity
  8
HOLE
100
AcDbCircle
 10
-17.2542
 20
22.4133
 30
0.0
 40
0.4
  0
CIRCLE
  5
40B
330
70
100
AcDbEntity
  8
HOLE
100
AcDbCircle
 10
-26.2542
 20
22.4133
 30
0.0
 40
0.4
  0
CIRCLE
  5
40C
330
70
100
AcDbEntity
  8
HOLE
100
AcDbCircle
 10
-24.7542
 20
22.4133
 30
0.0
 40
0.4
  0
CIRCLE
  5
40D
330
70
100
AcDbEntity
  8
HOLE
100
AcDbCircle
 10
-23.2542
 20
22.4133
 30
0.0
 40
0.4
  0
CIRCLE
  5
40E
330
70
100
AcDbEntity
  8
HOLE
100
AcDbCircle
 10
-21.7542
 20
22.4133
 30
0.0
 40
0.4
  0
CIRCLE
  5
40F
330
70
100
AcDbEntity
  8
HOLE
100
AcDbCircle
 10
-20.2542
 20
22.4133
 30
0.0
 40
0.4
  0
CIRCLE
  5
410
330
70
100
AcDbEntity
  8
HOLE
100
AcDbCircle
 10
-18.7542
 20
22.4133
 30
0.0
 40
0.4
  0
CIRCLE
  5
411
330
70
100
AcDbEntity
  8
HOLE
100
AcDbCircle
 10
-29.2542
 20
22.4133
 30
0.0
 40
0.4
  0
CIRCLE
  5
412
330
70
100
AcDbEntity
  8
HOLE
100
AcDbCircle
 10
-27.7542
 20
22.4133
 30
0.0
 40
0.4
  0
CIRCLE
  5
413
330
70
100
AcDbEntity
  8
HOLE
100
AcDbCircle
 10
-31.0
 20
23.8101
 30
0.0
 40
0.4
  0
CIRCLE
  5
414
330
70
100
AcDbEntity
  8
HOLE
100
AcDbCircle
 10
-31.0
 20
26.8101
 30
0.0
 40
0.4
  0
CIRCLE
  5
415
330
70
100
AcDbEntity
  8
HOLE
100
AcDbCircle
 10
-31.0
 20
28.3101
 30
0.0
 40
0.4
  0
CIRCLE
  5
416
330
70
100
AcDbEntity
  8
HOLE
100
AcDbCircle
 10
-31.0
 20
29.8101
 30
0.0
 40
0.4
  0
CIRCLE
  5
417
330
70
100
AcDbEntity
  8
HOLE
100
AcDbCircle
 10
-31.0
 20
31.3101
 30
0.0
 40
0.4
  0
CIRCLE
  5
418
330
70
100
AcDbEntity
  8
HOLE
100
AcDbCircle
 10
-31.0
 20
32.8101
 30
0.0
 40
0.4
  0
CIRCLE
  5
419
330
70
100
AcDbEntity
  8
HOLE
100
AcDbCircle
 10
-31.0
 20
34.3101
 30
0.0
 40
0.4
  0
CIRCLE
  5
41A
330
70
100
AcDbEntity
  8
HOLE
100
AcDbCircle
 10
-31.0
 20
35.8101
 30
0.0
 40
0.4
  0
CIRCLE
  5
41B
330
70
100
AcDbEntity
  8
HOLE
100
AcDbCircle
 10
-31.0
 20
25.3101
 30
0.0
 40
0.4
  0
CIRCLE
  5
41C
330
70
100
AcDbEntity
  8
HOLE
100
AcDbCircle
 10
-31.0
 20
37.3101
 30
0.0
 40
0.4
  0
CIRCLE
  5
41D
330
70
100
AcDbEntity
  8
HOLE
100
AcDbCircle
 10
-32.4
 20
38.7101
 30
0.0
 40
0.4
  0
CIRCLE
  5
41E
330
70
100
AcDbEntity
  8
HOLE
100
AcDbCircle
 10
-33.9
 20
38.7101
 30
0.0
 40
0.4
  0
CIRCLE
  5
41F
330
70
100
AcDbEntity
  8
HOLE
100
AcDbCircle
 10
-35.4
 20
38.7101
 30
0.0
 40
0.4
  0
CIRCLE
  5
420
330
70
100
AcDbEntity
  8
HOLE
100
AcDbCircle
 10
-36.9
 20
38.7101
 30
0.0
 40
0.4
  0
CIRCLE
  5
421
330
70
100
AcDbEntity
  8
HOLE
100
AcDbCircle
 10
-38.4
 20
38.7101
 30
0.0
 40
0.4
  0
CIRCLE
  5
422
330
70
100
AcDbEntity
  8
HOLE
100
AcDbCircle
 10
-39.9
 20
38.7101
 30
0.0
 40
0.4
  0
CIRCLE
  5
423
330
70
100
AcDbEntity
  8
HOLE
100
AcDbCircle
 10
-41.39999999999999
 20
38.7101
 30
0.0
 40
0.4
  0
CIRCLE
  5
424
330
70
100
AcDbEntity
  8
HOLE
100
AcDbCircle
 10
-42.9
 20
38.7101
 30
0.0
 40
0.4
  0
CIRCLE
  5
425
330
70
100
AcDbEntity
  8
HOLE
100
AcDbCircle
 10
-44.4
 20
38.7101
 30
0.0
 40
0.4
  0
CIRCLE
  5
426
330
70
100
AcDbEntity
  8
HOLE
100
AcDbCircle
 10
-48.9
 20
38.7101
 30
0.0
 40
0.4
  0
CIRCLE
  5
427
330
70
100
AcDbEntity
  8
HOLE
100
AcDbCircle
 10
-47.4
 20
38.7101
 30
0.0
 40
0.4
  0
CIRCLE
  5
428
330
70
100
AcDbEntity
  8
HOLE
100
AcDbCircle
 10
-45.89999999999999
 20
38.7101
 30
0.0
 40
0.4
  0
CIRCLE
  5
429
330
70
100
AcDbEntity
  8
HOLE
100
AcDbCircle
 10
-50.5
 20
34.1101
 30
0.0
 40
0.4
  0
CIRCLE
  5
42A
330
70
100
AcDbEntity
  8
HOLE
100
AcDbCircle
 10
-50.5
 20
35.6101
 30
0.0
 40
0.4
  0
CIRCLE
  5
42B
330
70
100
AcDbEntity
  8
HOLE
100
AcDbCircle
 10
-50.5
 20
37.1101
 30
0.0
 40
0.4
  0
CIRCLE
  5
42C
330
70
100
AcDbEntity
  8
HOLE
100
AcDbCircle
 10
-50.5
 20
26.6101
 30
0.0
 40
0.4
  0
CIRCLE
  5
42D
330
70
100
AcDbEntity
  8
HOLE
100
AcDbCircle
 10
-50.5
 20
29.6101
 30
0.0
 40
0.4
  0
CIRCLE
  5
42E
330
70
100
AcDbEntity
  8
HOLE
100
AcDbCircle
 10
-50.5
 20
31.1101
 30
0.0
 40
0.4
  0
CIRCLE
  5
42F
330
70
100
AcDbEntity
  8
HOLE
100
AcDbCircle
 10
-50.5
 20
32.61010000000001
 30
0.0
 40
0.4
  0
CIRCLE
  5
430
330
70
100
AcDbEntity
  8
HOLE
100
AcDbCircle
 10
-50.5
 20
28.1101
 30
0.0
 40
0.4
  0
CIRCLE
  5
431
330
70
100
AcDbEntity
  8
HOLE
100
AcDbCircle
 10
-50.5
 20
14.6101
 30
0.0
 40
0.4
  0
CIRCLE
  5
432
330
70
100
AcDbEntity
  8
HOLE
100
AcDbCircle
 10
-50.5
 20
17.6101
 30
0.0
 40
0.4
  0
CIRCLE
  5
433
330
70
100
AcDbEntity
  8
HOLE
100
AcDbCircle
 10
-50.5
 20
19.1101
 30
0.0
 40
0.4
  0
CIRCLE
  5
434
330
70
100
AcDbEntity
  8
HOLE
100
AcDbCircle
 10
-50.5
 20
20.6101
 30
0.0
 40
0.4
  0
CIRCLE
  5
435
330
70
100
AcDbEntity
  8
HOLE
100
AcDbCircle
 10
-50.5
 20
22.1101
 30
0.0
 40
0.4
  0
CIRCLE
  5
436
330
70
100
AcDbEntity
  8
HOLE
100
AcDbCircle
 10
-50.5
 20
23.6101
 30
0.0
 40
0.4
  0
CIRCLE
  5
437
330
70
100
AcDbEntity
  8
HOLE
100
AcDbCircle
 10
-50.5
 20
25.1101
 30
0.0
 40
0.4
  0
CIRCLE
  5
438
330
70
100
AcDbEntity
  8
HOLE
100
AcDbCircle
 10
-50.5
 20
16.1101
 30
0.0
 40
0.4
  0
CIRCLE
  5
439
330
70
100
AcDbEntity
  8
HOLE
100
AcDbCircle
 10
-50.5
 20
10.1101
 30
0.0
 40
0.4
  0
CIRCLE
  5
43A
330
70
100
AcDbEntity
  8
HOLE
100
AcDbCircle
 10
-50.5
 20
11.6101
 30
0.0
 40
0.4
  0
CIRCLE
  5
43B
330
70
100
AcDbEntity
  8
HOLE
100
AcDbCircle
 10
-50.5
 20
13.1101
 30
0.0
 40
0.4
  0
CIRCLE
  5
43C
330
70
100
AcDbEntity
  8
HOLE
100
AcDbCircle
 10
33.5
 20
-30.29
 30
0.0
 40
1.6
  0
CIRCLE
  5
43D
330
70
100
AcDbEntity
  8
HOLE
100
AcDbCircle
 10
-36.5
 20
29.71
 30
0.0
 40
1.6
  0
CIRCLE
  5
43E
330
70
100
AcDbEntity
  8
HOLE
100
AcDbCircle
 10
33.5
 20
29.71
 30
0.0
 40
1.6
  0
CIRCLE
  5
43F
330
70
100
AcDbEntity
  8
HOLE
100
AcDbCircle
 10
-36.5
 20
-30.273
 30
0.0
 40
1.6
  0
LWPOLYLINE
  5
440
330
70
100
AcDbEntity
  8
BOUND
100
AcDbPolyline
 90
        4
 70
     1
 43
0.0
 10
43.5125
 20
-40.2501
 10
43.5125
 20
39.7499
 10
-51.48749999999999
 20
39.7499
 10
-51.48749999999999
 20
-40.2501
  0
ENDSEC
  0
SECTION
  2
OBJECTS
  0
DICTIONARY
  5
C
330
0
100
AcDbDictionary
281
     1
  3
ACAD_CIP_PREVIOUS_PRODUCT_INFO
350
447
  3
ACAD_COLOR
350
62
  3
ACAD_DETAILVIEWSTYLE
350
6A
  3
ACAD_GROUP
350
D
  3
ACAD_LAYOUT
350
61
  3
ACAD_MATERIAL
350
10
  3
ACAD_MLEADERSTYLE
350
65
  3
ACAD_MLINESTYLE
350
5E
  3
ACAD_PLOTSETTINGS
350
60
  3
ACAD_PLOTSTYLENAME
350
E
  3
ACAD_SCALELIST
350
42
  3
ACAD_SECTIONVIEWSTYLE
350
67
  3
ACAD_TABLESTYLE
350
63
  3
ACAD_VISUALSTYLE
350
29
  3
ACDB_RECOMPOSE_DATA
350
45F
  3
AcDbVariableDictionary
350
452
  0
DICTIONARY
  5
448
330
54
100
AcDbDictionary
280
     1
281
     1
  3
ADSK_XREC_LAYER_RECONCILED
360
449
  0
DICTIONARY
  5
44A
330
74
100
AcDbDictionary
280
     1
281
     1
  3
ADSK_XREC_LAYER_RECONCILED
360
44B
  0
DICTIONARY
  5
44C
330
75
100
AcDbDictionary
280
     1
281
     1
  3
ADSK_XREC_LAYER_RECONCILED
360
44D
  0
DICTIONARY
  5
44E
330
76
100
AcDbDictionary
280
     1
281
     1
  3
ADSK_XREC_LAYER_RECONCILED
360
44F
  0
DICTIONARY
  5
450
330
77
100
AcDbDictionary
280
     1
281
     1
  3
ADSK_XREC_LAYER_RECONCILED
360
451
  0
XRECORD
  5
447
102
{ACAD_REACTORS
330
C
102
}
330
C
100
AcDbXrecord
280
     1
300
ACD
300
2013
300
85871ACD_2013_0F
  0
DICTIONARY
  5
62
102
{ACAD_REACTORS
330
C
102
}
330
C
100
AcDbDictionary
281
     1
  0
DICTIONARY
  5
6A
102
{ACAD_REACTORS
330
C
102
}
330
C
100
AcDbDictionary
281
     1
  3
Imperial24
350
6B
  0
DICTIONARY
  5
D
102
{ACAD_REACTORS
330
C
102
}
330
C
100
AcDbDictionary
281
     1
  0
DICTIONARY
  5
61
102
{ACAD_REACTORS
330
C
102
}
330
C
100
AcDbDictionary
281
     1
  3
Layout1
350
6F
  3
Model
350
73
  0
DICTIONARY
  5
10
102
{ACAD_REACTORS
330
C
102
}
330
C
100
AcDbDictionary
281
     1
  3
ByBlock
350
19
  3
ByLayer
350
11
  3
Global
350
21
  0
DICTIONARY
  5
65
102
{ACAD_REACTORS
330
C
102
}
330
C
100
AcDbDictionary
281
     1
  3
Standard
350
66
  0
DICTIONARY
  5
5E
102
{ACAD_REACTORS
330
C
102
}
330
C
100
AcDbDictionary
281
     1
  3
Standard
350
5F
  0
DICTIONARY
  5
60
102
{ACAD_REACTORS
330
C
102
}
330
C
100
AcDbDictionary
281
     1
  0
ACDBDICTIONARYWDFLT
  5
E
102
{ACAD_REACTORS
330
C
102
}
330
C
100
AcDbDictionary
281
     1
  3
Normal
350
F
100
AcDbDictionaryWithDefault
340
F
  0
DICTIONARY
  5
42
102
{ACAD_REACTORS
330
C
102
}
330
C
100
AcDbDictionary
281
     1
  3
A0
350
43
  3
A1
350
44
  3
A2
350
45
  3
A3
350
46
  3
A4
350
47
  3
A5
350
48
  3
A6
350
49
  3
A7
350
4A
  3
A8
350
4B
  3
A9
350
4C
  3
B0
350
4D
  3
B1
350
4E
  3
B2
350
4F
  3
B3
350
50
  3
B4
350
51
  3
B5
350
52
  3
B6
350
53
  0
DICTIONARY
  5
67
102
{ACAD_REACTORS
330
C
102
}
330
C
100
AcDbDictionary
281
     1
  3
Imperial24
350
69
  0
DICTIONARY
  5
63
102
{ACAD_REACTORS
330
C
102
}
330
C
100
AcDbDictionary
281
     1
  3
Standard
350
64
  0
DICTIONARY
  5
29
102
{ACAD_REACTORS
330
C
102
}
330
C
100
AcDbDictionary
281
     1
  3
2dWireframe
350
2F
  3
Basic
350
2E
  3
Brighten
350
35
  3
ColorChange
350
39
  3
Conceptual
350
32
  3
Dim
350
34
  3
EdgeColorOff
350
41
  3
Facepattern
350
38
  3
Flat
350
2A
  3
FlatWithEdges
350
2B
  3
Gouraud
350
2C
  3
GouraudWithEdges
350
2D
  3
Hidden
350
31
  3
JitterOff
350
3F
  3
Linepattern
350
37
  3
OverhangOff
350
40
  3
Realistic
350
33
  3
Shaded
350
3E
  3
Shaded with edges
350
3D
  3
Shades of Gray
350
3A
  3
Sketchy
350
3B
  3
Thicken
350
36
  3
Wireframe
350
30
  3
X-Ray
350
3C
  0
XRECORD
  5
45F
102
{ACAD_REACTORS
330
C
102
}
330
C
100
AcDbXrecord
280
     1
 90
        1
330
64
  0
DICTIONARY
  5
452
102
{ACAD_REACTORS
330
C
102
}
330
C
100
AcDbDictionary
281
     1
  3
CANNOSCALE
350
458
  3
CMLEADERSTYLE
350
454
  3
CTABLESTYLE
350
453
  3
CVIEWDETAILSTYLE
350
455
  3
CVIEWSECTIONSTYLE
350
456
  3
LAYEREVAL
350
45A
  3
LAYERNOTIFY
350
45B
  3
LIGHTINGUNITS
350
459
  3
MSLTSCALE
350
457
  0
XRECORD
  5
449
102
{ACAD_REACTORS
330
448
102
}
330
448
100
AcDbXrecord
280
     1
290
     1
  0
XRECORD
  5
44B
102
{ACAD_REACTORS
330
44A
102
}
330
44A
100
AcDbXrecord
280
     1
290
     1
  0
XRECORD
  5
44D
102
{ACAD_REACTORS
330
44C
102
}
330
44C
100
AcDbXrecord
280
     1
290
     1
  0
XRECORD
  5
44F
102
{ACAD_REACTORS
330
44E
102
}
330
44E
100
AcDbXrecord
280
     1
290
     1
  0
XRECORD
  5
451
102
{ACAD_REACTORS
330
450
102
}
330
450
100
AcDbXrecord
280
     1
290
     1
  0
ACDBDETAILVIEWSTYLE
  5
6B
102
{ACAD_REACTORS
330
6A
102
}
330
6A
100
AcDbModelDocViewStyle
 70
     0
  3
Imperial24
290
     0
100
AcDbDetailViewStyle
 70
     0
 71
     0
 90
        3
 71
     1
340
55
 62
   256
 40
0.24
340
0
 62
   256
 40
0.24
300

 40
0.36
280
     3
 71
     2
340
5C
 90
       25
 62
   256
 71
     3
340
55
 62
   256
 40
0.24
 90
        1
 40
0.75
 90
        1
300
%<\AcVar ViewType \f "%tc1">% %<\AcVar ViewDetailId>%\PSCALE %<\AcVar ViewScale \f "%sn">%
 71
     4
340
5C
 90
       25
 62
   256
340
5C
 90
       25
 62
   256
280
     0
  0
LAYOUT
  5
6F
102
{ACAD_REACTORS
330
61
102
}
330
61
100
AcDbPlotSettings
  1

  2
\\NLVNYMAC01MS301\NLNYMBW
  4

  6

 40
0.0
 41
0.0
 42
0.0
 43
0.0
 44
0.0
 45
0.0
 46
0.0
 47
0.0
 48
0.0
 49
0.0
140
0.0
141
0.0
142
1.0
143
1.0
 70
   688
 72
     0
 73
     0
 74
     5
  7

 75
    16
147
1.0
 76
     0
 77
     2
 78
   300
148
0.0
149
0.0
100
AcDbLayout
  1
Layout1
 70
     1
 71
     1
 10
0.0
 20
0.0
 11
12.0
 21
9.0
 12
0.0
 22
0.0
 32
0.0
 14
1.000000000000000E+20
 24
1.000000000000000E+20
 34
1.000000000000000E+20
 15
-1.000000000000000E+20
 25
-1.000000000000000E+20
 35
-1.000000000000000E+20
146
0.0
 13
0.0
 23
0.0
 33
0.0
 16
1.0
 26
0.0
 36
0.0
 17
0.0
 27
1.0
 37
0.0
 76
     0
330
6C
  0
LAYOUT
  5
73
102
{ACAD_REACTORS
330
61
102
}
330
61
100
AcDbPlotSettings
  1

  2
\\NLVNYMAC01MS301\NLNYMBW
  4

  6

 40
0.0
 41
0.0
 42
0.0
 43
0.0
 44
0.0
 45
0.0
 46
0.0
 47
0.0
 48
0.0
 49
0.0
140
0.0
141
0.0
142
1.0
143
1.0
 70
  1712
 72
     0
 73
     0
 74
     0
  7

 75
     0
147
1.0
 76
     0
 77
     2
 78
   300
148
0.0
149
0.0
100
AcDbLayout
  1
Model
 70
     1
 71
     0
 10
0.0
 20
0.0
 11
12.0
 21
9.0
 12
0.0
 22
0.0
 32
0.0
 14
0.0
 24
0.0
 34
0.0
 15
0.0
 25
0.0
 35
0.0
146
0.0
 13
0.0
 23
0.0
 33
0.0
 16
1.0
 26
0.0
 36
0.0
 17
0.0
 27
1.0
 37
0.0
 76
     0
330
70
331
79
  0
MATERIAL
  5
19
102
{ACAD_XDICTIONARY
360
1A
102
}
102
{ACAD_REACTORS
330
10
102
}
330
10
100
AcDbMaterial
  1
ByBlock
 72
     0
 43
0.0208333333333333
 43
0.0
 43
0.0
 43
0.0
 43
0.0
 43
0.0208333333333333
 43
0.0
 43
0.0
 43
0.0
 43
0.0
 43
1.0
 43
0.0
 43
0.0
 43
0.0
 43
0.0
 43
1.0
 77
     0
 47
0.0208333333333333
 47
0.0
 47
0.0
 47
0.0
 47
0.0
 47
0.0208333333333333
 47
0.0
 47
0.0
 47
0.0
 47
0.0
 47
1.0
 47
0.0
 47
0.0
 47
0.0
 47
0.0
 47
1.0
171
     0
 49
0.0208333333333333
 49
0.0
 49
0.0
 49
0.0
 49
0.0
 49
0.0208333333333333
 49
0.0
 49
0.0
 49
0.0
 49
0.0
 49
1.0
 49
0.0
 49
0.0
 49
0.0
 49
0.0
 49
1.0
175
     0
142
0.0208333333333333
142
0.0
142
0.0
142
0.0
142
0.0
142
0.0208333333333333
142
0.0
142
0.0
142
0.0
142
0.0
142
1.0
142
0.0
142
0.0
142
0.0
142
0.0
142
1.0
179
     0
144
0.0208333333333333
144
0.0
144
0.0
144
0.0
144
0.0
144
0.0208333333333333
144
0.0
144
0.0
144
0.0
144
0.0
144
1.0
144
0.0
144
0.0
144
0.0
144
0.0
144
1.0
147
0.0208333333333333
147
0.0
147
0.0
147
0.0
147
0.0
147
0.0208333333333333
147
0.0
147
0.0
147
0.0
147
0.0
147
1.0
147
0.0
147
0.0
147
0.0
147
0.0
147
1.0
  0
MATERIAL
  5
11
102
{ACAD_XDICTIONARY
360
12
102
}
102
{ACAD_REACTORS
330
10
102
}
330
10
100
AcDbMaterial
  1
ByLayer
 72
     0
 43
0.0208333333333333
 43
0.0
 43
0.0
 43
0.0
 43
0.0
 43
0.0208333333333333
 43
0.0
 43
0.0
 43
0.0
 43
0.0
 43
1.0
 43
0.0
 43
0.0
 43
0.0
 43
0.0
 43
1.0
 77
     0
 47
0.0208333333333333
 47
0.0
 47
0.0
 47
0.0
 47
0.0
 47
0.0208333333333333
 47
0.0
 47
0.0
 47
0.0
 47
0.0
 47
1.0
 47
0.0
 47
0.0
 47
0.0
 47
0.0
 47
1.0
171
     0
 49
0.0208333333333333
 49
0.0
 49
0.0
 49
0.0
 49
0.0
 49
0.0208333333333333
 49
0.0
 49
0.0
 49
0.0
 49
0.0
 49
1.0
 49
0.0
 49
0.0
 49
0.0
 49
0.0
 49
1.0
175
     0
142
0.0208333333333333
142
0.0
142
0.0
142
0.0
142
0.0
142
0.0208333333333333
142
0.0
142
0.0
142
0.0
142
0.0
142
1.0
142
0.0
142
0.0
142
0.0
142
0.0
142
1.0
179
     0
144
0.0208333333333333
144
0.0
144
0.0
144
0.0
144
0.0
144
0.0208333333333333
144
0.0
144
0.0
144
0.0
144
0.0
144
1.0
144
0.0
144
0.0
144
0.0
144
0.0
144
1.0
147
0.0208333333333333
147
0.0
147
0.0
147
0.0
147
0.0
147
0.0208333333333333
147
0.0
147
0.0
147
0.0
147
0.0
147
1.0
147
0.0
147
0.0
147
0.0
147
0.0
147
1.0
  0
MATERIAL
  5
21
102
{ACAD_XDICTIONARY
360
22
102
}
102
{ACAD_REACTORS
330
10
102
}
330
10
100
AcDbMaterial
  1
Global
 72
     0
 43
0.0208333333333333
 43
0.0
 43
0.0
 43
0.0
 43
0.0
 43
0.0208333333333333
 43
0.0
 43
0.0
 43
0.0
 43
0.0
 43
1.0
 43
0.0
 43
0.0
 43
0.0
 43
0.0
 43
1.0
 77
     0
 47
0.0208333333333333
 47
0.0
 47
0.0
 47
0.0
 47
0.0
 47
0.0208333333333333
 47
0.0
 47
0.0
 47
0.0
 47
0.0
 47
1.0
 47
0.0
 47
0.0
 47
0.0
 47
0.0
 47
1.0
171
     0
 49
0.0208333333333333
 49
0.0
 49
0.0
 49
0.0
 49
0.0
 49
0.0208333333333333
 49
0.0
 49
0.0
 49
0.0
 49
0.0
 49
1.0
 49
0.0
 49
0.0
 49
0.0
 49
0.0
 49
1.0
175
     0
142
0.0208333333333333
142
0.0
142
0.0
142
0.0
142
0.0
142
0.0208333333333333
142
0.0
142
0.0
142
0.0
142
0.0
142
1.0
142
0.0
142
0.0
142
0.0
142
0.0
142
1.0
179
     0
144
0.0208333333333333
144
0.0
144
0.0
144
0.0
144
0.0
144
0.0208333333333333
144
0.0
144
0.0
144
0.0
144
0.0
144
1.0
144
0.0
144
0.0
144
0.0
144
0.0
144
1.0
147
0.0208333333333333
147
0.0
147
0.0
147
0.0
147
0.0
147
0.0208333333333333
147
0.0
147
0.0
147
0.0
147
0.0
147
1.0
147
0.0
147
0.0
147
0.0
147
0.0
147
1.0
  0
MLEADERSTYLE
  5
66
102
{ACAD_REACTORS
330
65
102
}
330
65
100
AcDbMLeaderStyle
179
     2
170
     2
171
     1
172
     0
 90
        2
 40
0.0
 41
0.0
173
     1
 91
-1056964608
340
5A
 92
       -2
290
     1
 42
0.09
291
     1
 43
0.36
  3
Standard
 44
0.18
300

342
55
174
     1
178
     6
175
     1
176
     0
 93
-1056964608
 45
0.18
292
     0
297
     0
 46
0.18
 94
-1056964608
 47
1.0
 49
1.0
140
1.0
293
     1
141
0.0
294
     1
177
     0
142
1.0
295
     0
296
     0
143
0.125
271
     0
272
     9
273
     9
298
     0
  0
MLINESTYLE
  5
5F
102
{ACAD_REACTORS
330
5E
102
}
330
5E
100
AcDbMlineStyle
  2
STANDARD
 70
     0
  3

 62
   256
 51
90.0
 52
90.0
 71
     2
 49
0.5
 62
   256
  6
BYLAYER
 49
-0.5
 62
   256
  6
BYLAYER
  0
ACDBPLACEHOLDER
  5
F
102
{ACAD_REACTORS
330
E
102
}
330
E
  0
SCALE
  5
43
102
{ACAD_REACTORS
330
42
102
}
330
42
100
AcDbScale
 70
     0
300
1:1
140
1.0
141
1.0
290
     1
  0
SCALE
  5
44
102
{ACAD_REACTORS
330
42
102
}
330
42
100
AcDbScale
 70
     0
300
1/128" = 1'-0"
140
0.0078125
141
12.0
290
     0
  0
SCALE
  5
45
102
{ACAD_REACTORS
330
42
102
}
330
42
100
AcDbScale
 70
     0
300
1/64" = 1'-0"
140
0.015625
141
12.0
290
     0
  0
SCALE
  5
46
102
{ACAD_REACTORS
330
42
102
}
330
42
100
AcDbScale
 70
     0
300
1/32" = 1'-0"
140
0.03125
141
12.0
290
     0
  0
SCALE
  5
47
102
{ACAD_REACTORS
330
42
102
}
330
42
100
AcDbScale
 70
     0
300
1/16" = 1'-0"
140
0.0625
141
12.0
290
     0
  0
SCALE
  5
48
102
{ACAD_REACTORS
330
42
102
}
330
42
100
AcDbScale
 70
     0
300
3/32" = 1'-0"
140
0.09375
141
12.0
290
     0
  0
SCALE
  5
49
102
{ACAD_REACTORS
330
42
102
}
330
42
100
AcDbScale
 70
     0
300
1/8" = 1'-0"
140
0.125
141
12.0
290
     0
  0
SCALE
  5
4A
102
{ACAD_REACTORS
330
42
102
}
330
42
100
AcDbScale
 70
     0
300
3/16" = 1'-0"
140
0.1875
141
12.0
290
     0
  0
SCALE
  5
4B
102
{ACAD_REACTORS
330
42
102
}
330
42
100
AcDbScale
 70
     0
300
1/4" = 1'-0"
140
0.25
141
12.0
290
     0
  0
SCALE
  5
4C
102
{ACAD_REACTORS
330
42
102
}
330
42
100
AcDbScale
 70
     0
300
3/8" = 1'-0"
140
0.375
141
12.0
290
     0
  0
SCALE
  5
4D
102
{ACAD_REACTORS
330
42
102
}
330
42
100
AcDbScale
 70
     0
300
1/2" = 1'-0"
140
0.5
141
12.0
290
     0
  0
SCALE
  5
4E
102
{ACAD_REACTORS
330
42
102
}
330
42
100
AcDbScale
 70
     0
300
3/4" = 1'-0"
140
0.75
141
12.0
290
     0
  0
SCALE
  5
4F
102
{ACAD_REACTORS
330
42
102
}
330
42
100
AcDbScale
 70
     0
300
1" = 1'-0"
140
1.0
141
12.0
290
     0
  0
SCALE
  5
50
102
{ACAD_REACTORS
330
42
102
}
330
42
100
AcDbScale
 70
     0
300
1-1/2" = 1'-0"
140
1.5
141
12.0
290
     0
  0
SCALE
  5
51
102
{ACAD_REACTORS
330
42
102
}
330
42
100
AcDbScale
 70
     0
300
3" = 1'-0"
140
3.0
141
12.0
290
     0
  0
SCALE
  5
52
102
{ACAD_REACTORS
330
42
102
}
330
42
100
AcDbScale
 70
     0
300
6" = 1'-0"
140
6.0
141
12.0
290
     0
  0
SCALE
  5
53
102
{ACAD_REACTORS
330
42
102
}
330
42
100
AcDbScale
 70
     0
300
1'-0" = 1'-0"
140
12.0
141
12.0
290
     0
  0
ACDBSECTIONVIEWSTYLE
  5
69
102
{ACAD_REACTORS
330
67
102
}
330
67
100
AcDbModelDocViewStyle
 70
     0
  3
Imperial24
290
     0
100
AcDbSectionViewStyle
 70
     0
 71
     0
 90
       78
 71
     1
340
55
 62
   256
 40
0.24
340
0
340
0
 62
   256
 40
0.24
300
I, O, Q, S, X, Z
 40
0.48
 90
        3
 40
0.18
 90
        1
 71
     2
340
68
 90
       25
 62
   256
340
5C
 90
       50
 62
   256
 40
0.24
 40
0.0
 40
0.24
 71
     3
340
55
 62
   256
 40
0.24
 90
        1
 40
0.75
 90
        1
300
%<\AcVar ViewType \f "%tc1">% %<\AcVar ViewSectionStartId>%-%<\AcVar ViewSectionEndId>%\PSCALE %<\AcVar ViewScale \f "%sn">%
 71
     4
 62
   256
 62
   257
300
ANSI31
 40
1.0
 90
        0
290
     0
290
     0
 90
        6
 40
0.0
 40
1.570796326794896
 40
0.2617993877991494
 40
1.308996938995747
 40
-0.2617993877991494
 40
1.832595714594046
  0
TABLESTYLE
  5
64
102
{ACAD_XDICTIONARY
360
45D
102
}
102
{ACAD_REACTORS
330
63
102
}
330
63
100
AcDbTableStyle
280
     0
  3
Standard
 70
     0
 71
     0
 40
0.06
 41
0.06
280
     0
281
     0
  7
STANDARD
140
0.18
170
     2
 62
     0
 63
     7
283
     0
 90
      512
 91
        0
  1

274
    -2
284
     1
 64
     0
275
    -2
285
     1
 65
     0
276
    -2
286
     1
 66
     0
277
    -2
287
     1
 67
     0
278
    -2
288
     1
 68
     0
279
    -2
289
     1
 69
     0
  7
STANDARD
140
0.25
170
     5
 62
     0
 63
     7
283
     0
 90
      512
 91
        0
  1

274
    -2
284
     1
 64
     0
275
    -2
285
     1
 65
     0
276
    -2
286
     1
 66
     0
277
    -2
287
     1
 67
     0
278
    -2
288
     1
 68
     0
279
    -2
289
     1
 69
     0
  7
STANDARD
140
0.18
170
     5
 62
     0
 63
     7
283
     0
 90
      512
 91
        0
  1

274
    -2
284
     1
 64
     0
275
    -2
285
     1
 65
     0
276
    -2
286
     1
 66
     0
277
    -2
287
     1
 67
     0
278
    -2
288
     1
 68
     0
279
    -2
289
     1
 69
     0
  0
VISUALSTYLE
  5
2F
102
{ACAD_REACTORS
330
29
102
}
330
29
100
AcDbVisualStyle
  2
2dWireframe
 70
     4
177
     3
291
     0
 70
    58
 90
        0
176
     1
 90
        2
176
     1
 90
        0
176
     1
 90
        0
176
     1
 40
0.6
176
     1
 40
30.0
176
     1
 62
     7
420
 16777215
176
     1
 90
        1
176
     1
 90
        4
176
     1
 62
     7
176
     1
 62
   257
176
     1
 90
        1
176
     1
 90
        1
176
     1
 40
1.0
176
     1
 90
        0
176
     1
 62
   257
176
     1
 40
1.0
176
     1
 90
        1
176
     1
 90
        6
176
     1
 90
        2
176
     1
 62
     7
176
     1
 90
        5
176
     1
 90
        0
176
     1
 90
        0
176
     1
290
     0
176
     1
 90
        1
176
     1
 40
0.0
176
     1
 90
        0
176
     1
290
     1
176
     1
290
     1
176
     1
290
     0
176
     1
290
     0
176
     1
290
     0
176
     1
290
     0
176
     1
290
     0
176
     1
290
     0
176
     1
290
     0
176
     1
 90
       50
176
     1
 40
0.0
176
     1
 40
1.0
176
     1
 90
        0
176
     1
 62
    18
420
        0
176
     1
 90
       50
176
     1
 90
        3
176
     1
 62
     5
420
      255
176
     1
290
     0
176
     1
 90
       50
176
     1
 90
       50
176
     1
 90
       50
176
     1
290
     0
176
     1
 90
       50
176
     1
 62
   256
176
     0
 40
1.0
176
     0
 90
        2
176
     1
  1
strokes_ogs.tif
176
     1
290
     0
176
     1
 40
1.0
176
     1
 40
1.0
176
     1
  0
VISUALSTYLE
  5
2E
102
{ACAD_REACTORS
330
29
102
}
330
29
100
AcDbVisualStyle
  2
Basic
 70
     7
177
     3
291
     1
 70
    58
 90
        1
176
     1
 90
        0
176
     1
 90
        1
176
     1
 90
        0
176
     1
 40
0.6
176
     1
 40
30.0
176
     1
 62
     7
420
 16777215
176
     1
 90
        0
176
     1
 90
        4
176
     1
 62
     7
176
     1
 62
   257
176
     1
 90
        1
176
     1
 90
        1
176
     1
 40
1.0
176
     1
 90
        8
176
     1
 62
     7
176
     1
 40
1.0
176
     1
 90
        1
176
     1
 90
        6
176
     1
 90
        2
176
     1
 62
     7
176
     1
 90
        5
176
     1
 90
        0
176
     1
 90
        0
176
     1
290
     0
176
     1
 90
        1
176
     1
 40
0.0
176
     1
 90
        0
176
     1
290
     0
176
     1
290
     1
176
     1
290
     1
176
     1
290
     0
176
     1
290
     0
176
     1
290
     0
176
     1
290
     0
176
     1
290
     0
176
     1
290
     0
176
     1
 90
       50
176
     1
 40
0.0
176
     1
 40
1.0
176
     1
 90
        0
176
     1
 62
    18
420
        0
176
     1
 90
       50
176
     1
 90
        3
176
     1
 62
     5
420
      255
176
     1
290
     0
176
     1
 90
       50
176
     1
 90
       50
176
     1
 90
       50
176
     1
290
     0
176
     1
 90
       50
176
     1
 62
   256
176
     0
 40
1.0
176
     0
 90
        2
176
     1
  1
strokes_ogs.tif
176
     1
290
     0
176
     1
 40
1.0
176
     1
 40
1.0
176
     1
  0
VISUALSTYLE
  5
35
102
{ACAD_REACTORS
330
29
102
}
330
29
100
AcDbVisualStyle
  2
Brighten
 70
    12
177
     3
291
     1
 70
    58
 90
        2
176
     1
 90
        2
176
     1
 90
        0
176
     1
 90
        0
176
     1
 40
0.6
176
     1
 40
30.0
176
     1
 62
     7
420
 16777215
176
     1
 90
        1
176
     1
 90
        4
176
     1
 62
     7
176
     1
 62
   257
176
     1
 90
        1
176
     1
 90
        1
176
     1
 40
1.0
176
     1
 90
        8
176
     1
 62
     7
176
     1
 40
1.0
176
     1
 90
        1
176
     1
 90
        6
176
     1
 90
        2
176
     1
 62
     7
176
     1
 90
        5
176
     1
 90
        0
176
     1
 90
        0
176
     1
290
     0
176
     1
 90
        1
176
     1
 40
50.0
176
     1
 90
        0
176
     1
290
     0
176
     1
290
     1
176
     1
290
     1
176
     1
290
     0
176
     1
290
     0
176
     1
290
     0
176
     1
290
     0
176
     1
290
     0
176
     1
290
     0
176
     1
 90
       50
176
     1
 40
0.0
176
     1
 40
1.0
176
     1
 90
        0
176
     1
 62
    18
420
        0
176
     1
 90
       50
176
     1
 90
        3
176
     1
 62
     5
420
      255
176
     1
290
     0
176
     1
 90
       50
176
     1
 90
       50
176
     1
 90
       50
176
     1
290
     0
176
     1
 90
       50
176
     1
 62
   256
176
     0
 40
1.0
176
     0
 90
        2
176
     1
  1
strokes_ogs.tif
176
     1
290
     0
176
     1
 40
1.0
176
     1
 40
1.0
176
     1
  0
VISUALSTYLE
  5
39
102
{ACAD_REACTORS
330
29
102
}
330
29
100
AcDbVisualStyle
  2
ColorChange
 70
    16
177
     3
291
     1
 70
    58
 90
        2
176
     1
 90
        2
176
     1
 90
        3
176
     1
 90
        0
176
     1
 40
0.6
176
     1
 40
30.0
176
     1
 62
     8
420
  8421504
176
     1
 90
        1
176
     1
 90
        4
176
     1
 62
     7
176
     1
 62
   257
176
     1
 90
        1
176
     1
 90
        1
176
     1
 40
1.0
176
     1
 90
        8
176
     1
 62
     8
420
  8421504
176
     1
 40
1.0
176
     1
 90
        1
176
     1
 90
        6
176
     1
 90
        2
176
     1
 62
     7
176
     1
 90
        5
176
     1
 90
        0
176
     1
 90
        0
176
     1
290
     0
176
     1
 90
        1
176
     1
 40
0.0
176
     1
 90
        0
176
     1
290
     0
176
     1
290
     1
176
     1
290
     1
176
     1
290
     0
176
     1
290
     0
176
     1
290
     0
176
     1
290
     0
176
     1
290
     0
176
     1
290
     0
176
     1
 90
       50
176
     1
 40
0.0
176
     1
 40
1.0
176
     1
 90
        0
176
     1
 62
    18
420
        0
176
     1
 90
       50
176
     1
 90
        3
176
     1
 62
     5
420
      255
176
     1
290
     0
176
     1
 90
       50
176
     1
 90
       50
176
     1
 90
       50
176
     1
290
     0
176
     1
 90
       50
176
     1
 62
   256
176
     0
 40
1.0
176
     0
 90
        2
176
     1
  1
strokes_ogs.tif
176
     1
290
     0
176
     1
 40
1.0
176
     1
 40
1.0
176
     1
  0
VISUALSTYLE
  5
32
102
{ACAD_REACTORS
330
29
102
}
330
29
100
AcDbVisualStyle
  2
Conceptual
 70
     9
177
     3
291
     0
 70
    58
 90
        3
176
     1
 90
        2
176
     1
 90
        0
176
     1
 90
        0
176
     1
 40
0.6
176
     1
 40
30.0
176
     1
 62
     7
420
 16777215
176
     1
 90
        2
176
     1
 90
        2
176
     1
 62
     7
176
     1
 62
   257
176
     1
 90
        1
176
     1
 90
        1
176
     1
 40
179.0
176
     1
 90
        8
176
     1
 62
     7
176
     1
 40
1.0
176
     1
 90
        1
176
     1
 90
        6
176
     1
 90
        2
176
     1
 62
     7
176
     1
 90
        3
176
     1
 90
        0
176
     1
 90
        0
176
     1
290
     0
176
     1
 90
        1
176
     1
 40
0.0
176
     1
 90
        0
176
     1
290
     0
176
     1
290
     1
176
     1
290
     1
176
     1
290
     0
176
     1
290
     0
176
     1
290
     0
176
     1
290
     0
176
     1
290
     0
176
     1
290
     0
176
     1
 90
       50
176
     1
 40
0.0
176
     1
 40
1.0
176
     1
 90
        0
176
     1
 62
    18
420
        0
176
     1
 90
       50
176
     1
 90
        3
176
     1
 62
     5
420
      255
176
     1
290
     0
176
     1
 90
       50
176
     1
 90
       50
176
     1
 90
       50
176
     1
290
     0
176
     1
 90
       50
176
     1
 62
   256
176
     0
 40
1.0
176
     0
 90
        2
176
     1
  1
strokes_ogs.tif
176
     1
290
     0
176
     1
 40
1.0
176
     1
 40
1.0
176
     1
  0
VISUALSTYLE
  5
34
102
{ACAD_REACTORS
330
29
102
}
330
29
100
AcDbVisualStyle
  2
Dim
 70
    11
177
     3
291
     1
 70
    58
 90
        2
176
     1
 90
        2
176
     1
 90
        0
176
     1
 90
        0
176
     1
 40
0.6
176
     1
 40
30.0
176
     1
 62
     7
420
 16777215
176
     1
 90
        1
176
     1
 90
        4
176
     1
 62
     7
176
     1
 62
   257
176
     1
 90
        1
176
     1
 90
        1
176
     1
 40
1.0
176
     1
 90
        8
176
     1
 62
     7
176
     1
 40
1.0
176
     1
 90
        1
176
     1
 90
        6
176
     1
 90
        2
176
     1
 62
     7
176
     1
 90
        5
176
     1
 90
        0
176
     1
 90
        0
176
     1
290
     0
176
     1
 90
        1
176
     1
 40
-50.0
176
     1
 90
        0
176
     1
290
     0
176
     1
290
     1
176
     1
290
     1
176
     1
290
     0
176
     1
290
     0
176
     1
290
     0
176
     1
290
     0
176
     1
290
     0
176
     1
290
     0
176
     1
 90
       50
176
     1
 40
0.0
176
     1
 40
1.0
176
     1
 90
        0
176
     1
 62
    18
420
        0
176
     1
 90
       50
176
     1
 90
        3
176
     1
 62
     5
420
      255
176
     1
290
     0
176
     1
 90
       50
176
     1
 90
       50
176
     1
 90
       50
176
     1
290
     0
176
     1
 90
       50
176
     1
 62
   256
176
     0
 40
1.0
176
     0
 90
        2
176
     1
  1
strokes_ogs.tif
176
     1
290
     0
176
     1
 40
1.0
176
     1
 40
1.0
176
     1
  0
VISUALSTYLE
  5
41
102
{ACAD_REACTORS
330
29
102
}
330
29
100
AcDbVisualStyle
  2
EdgeColorOff
 70
    22
177
     3
291
     1
 70
    58
 90
        2
176
     0
 90
        2
176
     0
 90
        0
176
     0
 90
        0
176
     0
 40
0.6
176
     0
 40
30.0
176
     0
 62
     7
420
 16777215
176
     0
 90
        1
176
     0
 90
        4
176
     0
 62
     7
176
     0
 62
   257
176
     0
 90
        1
176
     0
 90
        1
176
     0
 40
1.0
176
     0
 90
        8
176
     2
 62
     7
176
     0
 40
1.0
176
     0
 90
        1
176
     0
 90
        6
176
     0
 90
        2
176
     0
 62
     7
176
     0
 90
        5
176
     0
 90
        0
176
     0
 90
        0
176
     0
290
     0
176
     0
 90
        1
176
     0
 40
0.0
176
     0
 90
        0
176
     0
290
     0
176
     1
290
     1
176
     1
290
     1
176
     1
290
     0
176
     1
290
     0
176
     1
290
     0
176
     1
290
     0
176
     1
290
     0
176
     1
290
     0
176
     1
 90
       50
176
     0
 40
0.0
176
     0
 40
1.0
176
     0
 90
        0
176
     0
 62
    18
420
        0
176
     0
 90
       50
176
     0
 90
        3
176
     0
 62
     5
420
      255
176
     0
290
     0
176
     1
 90
       50
176
     0
 90
       50
176
     0
 90
       50
176
     0
290
     0
176
     1
 90
       50
176
     0
 62
   256
176
     0
 40
1.0
176
     0
 90
        2
176
     0
  1
strokes_ogs.tif
176
     0
290
     0
176
     1
 40
1.0
176
     0
 40
1.0
176
     0
  0
VISUALSTYLE
  5
38
102
{ACAD_REACTORS
330
29
102
}
330
29
100
AcDbVisualStyle
  2
Facepattern
 70
    15
177
     3
291
     1
 70
    58
 90
        2
176
     1
 90
        2
176
     1
 90
        0
176
     1
 90
        0
176
     1
 40
0.6
176
     1
 40
30.0
176
     1
 62
     7
420
 16777215
176
     1
 90
        1
176
     1
 90
        4
176
     1
 62
     7
176
     1
 62
   257
176
     1
 90
        1
176
     1
 90
        1
176
     1
 40
1.0
176
     1
 90
        8
176
     1
 62
     7
176
     1
 40
1.0
176
     1
 90
        1
176
     1
 90
        6
176
     1
 90
        2
176
     1
 62
     7
176
     1
 90
        5
176
     1
 90
        0
176
     1
 90
        0
176
     1
290
     0
176
     1
 90
        1
176
     1
 40
0.0
176
     1
 90
        0
176
     1
290
     0
176
     1
290
     1
176
     1
290
     1
176
     1
290
     0
176
     1
290
     0
176
     1
290
     0
176
     1
290
     0
176
     1
290
     0
176
     1
290
     0
176
     1
 90
       50
176
     1
 40
0.0
176
     1
 40
1.0
176
     1
 90
        0
176
     1
 62
    18
420
        0
176
     1
 90
       50
176
     1
 90
        3
176
     1
 62
     5
420
      255
176
     1
290
     0
176
     1
 90
       50
176
     1
 90
       50
176
     1
 90
       50
176
     1
290
     0
176
     1
 90
       50
176
     1
 62
   256
176
     0
 40
1.0
176
     0
 90
        2
176
     1
  1
strokes_ogs.tif
176
     1
290
     0
176
     1
 40
1.0
176
     1
 40
1.0
176
     1
  0
VISUALSTYLE
  5
2A
102
{ACAD_REACTORS
330
29
102
}
330
29
100
AcDbVisualStyle
  2
Flat
 70
     0
177
     3
291
     1
 70
    58
 90
        2
176
     1
 90
        1
176
     1
 90
        1
176
     1
 90
        2
176
     1
 40
0.6
176
     1
 40
30.0
176
     1
 62
     7
420
 16777215
176
     1
 90
        0
176
     1
 90
        0
176
     1
 62
     7
176
     1
 62
   257
176
     1
 90
        1
176
     1
 90
        1
176
     1
 40
1.0
176
     1
 90
        8
176
     1
 62
     7
176
     1
 40
1.0
176
     1
 90
        1
176
     1
 90
        6
176
     1
 90
        2
176
     1
 62
     7
176
     1
 90
        5
176
     1
 90
        0
176
     1
 90
        0
176
     1
290
     0
176
     1
 90
       13
176
     1
 40
0.0
176
     1
 90
        0
176
     1
290
     0
176
     1
290
     1
176
     1
290
     1
176
     1
290
     0
176
     1
290
     0
176
     1
290
     0
176
     1
290
     0
176
     1
290
     0
176
     1
290
     0
176
     1
 90
       50
176
     1
 40
0.0
176
     1
 40
1.0
176
     1
 90
        0
176
     1
 62
    18
420
        0
176
     1
 90
       50
176
     1
 90
        3
176
     1
 62
     5
420
      255
176
     1
290
     0
176
     1
 90
       50
176
     1
 90
       50
176
     1
 90
       50
176
     1
290
     0
176
     1
 90
       50
176
     1
 62
   256
176
     0
 40
1.0
176
     0
 90
        2
176
     1
  1
strokes_ogs.tif
176
     1
290
     0
176
     1
 40
1.0
176
     1
 40
1.0
176
     1
  0
VISUALSTYLE
  5
2B
102
{ACAD_REACTORS
330
29
102
}
330
29
100
AcDbVisualStyle
  2
FlatWithEdges
 70
     1
177
     3
291
     1
 70
    58
 90
        2
176
     1
 90
        1
176
     1
 90
        1
176
     1
 90
        2
176
     1
 40
0.6
176
     1
 40
30.0
176
     1
 62
     7
420
 16777215
176
     1
 90
        1
176
     1
 90
        0
176
     1
 62
     7
176
     1
 62
   257
176
     1
 90
        1
176
     1
 90
        1
176
     1
 40
1.0
176
     1
 90
        0
176
     1
 62
   257
176
     1
 40
1.0
176
     1
 90
        1
176
     1
 90
        6
176
     1
 90
        2
176
     1
 62
     7
176
     1
 90
        5
176
     1
 90
        0
176
     1
 90
        0
176
     1
290
     0
176
     1
 90
       13
176
     1
 40
0.0
176
     1
 90
        0
176
     1
290
     0
176
     1
290
     1
176
     1
290
     1
176
     1
290
     0
176
     1
290
     0
176
     1
290
     0
176
     1
290
     0
176
     1
290
     0
176
     1
290
     0
176
     1
 90
       50
176
     1
 40
0.0
176
     1
 40
1.0
176
     1
 90
        0
176
     1
 62
    18
420
        0
176
     1
 90
       50
176
     1
 90
        3
176
     1
 62
     5
420
      255
176
     1
290
     0
176
     1
 90
       50
176
     1
 90
       50
176
     1
 90
       50
176
     1
290
     0
176
     1
 90
       50
176
     1
 62
   256
176
     0
 40
1.0
176
     0
 90
        2
176
     1
  1
strokes_ogs.tif
176
     1
290
     0
176
     1
 40
1.0
176
     1
 40
1.0
176
     1
  0
VISUALSTYLE
  5
2C
102
{ACAD_REACTORS
330
29
102
}
330
29
100
AcDbVisualStyle
  2
Gouraud
 70
     2
177
     3
291
     1
 70
    58
 90
        2
176
     1
 90
        2
176
     1
 90
        1
176
     1
 90
        2
176
     1
 40
0.6
176
     1
 40
30.0
176
     1
 62
     7
420
 16777215
176
     1
 90
        0
176
     1
 90
        0
176
     1
 62
     7
176
     1
 62
   257
176
     1
 90
        1
176
     1
 90
        1
176
     1
 40
1.0
176
     1
 90
        0
176
     1
 62
     7
176
     1
 40
1.0
176
     1
 90
        1
176
     1
 90
        6
176
     1
 90
        2
176
     1
 62
     7
176
     1
 90
        5
176
     1
 90
        0
176
     1
 90
        0
176
     1
290
     0
176
     1
 90
       13
176
     1
 40
0.0
176
     1
 90
        0
176
     1
290
     0
176
     1
290
     1
176
     1
290
     1
176
     1
290
     0
176
     1
290
     0
176
     1
290
     0
176
     1
290
     0
176
     1
290
     0
176
     1
290
     0
176
     1
 90
       50
176
     1
 40
0.0
176
     1
 40
1.0
176
     1
 90
        0
176
     1
 62
    18
420
        0
176
     1
 90
       50
176
     1
 90
        3
176
     1
 62
     5
420
      255
176
     1
290
     0
176
     1
 90
       50
176
     1
 90
       50
176
     1
 90
       50
176
     1
290
     0
176
     1
 90
       50
176
     1
 62
   256
176
     0
 40
1.0
176
     0
 90
        2
176
     1
  1
strokes_ogs.tif
176
     1
290
     0
176
     1
 40
1.0
176
     1
 40
1.0
176
     1
  0
VISUALSTYLE
  5
2D
102
{ACAD_REACTORS
330
29
102
}
330
29
100
AcDbVisualStyle
  2
GouraudWithEdges
 70
     3
177
     3
291
     1
 70
    58
 90
        2
176
     1
 90
        2
176
     1
 90
        1
176
     1
 90
        2
176
     1
 40
0.6
176
     1
 40
30.0
176
     1
 62
     7
420
 16777215
176
     1
 90
        1
176
     1
 90
        0
176
     1
 62
     7
176
     1
 62
   257
176
     1
 90
        1
176
     1
 90
        1
176
     1
 40
1.0
176
     1
 90
        0
176
     1
 62
   257
176
     1
 40
1.0
176
     1
 90
        1
176
     1
 90
        6
176
     1
 90
        2
176
     1
 62
     7
176
     1
 90
        5
176
     1
 90
        0
176
     1
 90
        0
176
     1
290
     0
176
     1
 90
       13
176
     1
 40
0.0
176
     1
 90
        0
176
     1
290
     0
176
     1
290
     1
176
     1
290
     1
176
     1
290
     0
176
     1
290
     0
176
     1
290
     0
176
     1
290
     0
176
     1
290
     0
176
     1
290
     0
176
     1
 90
       50
176
     1
 40
0.0
176
     1
 40
1.0
176
     1
 90
        0
176
     1
 62
    18
420
        0
176
     1
 90
       50
176
     1
 90
        3
176
     1
 62
     5
420
      255
176
     1
290
     0
176
     1
 90
       50
176
     1
 90
       50
176
     1
 90
       50
176
     1
290
     0
176
     1
 90
       50
176
     1
 62
   256
176
     0
 40
1.0
176
     0
 90
        2
176
     1
  1
strokes_ogs.tif
176
     1
290
     0
176
     1
 40
1.0
176
     1
 40
1.0
176
     1
  0
VISUALSTYLE
  5
31
102
{ACAD_REACTORS
330
29
102
}
330
29
100
AcDbVisualStyle
  2
Hidden
 70
     6
177
     3
291
     0
 70
    58
 90
        1
176
     1
 90
        2
176
     1
 90
        2
176
     1
 90
        0
176
     1
 40
0.6
176
     1
 40
30.0
176
     1
 62
     7
420
 16777215
176
     1
 90
        2
176
     1
 90
        2
176
     1
 62
     7
176
     1
 62
   257
176
     1
 90
        2
176
     1
 90
        1
176
     1
 40
40.0
176
     1
 90
        0
176
     1
 62
   257
176
     1
 40
1.0
176
     1
 90
        1
176
     1
 90
        6
176
     1
 90
        2
176
     1
 62
     7
176
     1
 90
        3
176
     1
 90
        0
176
     1
 90
        0
176
     1
290
     0
176
     1
 90
        1
176
     1
 40
0.0
176
     1
 90
        0
176
     1
290
     0
176
     1
290
     1
176
     1
290
     1
176
     1
290
     0
176
     1
290
     0
176
     1
290
     0
176
     1
290
     0
176
     1
290
     0
176
     1
290
     0
176
     1
 90
       50
176
     1
 40
0.0
176
     1
 40
1.0
176
     1
 90
        0
176
     1
 62
    18
420
        0
176
     1
 90
       50
176
     1
 90
        3
176
     1
 62
     5
420
      255
176
     1
290
     0
176
     1
 90
       50
176
     1
 90
       50
176
     1
 90
       50
176
     1
290
     0
176
     1
 90
       50
176
     1
 62
   256
176
     0
 40
1.0
176
     0
 90
        2
176
     1
  1
strokes_ogs.tif
176
     1
290
     0
176
     1
 40
1.0
176
     1
 40
1.0
176
     1
  0
VISUALSTYLE
  5
3F
102
{ACAD_REACTORS
330
29
102
}
330
29
100
AcDbVisualStyle
  2
JitterOff
 70
    20
177
     3
291
     1
 70
    58
 90
        2
176
     0
 90
        2
176
     0
 90
        0
176
     0
 90
        0
176
     0
 40
0.6
176
     0
 40
30.0
176
     0
 62
     7
420
 16777215
176
     0
 90
        1
176
     0
 90
        4
176
     0
 62
     7
176
     0
 62
   257
176
     0
 90
        1
176
     0
 90
        1
176
     0
 40
1.0
176
     0
 90
       10
176
     2
 62
     7
176
     0
 40
1.0
176
     0
 90
        1
176
     0
 90
        6
176
     0
 90
        2
176
     0
 62
     7
176
     0
 90
        5
176
     0
 90
        0
176
     0
 90
        0
176
     0
290
     0
176
     0
 90
        1
176
     0
 40
0.0
176
     0
 90
        0
176
     0
290
     0
176
     1
290
     1
176
     1
290
     1
176
     1
290
     0
176
     1
290
     0
176
     1
290
     0
176
     1
290
     0
176
     1
290
     0
176
     1
290
     0
176
     1
 90
       50
176
     0
 40
0.0
176
     0
 40
1.0
176
     0
 90
        0
176
     0
 62
    18
420
        0
176
     0
 90
       50
176
     0
 90
        3
176
     0
 62
     5
420
      255
176
     0
290
     0
176
     1
 90
       50
176
     0
 90
       50
176
     0
 90
       50
176
     0
290
     0
176
     1
 90
       50
176
     0
 62
   256
176
     0
 40
1.0
176
     0
 90
        2
176
     0
  1
strokes_ogs.tif
176
     0
290
     0
176
     1
 40
1.0
176
     0
 40
1.0
176
     0
  0
VISUALSTYLE
  5
37
102
{ACAD_REACTORS
330
29
102
}
330
29
100
AcDbVisualStyle
  2
Linepattern
 70
    14
177
     3
291
     1
 70
    58
 90
        2
176
     1
 90
        2
176
     1
 90
        0
176
     1
 90
        0
176
     1
 40
0.6
176
     1
 40
30.0
176
     1
 62
     7
420
 16777215
176
     1
 90
        1
176
     1
 90
        4
176
     1
 62
     7
176
     1
 62
   257
176
     1
 90
        7
176
     1
 90
        7
176
     1
 40
1.0
176
     1
 90
        8
176
     1
 62
     7
176
     1
 40
1.0
176
     1
 90
        1
176
     1
 90
        6
176
     1
 90
        2
176
     1
 62
     7
176
     1
 90
        5
176
     1
 90
        0
176
     1
 90
        0
176
     1
290
     0
176
     1
 90
        1
176
     1
 40
0.0
176
     1
 90
        0
176
     1
290
     0
176
     1
290
     1
176
     1
290
     1
176
     1
290
     0
176
     1
290
     0
176
     1
290
     0
176
     1
290
     0
176
     1
290
     0
176
     1
290
     0
176
     1
 90
       50
176
     1
 40
0.0
176
     1
 40
1.0
176
     1
 90
        0
176
     1
 62
    18
420
        0
176
     1
 90
       50
176
     1
 90
        3
176
     1
 62
     5
420
      255
176
     1
290
     0
176
     1
 90
       50
176
     1
 90
       50
176
     1
 90
       50
176
     1
290
     0
176
     1
 90
       50
176
     1
 62
   256
176
     0
 40
1.0
176
     0
 90
        2
176
     1
  1
strokes_ogs.tif
176
     1
290
     0
176
     1
 40
1.0
176
     1
 40
1.0
176
     1
  0
VISUALSTYLE
  5
40
102
{ACAD_REACTORS
330
29
102
}
330
29
100
AcDbVisualStyle
  2
OverhangOff
 70
    21
177
     3
291
     1
 70
    58
 90
        2
176
     0
 90
        2
176
     0
 90
        0
176
     0
 90
        0
176
     0
 40
0.6
176
     0
 40
30.0
176
     0
 62
     7
420
 16777215
176
     0
 90
        1
176
     0
 90
        4
176
     0
 62
     7
176
     0
 62
   257
176
     0
 90
        1
176
     0
 90
        1
176
     0
 40
1.0
176
     0
 90
        9
176
     2
 62
     7
176
     0
 40
1.0
176
     0
 90
        1
176
     0
 90
        6
176
     0
 90
        2
176
     0
 62
     7
176
     0
 90
        5
176
     0
 90
        0
176
     0
 90
        0
176
     0
290
     0
176
     0
 90
        1
176
     0
 40
0.0
176
     0
 90
        0
176
     0
290
     0
176
     1
290
     1
176
     1
290
     1
176
     1
290
     0
176
     1
290
     0
176
     1
290
     0
176
     1
290
     0
176
     1
290
     0
176
     1
290
     0
176
     1
 90
       50
176
     0
 40
0.0
176
     0
 40
1.0
176
     0
 90
        0
176
     0
 62
    18
420
        0
176
     0
 90
       50
176
     0
 90
        3
176
     0
 62
     5
420
      255
176
     0
290
     0
176
     1
 90
       50
176
     0
 90
       50
176
     0
 90
       50
176
     0
290
     0
176
     1
 90
       50
176
     0
 62
   256
176
     0
 40
1.0
176
     0
 90
        2
176
     0
  1
strokes_ogs.tif
176
     0
290
     0
176
     1
 40
1.0
176
     0
 40
1.0
176
     0
  0
VISUALSTYLE
  5
33
102
{ACAD_REACTORS
330
29
102
}
330
29
100
AcDbVisualStyle
  2
Realistic
 70
     8
177
     3
291
     0
 70
    58
 90
        2
176
     1
 90
        3
176
     1
 90
        0
176
     1
 90
        2
176
     1
 40
0.6
176
     1
 40
30.0
176
     1
 62
     7
420
 16777215
176
     1
 90
        0
176
     1
 90
        0
176
     1
 62
     7
176
     1
 62
   257
176
     1
 90
        1
176
     1
 90
        1
176
     1
 40
1.0
176
     1
 90
        8
176
     1
 62
   257
176
     1
 40
1.0
176
     1
 90
        1
176
     1
 90
        6
176
     1
 90
        2
176
     1
 62
     7
176
     1
 90
        3
176
     1
 90
        0
176
     1
 90
        0
176
     1
290
     0
176
     1
 90
       13
176
     1
 40
0.0
176
     1
 90
        0
176
     1
290
     0
176
     1
290
     1
176
     1
290
     1
176
     1
290
     0
176
     1
290
     0
176
     1
290
     0
176
     1
290
     0
176
     1
290
     0
176
     1
290
     0
176
     1
 90
       50
176
     1
 40
0.0
176
     1
 40
1.0
176
     1
 90
        0
176
     1
 62
    18
420
        0
176
     1
 90
       50
176
     1
 90
        3
176
     1
 62
     5
420
      255
176
     1
290
     0
176
     1
 90
       50
176
     1
 90
       50
176
     1
 90
       50
176
     1
290
     0
176
     1
 90
       50
176
     1
 62
   256
176
     0
 40
1.0
176
     0
 90
        2
176
     1
  1
strokes_ogs.tif
176
     1
290
     0
176
     1
 40
1.0
176
     1
 40
1.0
176
     1
  0
VISUALSTYLE
  5
3E
102
{ACAD_REACTORS
330
29
102
}
330
29
100
AcDbVisualStyle
  2
Shaded
 70
    27
177
     3
291
     0
 70
    58
 90
        2
176
     1
 90
        2
176
     1
 90
        1
176
     1
 90
        2
176
     1
 40
0.6
176
     1
 40
30.0
176
     1
 62
     7
420
 16777215
176
     1
 90
        0
176
     1
 90
        4
176
     1
 62
     7
176
     1
 62
   257
176
     1
 90
        1
176
     1
 90
        1
176
     1
 40
1.0
176
     1
 90
        8
176
     1
 62
   257
176
     1
 40
1.0
176
     1
 90
        1
176
     1
 90
        6
176
     1
 90
        2
176
     1
 62
     8
420
  7895160
176
     1
 90
        3
176
     1
 90
        0
176
     1
 90
        0
176
     1
290
     0
176
     1
 90
        5
176
     1
 40
0.0
176
     1
 90
        0
176
     1
290
     0
176
     1
290
     1
176
     1
290
     1
176
     1
290
     0
176
     1
290
     0
176
     1
290
     0
176
     1
290
     0
176
     1
290
     0
176
     1
290
     0
176
     1
 90
       50
176
     1
 40
0.0
176
     1
 40
1.0
176
     1
 90
        0
176
     1
 62
    18
420
        0
176
     1
 90
       50
176
     1
 90
        3
176
     1
 62
     5
420
      255
176
     1
290
     0
176
     1
 90
       50
176
     1
 90
       50
176
     1
 90
       50
176
     1
290
     0
176
     1
 90
       50
176
     1
 62
   256
176
     0
 40
1.0
176
     0
 90
        2
176
     1
  1
strokes_ogs.tif
176
     1
290
     0
176
     1
 40
1.0
176
     1
 40
1.0
176
     1
  0
VISUALSTYLE
  5
3D
102
{ACAD_REACTORS
330
29
102
}
330
29
100
AcDbVisualStyle
  2
Shaded with edges
 70
    26
177
     3
291
     0
 70
    58
 90
        2
176
     1
 90
        2
176
     1
 90
        1
176
     1
 90
        2
176
     1
 40
0.6
176
     1
 40
30.0
176
     1
 62
     7
420
 16777215
176
     1
 90
        1
176
     1
 90
       10
176
     1
 62
     7
176
     1
 62
   257
176
     1
 90
        2
176
     1
 90
        1
176
     1
 40
1.0
176
     1
 90
        8
176
     1
 62
   257
176
     1
 40
1.0
176
     1
 90
        1
176
     1
 90
        6
176
     1
 90
        2
176
     1
 62
     7
176
     1
 90
        3
176
     1
 90
        0
176
     1
 90
        0
176
     1
290
     0
176
     1
 90
        5
176
     1
 40
0.0
176
     1
 90
        0
176
     1
290
     0
176
     1
290
     1
176
     1
290
     1
176
     1
290
     0
176
     1
290
     0
176
     1
290
     0
176
     1
290
     0
176
     1
290
     0
176
     1
290
     0
176
     1
 90
       50
176
     1
 40
0.0
176
     1
 40
1.0
176
     1
 90
        0
176
     1
 62
    18
420
        0
176
     1
 90
       50
176
     1
 90
        3
176
     1
 62
     5
420
      255
176
     1
290
     0
176
     1
 90
       50
176
     1
 90
       50
176
     1
 90
       50
176
     1
290
     0
176
     1
 90
       50
176
     1
 62
   256
176
     0
 40
1.0
176
     0
 90
        2
176
     1
  1
strokes_ogs.tif
176
     1
290
     0
176
     1
 40
1.0
176
     1
 40
1.0
176
     1
  0
VISUALSTYLE
  5
3A
102
{ACAD_REACTORS
330
29
102
}
330
29
100
AcDbVisualStyle
  2
Shades of Gray
 70
    23
177
     3
291
     0
 70
    58
 90
        2
176
     1
 90
        2
176
     1
 90
        3
176
     1
 90
        0
176
     1
 40
0.6
176
     1
 40
30.0
176
     1
 62
     7
420
 16777215
176
     1
 90
        2
176
     1
 90
        2
176
     1
 62
     7
176
     1
 62
     7
176
     1
 90
        1
176
     1
 90
        1
176
     1
 40
40.0
176
     1
 90
        8
176
     1
 62
     7
176
     1
 40
1.0
176
     1
 90
        1
176
     1
 90
        6
176
     1
 90
        2
176
     1
 62
     7
176
     1
 90
        3
176
     1
 90
        0
176
     1
 90
        0
176
     1
290
     0
176
     1
 90
        1
176
     1
 40
0.0
176
     1
 90
        0
176
     1
290
     0
176
     1
290
     1
176
     1
290
     1
176
     1
290
     0
176
     1
290
     0
176
     1
290
     0
176
     1
290
     0
176
     1
290
     0
176
     1
290
     0
176
     1
 90
       50
176
     1
 40
0.0
176
     1
 40
1.0
176
     1
 90
        0
176
     1
 62
    18
420
        0
176
     1
 90
       50
176
     1
 90
        3
176
     1
 62
     5
420
      255
176
     1
290
     0
176
     1
 90
       50
176
     1
 90
       50
176
     1
 90
       50
176
     1
290
     0
176
     1
 90
       50
176
     1
 62
   256
176
     0
 40
1.0
176
     0
 90
        2
176
     1
  1
strokes_ogs.tif
176
     1
290
     0
176
     1
 40
1.0
176
     1
 40
1.0
176
     1
  0
VISUALSTYLE
  5
3B
102
{ACAD_REACTORS
330
29
102
}
330
29
100
AcDbVisualStyle
  2
Sketchy
 70
    24
177
     3
291
     0
 70
    58
 90
        1
176
     1
 90
        2
176
     1
 90
        2
176
     1
 90
        0
176
     1
 40
0.6
176
     1
 40
30.0
176
     1
 62
     7
420
 16777215
176
     1
 90
        2
176
     1
 90
        2
176
     1
 62
     7
176
     1
 62
     7
176
     1
 90
        1
176
     1
 90
        1
176
     1
 40
40.0
176
     1
 90
       11
176
     1
 62
     7
176
     1
 40
1.0
176
     1
 90
        1
176
     1
 90
        6
176
     1
 90
        2
176
     1
 62
     7
176
     1
 90
        6
176
     1
 90
        0
176
     1
 90
        0
176
     1
290
     0
176
     1
 90
        1
176
     1
 40
0.0
176
     1
 90
        0
176
     1
290
     0
176
     1
290
     1
176
     1
290
     1
176
     1
290
     0
176
     1
290
     0
176
     1
290
     0
176
     1
290
     0
176
     1
290
     0
176
     1
290
     0
176
     1
 90
       50
176
     1
 40
0.0
176
     1
 40
1.0
176
     1
 90
        0
176
     1
 62
    18
420
        0
176
     1
 90
       50
176
     1
 90
        3
176
     1
 62
     5
420
      255
176
     1
290
     0
176
     1
 90
       50
176
     1
 90
       50
176
     1
 90
       50
176
     1
290
     0
176
     1
 90
       50
176
     1
 62
   256
176
     0
 40
1.0
176
     0
 90
        2
176
     1
  1
strokes_ogs.tif
176
     1
290
     0
176
     1
 40
1.0
176
     1
 40
1.0
176
     1
  0
VISUALSTYLE
  5
36
102
{ACAD_REACTORS
330
29
102
}
330
29
100
AcDbVisualStyle
  2
Thicken
 70
    13
177
     3
291
     1
 70
    58
 90
        2
176
     1
 90
        2
176
     1
 90
        0
176
     1
 90
        0
176
     1
 40
0.6
176
     1
 40
30.0
176
     1
 62
     7
420
 16777215
176
     1
 90
        1
176
     1
 90
        4
176
     1
 62
     7
176
     1
 62
   257
176
     1
 90
        1
176
     1
 90
        1
176
     1
 40
1.0
176
     1
 90
       12
176
     1
 62
     7
176
     1
 40
1.0
176
     1
 90
        1
176
     1
 90
        6
176
     1
 90
        2
176
     1
 62
     7
176
     1
 90
        5
176
     1
 90
        0
176
     1
 90
        0
176
     1
290
     0
176
     1
 90
        1
176
     1
 40
0.0
176
     1
 90
        0
176
     1
290
     0
176
     1
290
     1
176
     1
290
     1
176
     1
290
     0
176
     1
290
     0
176
     1
290
     0
176
     1
290
     0
176
     1
290
     0
176
     1
290
     0
176
     1
 90
       50
176
     1
 40
0.0
176
     1
 40
1.0
176
     1
 90
        0
176
     1
 62
    18
420
        0
176
     1
 90
       50
176
     1
 90
        3
176
     1
 62
     5
420
      255
176
     1
290
     0
176
     1
 90
       50
176
     1
 90
       50
176
     1
 90
       50
176
     1
290
     0
176
     1
 90
       50
176
     1
 62
   256
176
     0
 40
1.0
176
     0
 90
        2
176
     1
  1
strokes_ogs.tif
176
     1
290
     0
176
     1
 40
1.0
176
     1
 40
1.0
176
     1
  0
VISUALSTYLE
  5
30
102
{ACAD_REACTORS
330
29
102
}
330
29
100
AcDbVisualStyle
  2
Wireframe
 70
     5
177
     3
291
     0
 70
    58
 90
        0
176
     1
 90
        2
176
     1
 90
        0
176
     1
 90
        0
176
     1
 40
0.6
176
     1
 40
30.0
176
     1
 62
     7
420
 16777215
176
     1
 90
        1
176
     1
 90
        4
176
     1
 62
     7
176
     1
 62
   257
176
     1
 90
        1
176
     1
 90
        1
176
     1
 40
1.0
176
     1
 90
        0
176
     1
 62
   257
176
     1
 40
1.0
176
     1
 90
        1
176
     1
 90
        6
176
     1
 90
        2
176
     1
 62
     7
176
     1
 90
        3
176
     1
 90
        0
176
     1
 90
        0
176
     1
290
     0
176
     1
 90
        1
176
     1
 40
0.0
176
     1
 90
        0
176
     1
290
     0
176
     1
290
     1
176
     1
290
     1
176
     1
290
     0
176
     1
290
     0
176
     1
290
     0
176
     1
290
     0
176
     1
290
     0
176
     1
290
     0
176
     1
 90
       50
176
     1
 40
0.0
176
     1
 40
1.0
176
     1
 90
        0
176
     1
 62
    18
420
        0
176
     1
 90
       50
176
     1
 90
        3
176
     1
 62
     5
420
      255
176
     1
290
     0
176
     1
 90
       50
176
     1
 90
       50
176
     1
 90
       50
176
     1
290
     0
176
     1
 90
       50
176
     1
 62
   256
176
     0
 40
1.0
176
     0
 90
        2
176
     1
  1
strokes_ogs.tif
176
     1
290
     0
176
     1
 40
1.0
176
     1
 40
1.0
176
     1
  0
VISUALSTYLE
  5
3C
102
{ACAD_REACTORS
330
29
102
}
330
29
100
AcDbVisualStyle
  2
X-Ray
 70
    25
177
     3
291
     0
 70
    58
 90
        2
176
     1
 90
        2
176
     1
 90
        1
176
     1
 90
        1
176
     1
 40
0.5
176
     1
 40
30.0
176
     1
 62
     7
420
 16777215
176
     1
 90
        1
176
     1
 90
        0
176
     1
 62
     7
176
     1
 62
   257
176
     1
 90
        1
176
     1
 90
        1
176
     1
 40
1.0
176
     1
 90
        8
176
     1
 62
     7
176
     1
 40
1.0
176
     1
 90
        1
176
     1
 90
        6
176
     1
 90
        2
176
     1
 62
     7
176
     1
 90
        3
176
     1
 90
        0
176
     1
 90
        0
176
     1
290
     0
176
     1
 90
       13
176
     1
 40
0.0
176
     1
 90
        0
176
     1
290
     0
176
     1
290
     1
176
     1
290
     1
176
     1
290
     0
176
     1
290
     0
176
     1
290
     0
176
     1
290
     0
176
     1
290
     0
176
     1
290
     0
176
     1
 90
       50
176
     1
 40
0.0
176
     1
 40
1.0
176
     1
 90
        0
176
     1
 62
    18
420
        0
176
     1
 90
       50
176
     1
 90
        3
176
     1
 62
     5
420
      255
176
     1
290
     0
176
     1
 90
       50
176
     1
 90
       50
176
     1
 90
       50
176
     1
290
     0
176
     1
 90
       50
176
     1
 62
   256
176
     0
 40
1.0
176
     0
 90
        2
176
     1
  1
strokes_ogs.tif
176
     1
290
     0
176
     1
 40
1.0
176
     1
 40
1.0
176
     1
  0
DICTIONARYVAR
  5
458
102
{ACAD_REACTORS
330
452
102
}
330
452
100
DictionaryVariables
280
     0
  1
1:1
  0
DICTIONARYVAR
  5
454
102
{ACAD_REACTORS
330
452
102
}
330
452
100
DictionaryVariables
280
     0
  1
STANDARD
  0
DICTIONARYVAR
  5
453
102
{ACAD_REACTORS
330
452
102
}
330
452
100
DictionaryVariables
280
     0
  1
STANDARD
  0
DICTIONARYVAR
  5
455
102
{ACAD_REACTORS
330
452
102
}
330
452
100
DictionaryVariables
280
     0
  1
Imperial24
  0
DICTIONARYVAR
  5
456
102
{ACAD_REACTORS
330
452
102
}
330
452
100
DictionaryVariables
280
     0
  1
Imperial24
  0
DICTIONARYVAR
  5
45A
102
{ACAD_REACTORS
330
452
102
}
330
452
100
DictionaryVariables
280
     0
  1
1
  0
DICTIONARYVAR
  5
45B
102
{ACAD_REACTORS
330
452
102
}
330
452
100
DictionaryVariables
280
     0
  1
15
  0
DICTIONARYVAR
  5
459
102
{ACAD_REACTORS
330
452
102
}
330
452
100
DictionaryVariables
280
     0
  1
0
  0
DICTIONARYVAR
  5
457
102
{ACAD_REACTORS
330
452
102
}
330
452
100
DictionaryVariables
280
     0
  1
0
  0
DICTIONARY
  5
1A
330
19
100
AcDbDictionary
280
     1
281
     1
  3
BUMPTILE
360
1C
  3
DIFFUSETILE
360
1B
  3
OPACITYTILE
360
1F
  3
REFLECTIONTILE
360
1E
  3
REFRACTIONTILE
360
20
  3
SPECULARTILE
360
1D
  0
DICTIONARY
  5
12
330
11
100
AcDbDictionary
280
     1
281
     1
  3
BUMPTILE
360
14
  3
DIFFUSETILE
360
13
  3
OPACITYTILE
360
17
  3
REFLECTIONTILE
360
16
  3
REFRACTIONTILE
360
18
  3
SPECULARTILE
360
15
  0
DICTIONARY
  5
22
330
21
100
AcDbDictionary
280
     1
281
     1
  3
BUMPTILE
360
24
  3
DIFFUSETILE
360
23
  3
OPACITYTILE
360
27
  3
REFLECTIONTILE
360
26
  3
REFRACTIONTILE
360
28
  3
SPECULARTILE
360
25
  0
DICTIONARY
  5
45D
330
64
100
AcDbDictionary
280
     1
281
     1
  3
ACAD_ROUNDTRIP_2008_TABLESTYLE_CELLSTYLEMAP
360
45E
  0
XRECORD
  5
1C
102
{ACAD_REACTORS
330
1A
102
}
330
1A
100
AcDbXrecord
280
     1
270
     1
271
     1
  0
XRECORD
  5
1B
102
{ACAD_REACTORS
330
1A
102
}
330
1A
100
AcDbXrecord
280
     1
270
     1
271
     1
  0
XRECORD
  5
1F
102
{ACAD_REACTORS
330
1A
102
}
330
1A
100
AcDbXrecord
280
     1
270
     1
271
     1
  0
XRECORD
  5
1E
102
{ACAD_REACTORS
330
1A
102
}
330
1A
100
AcDbXrecord
280
     1
270
     1
271
     1
  0
XRECORD
  5
20
102
{ACAD_REACTORS
330
1A
102
}
330
1A
100
AcDbXrecord
280
     1
270
     1
271
     1
  0
XRECORD
  5
1D
102
{ACAD_REACTORS
330
1A
102
}
330
1A
100
AcDbXrecord
280
     1
270
     1
271
     1
  0
XRECORD
  5
14
102
{ACAD_REACTORS
330
12
102
}
330
12
100
AcDbXrecord
280
     1
270
     1
271
     1
  0
XRECORD
  5
13
102
{ACAD_REACTORS
330
12
102
}
330
12
100
AcDbXrecord
280
     1
270
     1
271
     1
  0
XRECORD
  5
17
102
{ACAD_REACTORS
330
12
102
}
330
12
100
AcDbXrecord
280
     1
270
     1
271
     1
  0
XRECORD
  5
16
102
{ACAD_REACTORS
330
12
102
}
330
12
100
AcDbXrecord
280
     1
270
     1
271
     1
  0
XRECORD
  5
18
102
{ACAD_REACTORS
330
12
102
}
330
12
100
AcDbXrecord
280
     1
270
     1
271
     1
  0
XRECORD
  5
15
102
{ACAD_REACTORS
330
12
102
}
330
12
100
AcDbXrecord
280
     1
270
     1
271
     1
  0
XRECORD
  5
24
102
{ACAD_REACTORS
330
22
102
}
330
22
100
AcDbXrecord
280
     1
270
     1
271
     1
  0
XRECORD
  5
23
102
{ACAD_REACTORS
330
22
102
}
330
22
100
AcDbXrecord
280
     1
270
     1
271
     1
  0
XRECORD
  5
27
102
{ACAD_REACTORS
330
22
102
}
330
22
100
AcDbXrecord
280
     1
270
     1
271
     1
  0
XRECORD
  5
26
102
{ACAD_REACTORS
330
22
102
}
330
22
100
AcDbXrecord
280
     1
270
     1
271
     1
  0
XRECORD
  5
28
102
{ACAD_REACTORS
330
22
102
}
330
22
100
AcDbXrecord
280
     1
270
     1
271
     1
  0
XRECORD
  5
25
102
{ACAD_REACTORS
330
22
102
}
330
22
100
AcDbXrecord
280
     1
270
     1
271
     1
  0
CELLSTYLEMAP
  5
45E
102
{ACAD_REACTORS
330
45D
102
}
330
45D
100
AcDbCellStyleMap
 90
        3
300
CELLSTYLE
  1
TABLEFORMAT_BEGIN
 90
        5
170
     1
 91
        0
 92
    32768
 62
   257
 93
        1
300
CONTENTFORMAT
  1
CONTENTFORMAT_BEGIN
 90
        0
 91
        0
 92
      512
 93
        0
300

 40
0.0
140
1.0
 94
        5
 62
     0
340
55
144
0.25
309
CONTENTFORMAT_END
171
     0
 94
        0
309
TABLEFORMAT_END
  1
CELLSTYLE_BEGIN
 90
        1
 91
        1
300
_TITLE
309
CELLSTYLE_END
300
CELLSTYLE
  1
TABLEFORMAT_BEGIN
 90
        5
170
     1
 91
        0
 92
        0
 62
   257
 93
        1
300
CONTENTFORMAT
  1
CONTENTFORMAT_BEGIN
 90
        0
 91
        0
 92
      512
 93
        0
300

 40
0.0
140
1.0
 94
        5
 62
     0
340
55
144
0.18
309
CONTENTFORMAT_END
171
     0
 94
        0
309
TABLEFORMAT_END
  1
CELLSTYLE_BEGIN
 90
        2
 91
        1
300
_HEADER
309
CELLSTYLE_END
300
CELLSTYLE
  1
TABLEFORMAT_BEGIN
 90
        5
170
     1
 91
        0
 92
        0
 62
   257
 93
        1
300
CONTENTFORMAT
  1
CONTENTFORMAT_BEGIN
 90
        0
 91
        0
 92
      512
 93
        0
300

 40
0.0
140
1.0
 94
        2
 62
     0
340
55
144
0.18
309
CONTENTFORMAT_END
171
     0
 94
        0
309
TABLEFORMAT_END
  1
CELLSTYLE_BEGIN
 90
        3
 91
        2
300
_DATA
309
CELLSTYLE_END
  0
ENDSEC
  0
EOF
