  0
SECTION
  2
HEADER
  9
$ACADVER
  1
AC1027
  9
$ACADMAINTVER
 70
    10
  9
$DWGCODEPAGE
  3
ANSI_1252
  9
$LASTSAVEDBY
  1
nlv05872
  9
$REQUIREDVERSIONS
160
                 0
  9
$INSBASE
 10
0.0
 20
0.0
 30
0.0
  9
$EXTMIN
 10
-3.315399330176745
 20
-40.25254121998833
 30
-0.0015258207003583
  9
$EXTMAX
 10
91.70289977261322
 20
39.75234159251738
 30
0.0000000349246037
  9
$LIMMIN
 10
0.0
 20
0.0
  9
$LIMMAX
 10
12.0
 20
9.0
  9
$ORTHOMODE
 70
     0
  9
$REGENMODE
 70
     1
  9
$FILLMODE
 70
     1
  9
$QTEXTMODE
 70
     0
  9
$MIRRTEXT
 70
     0
  9
$LTSCALE
 40
1.0
  9
$ATTMODE
 70
     1
  9
$TEXTSIZE
 40
1.0
  9
$TRACEWID
 40
0.05
  9
$TEXTSTYLE
  7
STANDARD
  9
$CLAYER
  8
0
  9
$CELTYPE
  6
Continuous
  9
$CECOLOR
 62
   256
  9
$CELTSCALE
 40
1.0
  9
$DISPSILH
 70
     0
  9
$DIMSCALE
 40
1.0
  9
$DIMASZ
 40
0.18
  9
$DIMEXO
 40
0.0625
  9
$DIMDLI
 40
0.38
  9
$DIMRND
 40
0.0
  9
$DIMDLE
 40
0.0
  9
$DIMEXE
 40
0.18
  9
$DIMTP
 40
0.0
  9
$DIMTM
 40
0.0
  9
$DIMTXT
 40
0.18
  9
$DIMCEN
 40
0.09
  9
$DIMTSZ
 40
0.0
  9
$DIMTOL
 70
     0
  9
$DIMLIM
 70
     0
  9
$DIMTIH
 70
     1
  9
$DIMTOH
 70
     1
  9
$DIMSE1
 70
     0
  9
$DIMSE2
 70
     0
  9
$DIMTAD
 70
     0
  9
$DIMZIN
 70
     0
  9
$DIMBLK
  1

  9
$DIMASO
 70
     1
  9
$DIMSHO
 70
     1
  9
$DIMPOST
  1

  9
$DIMAPOST
  1

  9
$DIMALT
 70
     0
  9
$DIMALTD
 70
     2
  9
$DIMALTF
 40
25.4
  9
$DIMLFAC
 40
1.0
  9
$DIMTOFL
 70
     0
  9
$DIMTVP
 40
0.0
  9
$DIMTIX
 70
     0
  9
$DIMSOXD
 70
     0
  9
$DIMSAH
 70
     0
  9
$DIMBLK1
  1

  9
$DIMBLK2
  1

  9
$DIMSTYLE
  2
Standard
  9
$DIMCLRD
 70
     0
  9
$DIMCLRE
 70
     0
  9
$DIMCLRT
 70
     0
  9
$DIMTFAC
 40
1.0
  9
$DIMGAP
 40
0.09
  9
$DIMJUST
 70
     0
  9
$DIMSD1
 70
     0
  9
$DIMSD2
 70
     0
  9
$DIMTOLJ
 70
     1
  9
$DIMTZIN
 70
     0
  9
$DIMALTZ
 70
     0
  9
$DIMALTTZ
 70
     0
  9
$DIMUPT
 70
     0
  9
$DIMDEC
 70
     4
  9
$DIMTDEC
 70
     4
  9
$DIMALTU
 70
     2
  9
$DIMALTTD
 70
     2
  9
$DIMTXSTY
  7
STANDARD
  9
$DIMAUNIT
 70
     0
  9
$DIMADEC
 70
     0
  9
$DIMALTRND
 40
0.0
  9
$DIMAZIN
 70
     0
  9
$DIMDSEP
 70
    46
  9
$DIMATFIT
 70
     3
  9
$DIMFRAC
 70
     0
  9
$DIMLDRBLK
  1

  9
$DIMLUNIT
 70
     2
  9
$DIMLWD
 70
    -2
  9
$DIMLWE
 70
    -2
  9
$DIMTMOVE
 70
     0
  9
$DIMFXL
 40
1.0
  9
$DIMFXLON
 70
     0
  9
$DIMJOGANG
 40
0.7853981633974483
  9
$DIMTFILL
 70
     0
  9
$DIMTFILLCLR
 70
     0
  9
$DIMARCSYM
 70
     0
  9
$DIMLTYPE
  6

  9
$DIMLTEX1
  6

  9
$DIMLTEX2
  6

  9
$DIMTXTDIRECTION
 70
     0
  9
$LUNITS
 70
     2
  9
$LUPREC
 70
     4
  9
$SKETCHINC
 40
0.1
  9
$FILLETRAD
 40
0.0
  9
$AUNITS
 70
     0
  9
$AUPREC
 70
     0
  9
$MENU
  1
.
  9
$ELEVATION
 40
0.0
  9
$PELEVATION
 40
0.0
  9
$THICKNESS
 40
0.0
  9
$LIMCHECK
 70
     0
  9
$CHAMFERA
 40
0.0
  9
$CHAMFERB
 40
0.0
  9
$CHAMFERC
 40
0.0
  9
$CHAMFERD
 40
0.0
  9
$SKPOLY
 70
     0
  9
$TDCREATE
 40
2457228.650701400
  9
$TDUCREATE
 40
2457228.567368067
  9
$TDUPDATE
 40
2457228.651025197
  9
$TDUUPDATE
 40
2457228.567691863
  9
$TDINDWG
 40
0.0003238773
  9
$TDUSRTIMER
 40
0.0003238773
  9
$USRTIMER
 70
     1
  9
$ANGBASE
 50
0.0
  9
$ANGDIR
 70
     0
  9
$PDMODE
 70
     0
  9
$PDSIZE
 40
0.0
  9
$PLINEWID
 40
0.0
  9
$SPLFRAME
 70
     0
  9
$SPLINETYPE
 70
     6
  9
$SPLINESEGS
 70
     8
  9
$HANDSEED
  5
4D3
  9
$SURFTAB1
 70
     6
  9
$SURFTAB2
 70
     6
  9
$SURFTYPE
 70
     6
  9
$SURFU
 70
     6
  9
$SURFV
 70
     6
  9
$UCSBASE
  2

  9
$UCSNAME
  2

  9
$UCSORG
 10
0.0
 20
0.0
 30
0.0
  9
$UCSXDIR
 10
1.0
 20
0.0
 30
0.0
  9
$UCSYDIR
 10
0.0
 20
1.0
 30
0.0
  9
$UCSORTHOREF
  2

  9
$UCSORTHOVIEW
 70
     0
  9
$UCSORGTOP
 10
0.0
 20
0.0
 30
0.0
  9
$UCSORGBOTTOM
 10
0.0
 20
0.0
 30
0.0
  9
$UCSORGLEFT
 10
0.0
 20
0.0
 30
0.0
  9
$UCSORGRIGHT
 10
0.0
 20
0.0
 30
0.0
  9
$UCSORGFRONT
 10
0.0
 20
0.0
 30
0.0
  9
$UCSORGBACK
 10
0.0
 20
0.0
 30
0.0
  9
$PUCSBASE
  2

  9
$PUCSNAME
  2

  9
$PUCSORG
 10
0.0
 20
0.0
 30
0.0
  9
$PUCSXDIR
 10
1.0
 20
0.0
 30
0.0
  9
$PUCSYDIR
 10
0.0
 20
1.0
 30
0.0
  9
$PUCSORTHOREF
  2

  9
$PUCSORTHOVIEW
 70
     0
  9
$PUCSORGTOP
 10
0.0
 20
0.0
 30
0.0
  9
$PUCSORGBOTTOM
 10
0.0
 20
0.0
 30
0.0
  9
$PUCSORGLEFT
 10
0.0
 20
0.0
 30
0.0
  9
$PUCSORGRIGHT
 10
0.0
 20
0.0
 30
0.0
  9
$PUCSORGFRONT
 10
0.0
 20
0.0
 30
0.0
  9
$PUCSORGBACK
 10
0.0
 20
0.0
 30
0.0
  9
$USERI1
 70
     0
  9
$USERI2
 70
     0
  9
$USERI3
 70
     0
  9
$USERI4
 70
     0
  9
$USERI5
 70
     0
  9
$USERR1
 40
0.0
  9
$USERR2
 40
0.0
  9
$USERR3
 40
0.0
  9
$USERR4
 40
0.0
  9
$USERR5
 40
0.0
  9
$WORLDVIEW
 70
     1
  9
$SHADEDGE
 70
     3
  9
$SHADEDIF
 70
    70
  9
$TILEMODE
 70
     1
  9
$MAXACTVP
 70
    64
  9
$PINSBASE
 10
0.0
 20
0.0
 30
0.0
  9
$PLIMCHECK
 70
     0
  9
$PEXTMIN
 10
1.000000000000000E+20
 20
1.000000000000000E+20
 30
1.000000000000000E+20
  9
$PEXTMAX
 10
-1.000000000000000E+20
 20
-1.000000000000000E+20
 30
-1.000000000000000E+20
  9
$PLIMMIN
 10
0.0
 20
0.0
  9
$PLIMMAX
 10
12.0
 20
9.0
  9
$UNITMODE
 70
     0
  9
$VISRETAIN
 70
     1
  9
$PLINEGEN
 70
     0
  9
$PSLTSCALE
 70
     1
  9
$TREEDEPTH
 70
  3020
  9
$CMLSTYLE
  2
Standard
  9
$CMLJUST
 70
     0
  9
$CMLSCALE
 40
1.0
  9
$PROXYGRAPHICS
 70
     1
  9
$MEASUREMENT
 70
     0
  9
$CELWEIGHT
370
    -1
  9
$ENDCAPS
280
     0
  9
$JOINSTYLE
280
     0
  9
$LWDISPLAY
290
     0
  9
$INSUNITS
 70
     0
  9
$HYPERLINKBASE
  1

  9
$STYLESHEET
  1

  9
$XEDIT
290
     1
  9
$CEPSNTYPE
380
     0
  9
$PSTYLEMODE
290
     1
  9
$FINGERPRINTGUID
  2
{5ED6E8DB-6E0C-49A3-8B69-3E4600E389F4}
  9
$VERSIONGUID
  2
{375D4989-BAE0-41F0-AEAB-B5B8AE015091}
  9
$EXTNAMES
290
     1
  9
$PSVPSCALE
 40
0.0
  9
$OLESTARTUP
290
     0
  9
$SORTENTS
280
   127
  9
$INDEXCTL
280
     0
  9
$HIDETEXT
280
     0
  9
$XCLIPFRAME
280
     2
  9
$HALOGAP
280
     0
  9
$OBSCOLOR
 70
   257
  9
$OBSLTYPE
280
     0
  9
$INTERSECTIONDISPLAY
280
     0
  9
$INTERSECTIONCOLOR
 70
   257
  9
$DIMASSOC
280
     1
  9
$PROJECTNAME
  1

  9
$CAMERADISPLAY
290
     0
  9
$LENSLENGTH
 40
50.0
  9
$CAMERAHEIGHT
 40
0.0
  9
$STEPSPERSEC
 40
2.0
  9
$STEPSIZE
 40
6.0
  9
$3DDWFPREC
 40
2.0
  9
$PSOLWIDTH
 40
0.25
  9
$PSOLHEIGHT
 40
4.0
  9
$LOFTANG1
 40
1.570796326794896
  9
$LOFTANG2
 40
1.570796326794896
  9
$LOFTMAG1
 40
0.0
  9
$LOFTMAG2
 40
0.0
  9
$LOFTPARAM
 70
     7
  9
$LOFTNORMALS
280
     1
  9
$LATITUDE
 40
37.795
  9
$LONGITUDE
 40
-122.394
  9
$NORTHDIRECTION
 40
0.0
  9
$TIMEZONE
 70
 -8000
  9
$LIGHTGLYPHDISPLAY
280
     1
  9
$TILEMODELIGHTSYNCH
280
     1
  9
$CMATERIAL
347
11
  9
$SOLIDHIST
280
     0
  9
$SHOWHIST
280
     1
  9
$DWFFRAME
280
     2
  9
$DGNFRAME
280
     0
  9
$REALWORLDSCALE
290
     1
  9
$INTERFERECOLOR
 62
     1
  9
$INTERFEREOBJVS
345
33
  9
$INTERFEREVPVS
346
30
  9
$CSHADOW
280
     0
  9
$SHADOWPLANELOCATION
 40
0.0
  0
ENDSEC
  0
SECTION
  2
CLASSES
  0
CLASS
  1
ACDBDICTIONARYWDFLT
  2
AcDbDictionaryWithDefault
  3
ObjectDBX Classes
 90
        0
 91
        1
280
     0
281
     0
  0
CLASS
  1
MATERIAL
  2
AcDbMaterial
  3
ObjectDBX Classes
 90
     1153
 91
        3
280
     0
281
     0
  0
CLASS
  1
VISUALSTYLE
  2
AcDbVisualStyle
  3
ObjectDBX Classes
 90
     4095
 91
       24
280
     0
281
     0
  0
CLASS
  1
SCALE
  2
AcDbScale
  3
ObjectDBX Classes
 90
     1153
 91
       17
280
     0
281
     0
  0
CLASS
  1
TABLESTYLE
  2
AcDbTableStyle
  3
ObjectDBX Classes
 90
     4095
 91
        1
280
     0
281
     0
  0
CLASS
  1
MLEADERSTYLE
  2
AcDbMLeaderStyle
  3
ACDB_MLEADERSTYLE_CLASS
 90
     4095
 91
        1
280
     0
281
     0
  0
CLASS
  1
ACDBSECTIONVIEWSTYLE
  2
AcDbSectionViewStyle
  3
ObjectDBX Classes
 90
     1025
 91
        1
280
     0
281
     0
  0
CLASS
  1
ACDBDETAILVIEWSTYLE
  2
AcDbDetailViewStyle
  3
ObjectDBX Classes
 90
     1025
 91
        1
280
     0
281
     0
  0
CLASS
  1
DICTIONARYVAR
  2
AcDbDictionaryVar
  3
ObjectDBX Classes
 90
        0
 91
        9
280
     0
281
     0
  0
CLASS
  1
CELLSTYLEMAP
  2
AcDbCellStyleMap
  3
ObjectDBX Classes
 90
     1152
 91
        1
280
     0
281
     0
  0
ENDSEC
  0
SECTION
  2
TABLES
  0
TABLE
  2
VPORT
  5
8
330
0
100
AcDbSymbolTable
 70
     1
  0
VPORT
  5
79
330
8
100
AcDbSymbolTableRecord
100
AcDbViewportTableRecord
  2
*Active
 70
     0
 10
0.0
 20
0.0
 11
1.0
 21
1.0
 12
44.19375022121823
 22
-0.2500998137354742
 13
0.0
 23
0.0
 14
1.0
 24
1.0
 15
0.0
 25
0.0
 16
0.0
 26
0.0
 36
1.0
 17
0.0
 27
0.0
 37
0.0
 40
80.89713057621395
 41
1.897579143389199
 42
50.0
 43
0.0
 44
0.0
 50
0.0
 51
0.0
 71
     0
 72
   100
 73
     1
 74
     1
 75
     0
 76
     0
 77
     0
 78
     0
281
     0
 65
     1
110
0.0
120
0.0
130
0.0
111
1.0
121
0.0
131
0.0
112
0.0
122
1.0
132
0.0
 79
     0
146
0.0
348
2F
 60
     3
 61
     5
292
     1
282
     1
141
0.0
142
0.0
 63
   250
421
  3355443
1001
ACAD_NAV_VCDISPLAY
1070
     3
  0
ENDTAB
  0
TABLE
  2
LTYPE
  5
5
330
0
100
AcDbSymbolTable
 70
     3
  0
LTYPE
  5
5A
330
5
100
AcDbSymbolTableRecord
100
AcDbLinetypeTableRecord
  2
ByBlock
 70
     0
  3

 72
    65
 73
     0
 40
0.0
  0
LTYPE
  5
5B
330
5
100
AcDbSymbolTableRecord
100
AcDbLinetypeTableRecord
  2
ByLayer
 70
     0
  3

 72
    65
 73
     0
 40
0.0
  0
LTYPE
  5
5C
330
5
100
AcDbSymbolTableRecord
100
AcDbLinetypeTableRecord
  2
Continuous
 70
     0
  3
Solid line
 72
    65
 73
     0
 40
0.0
  0
LTYPE
  5
68
330
5
100
AcDbSymbolTableRecord
100
AcDbLinetypeTableRecord
  2
PHANTOM2
 70
     0
  3
Phantom (.5x) ___ _ _ ___ _ _ ___ _ _ ___ _ _
 72
    65
 73
     6
 40
1.25
 49
0.625
 74
     0
 49
-0.125
 74
     0
 49
0.125
 74
     0
 49
-0.125
 74
     0
 49
0.125
 74
     0
 49
-0.125
 74
     0
  0
ENDTAB
  0
TABLE
  2
LAYER
  5
2
330
0
100
AcDbSymbolTable
 70
     5
  0
LAYER
  5
54
102
{ACAD_XDICTIONARY
360
4BB
102
}
330
2
100
AcDbSymbolTableRecord
100
AcDbLayerTableRecord
  2
0
 70
     0
 62
    15
  6
Continuous
370
    -3
390
F
347
21
348
0
  0
LAYER
  5
74
102
{ACAD_XDICTIONARY
360
4BD
102
}
330
2
100
AcDbSymbolTableRecord
100
AcDbLayerTableRecord
  2
BLF571_BB_OUTPUT_PCB_REV2
 70
     0
 62
    14
  6
Continuous
370
    -3
390
F
347
21
348
0
  0
LAYER
  5
75
102
{ACAD_XDICTIONARY
360
4BF
102
}
330
2
100
AcDbSymbolTableRecord
100
AcDbLayerTableRecord
  2
COND
 70
     0
 62
    13
  6
Continuous
370
    -3
390
F
347
21
348
0
  0
LAYER
  5
76
102
{ACAD_XDICTIONARY
360
4C1
102
}
330
2
100
AcDbSymbolTableRecord
100
AcDbLayerTableRecord
  2
HOLE
 70
     0
 62
    12
  6
Continuous
370
    -3
390
F
347
21
348
0
  0
LAYER
  5
77
102
{ACAD_XDICTIONARY
360
4C3
102
}
330
2
100
AcDbSymbolTableRecord
100
AcDbLayerTableRecord
  2
BOUND
 70
     0
 62
    11
  6
Continuous
370
    -3
390
F
347
21
348
0
  0
ENDTAB
  0
TABLE
  2
STYLE
  5
3
330
0
100
AcDbSymbolTable
 70
     2
  0
STYLE
  5
55
330
3
100
AcDbSymbolTableRecord
100
AcDbTextStyleTableRecord
  2
STANDARD
 70
     0
 40
1.0
 41
1.0
 50
0.0
 71
     0
 42
1.0
  3
txt
  4

  0
STYLE
  5
59
330
3
100
AcDbSymbolTableRecord
100
AcDbTextStyleTableRecord
  2
Annotative
 70
     0
 40
0.0
 41
1.0
 50
0.0
 71
     0
 42
0.2
  3
txt
  4

1001
AcadAnnotative
1000
AnnotativeData
1002
{
1070
     1
1070
     1
1002
}
  0
ENDTAB
  0
TABLE
  2
VIEW
  5
6
330
0
100
AcDbSymbolTable
 70
     0
  0
ENDTAB
  0
TABLE
  2
UCS
  5
7
330
0
100
AcDbSymbolTable
 70
     0
  0
ENDTAB
  0
TABLE
  2
APPID
  5
9
330
0
100
AcDbSymbolTable
 70
     3
  0
APPID
  5
56
330
9
100
AcDbSymbolTableRecord
100
AcDbRegAppTableRecord
  2
ACAD
 70
     0
  0
APPID
  5
5D
330
9
100
AcDbSymbolTableRecord
100
AcDbRegAppTableRecord
  2
AcadAnnotative
 70
     0
  0
APPID
  5
4CF
330
9
100
AcDbSymbolTableRecord
100
AcDbRegAppTableRecord
  2
ACAD_NAV_VCDISPLAY
 70
     0
  0
ENDTAB
  0
TABLE
  2
DIMSTYLE
  5
A
330
0
100
AcDbSymbolTable
 70
     3
100
AcDbDimStyleTable
 71
     0
  0
DIMSTYLE
105
57
330
A
100
AcDbSymbolTableRecord
100
AcDbDimStyleTableRecord
  2
Standard
 70
     0
340
55
  0
DIMSTYLE
105
58
330
A
100
AcDbSymbolTableRecord
100
AcDbDimStyleTableRecord
  2
Annotative
 70
     0
340
55
1001
AcadAnnotative
1000
AnnotativeData
1002
{
1070
     1
1070
     1
1002
}
  0
ENDTAB
  0
TABLE
  2
BLOCK_RECORD
  5
1
330
0
100
AcDbSymbolTable
 70
     1
  0
BLOCK_RECORD
  5
70
330
1
100
AcDbSymbolTableRecord
100
AcDbBlockTableRecord
  2
*Model_Space
340
73
 70
     0
280
     1
281
     0
  0
BLOCK_RECORD
  5
6C
330
1
100
AcDbSymbolTableRecord
100
AcDbBlockTableRecord
  2
*Paper_Space
340
6F
 70
     0
280
     1
281
     0
  0
ENDTAB
  0
ENDSEC
  0
SECTION
  2
BLOCKS
  0
BLOCK
  5
71
330
70
100
AcDbEntity
  8
0
100
AcDbBlockBegin
  2
*Model_Space
 70
     0
 10
0.0
 20
0.0
 30
0.0
  3
*Model_Space
  1

  0
ENDBLK
  5
72
330
70
100
AcDbEntity
  8
0
100
AcDbBlockEnd
  0
BLOCK
  5
6D
330
6C
100
AcDbEntity
 67
     1
  8
0
100
AcDbBlockBegin
  2
*Paper_Space
 70
     0
 10
0.0
 20
0.0
 30
0.0
  3
*Paper_Space
  1

  0
ENDBLK
  5
6E
330
6C
100
AcDbEntity
 67
     1
  8
0
100
AcDbBlockEnd
  0
ENDSEC
  0
SECTION
  2
ENTITIES
  0
LWPOLYLINE
  5
7A
330
70
100
AcDbEntity
  8
COND
100
AcDbPolyline
 90
       38
 70
     1
 43
0.0
 10
91.68750000000001
 20
39.7499
 10
91.68750000000001
 20
7.9
 10
82.63769999999999
 20
7.9
 10
82.63769999999999
 20
1.9
 10
55.2
 20
1.9
 10
55.2
 20
7.9
 10
43.7
 20
7.9
 10
43.7
 20
1.9
 10
18.7
 20
1.9
 10
18.7
 20
4.5
 10
8.199999999999999
 20
4.5
 10
8.199999999999999
 20
15.7
 10
3.1875
 20
15.7
 10
3.1875
 20
25.65
 10
3.190199999999999
 20
26.19
 10
3.190199999999999
 20
29.69
 10
3.203199999999999
 20
29.995
 10
3.243199999999999
 20
30.298
 10
3.3092
 20
30.596
 10
3.401199999999999
 20
30.887
 10
3.5182
 20
31.169
 10
3.659199999999999
 20
31.44
 10
3.823199999999999
 20
31.698
 10
4.009199999999999
 20
31.94
 10
4.2152
 20
32.165
 10
4.440199999999999
 20
32.371
 10
4.682199999999999
 20
32.557
 10
4.940199999999999
 20
32.721
 10
5.211199999999999
 20
32.862
 10
5.493199999999999
 20
32.979
 10
5.7842
 20
33.071
 10
6.0822
 20
33.137
 10
6.3852
 20
33.177
 10
6.690199999999999
 20
33.19
 10
45.18749999999999
 20
33.19
 10
45.18749999999999
 20
23.45
 10
70.1875
 20
23.45
 10
70.1875
 20
39.7499
  0
LWPOLYLINE
  5
A2
330
70
100
AcDbEntity
  8
COND
100
AcDbPolyline
 90
       16
 70
     1
 43
0.0
 10
2.299999999999999
 20
6.7
 10
2.299999999999999
 20
3.7
 10
4.7
 20
3.7
 10
4.7
 20
0.9
 10
8.199999999999999
 20
0.9
 10
8.199999999999999
 20
2.2
 10
11.2
 20
2.2
 10
11.2
 20
-3.7
 10
8.199999999999999
 20
-3.7
 10
8.199999999999999
 20
-1.5
 10
4.7
 20
-1.5
 10
4.7
 20
-4.299999999999999
 10
-3.299999999999999
 20
-4.299999999999999
 10
-3.299999999999999
 20
3.7
 10
-0.3
 20
3.7
 10
-0.3
 20
6.7
  0
LWPOLYLINE
  5
B4
330
70
100
AcDbEntity
  8
COND
100
AcDbPolyline
 90
       25
 70
     1
 43
0.0
 10
59.3968
 20
-36.2865
 10
59.44539999999999
 20
-36.1997
 10
59.3968
 20
-36.1346
 10
59.31589999999999
 20
-36.0863
 10
59.2079
 20
-36.0622
 10
59.1593
 20
-36.0622
 10
59.0514
 20
-36.0863
 10
58.9704
 20
-36.1346
 10
58.9165
 20
-36.2069
 10
58.8031
 20
-36.2069
 10
58.8031
 20
-36.09360000000001
 10
58.8571
 20
-36.0212
 10
58.9381
 20
-35.973
 10
59.04600000000001
 20
-35.9489
 10
59.3213
 20
-35.9489
 10
59.4292
 20
-35.973
 10
59.51019999999999
 20
-36.0212
 10
59.5641
 20
-36.09360000000001
 10
59.5641
 20
-36.3034
 10
59.51019999999999
 20
-36.3998
 10
59.0238
 20
-36.9134
 10
59.5641
 20
-36.9134
 10
59.5641
 20
-37.0268
 10
58.8031
 20
-37.0268
 10
58.8031
 20
-36.9134
  0
LWPOLYLINE
  5
CF
330
70
100
AcDbEntity
  8
COND
100
AcDbPolyline
 90
       25
 70
     1
 43
0.0
 10
38.2659
 20
-36.3164
 10
38.3145
 20
-36.2296
 10
38.2659
 20
-36.1645
 10
38.185
 20
-36.1162
 10
38.077
 20
-36.0921
 10
38.0284
 20
-36.0921
 10
37.9205
 20
-36.1162
 10
37.8395
 20
-36.1645
 10
37.78560000000001
 20
-36.2368
 10
37.6722
 20
-36.2368
 10
37.6722
 20
-36.1235
 10
37.7262
 20
-36.0511
 10
37.8072
 20
-36.0029
 10
37.91510000000001
 20
-35.9788
 10
38.1904
 20
-35.9788
 10
38.2983
 20
-36.0029
 10
38.3793
 20
-36.0511
 10
38.4332
 20
-36.1235
 10
38.4332
 20
-36.3333
 10
38.3793
 20
-36.4297
 10
37.8929
 20
-36.9433
 10
38.4332
 20
-36.9433
 10
38.4332
 20
-37.0567
 10
37.6722
 20
-37.0567
 10
37.6722
 20
-36.9433
  0
LWPOLYLINE
  5
EA
330
70
100
AcDbEntity
  8
COND
100
AcDbPolyline
 90
       35
 70
     1
 43
0.0
 10
82.6346
 20
-2.450099999999999
 10
82.6346
 20
-8.4501
 10
91.69999999999999
 20
-8.4501
 10
91.69999999999999
 20
-33.7401
 10
6.7027
 20
-33.7401
 10
6.3977
 20
-33.7271
 10
6.094699999999999
 20
-33.6871
 10
5.7967
 20
-33.6211
 10
5.5057
 20
-33.5291
 10
5.2237
 20
-33.4121
 10
4.9527
 20
-33.2711
 10
4.6947
 20
-33.1071
 10
4.4527
 20
-32.9211
 10
4.227699999999999
 20
-32.7151
 10
4.0217
 20
-32.4901
 10
3.8357
 20
-32.2481
 10
3.671699999999999
 20
-31.9901
 10
3.530699999999999
 20
-31.7191
 10
3.413699999999999
 20
-31.4371
 10
3.321699999999999
 20
-31.1461
 10
3.2557
 20
-30.8481
 10
3.2157
 20
-30.5451
 10
3.2027
 20
-30.2401
 10
3.2027
 20
-26.7401
 10
3.2
 20
-26.2001
 10
3.2
 20
-8.5
 10
8.199999999999999
 20
-8.5
 10
8.199999999999999
 20
-5.099999999999999
 10
11.2
 20
-5.099999999999999
 10
18.707
 20
-5.1054
 10
18.7125
 20
-2.450099999999999
 10
43.71249999999999
 20
-2.450099999999999
 10
43.71249999999999
 20
-8.4501
 10
55.2125
 20
-8.4501
 10
55.2125
 20
-2.450099999999999
  0
LWPOLYLINE
  5
10F
330
70
100
AcDbEntity
  8
COND
100
AcDbPolyline
 90
       28
 70
     1
 43
0.0
 10
52.0656
 20
-36.654
 10
52.0926
 20
-36.7504
 10
52.1195
 20
-36.8228
 10
52.17349999999999
 20
-36.871
 10
52.2545
 20
-36.9192
 10
52.3624
 20
-36.9433
 10
52.7132
 20
-36.9433
 10
52.7132
 20
-37.0567
 10
52.2491
 20
-37.0567
 10
52.1411
 20
-37.0325
 10
52.0602
 20
-36.9843
 10
52.0062
 20
-36.9361
 10
51.97919999999999
 20
-36.8638
 10
51.95219999999999
 20
-36.7673
 10
51.95219999999999
 20
-36.2681
 10
51.97919999999999
 20
-36.1717
 10
52.0062
 20
-36.0994
 10
52.0602
 20
-36.0511
 10
52.1411
 20
-36.0029
 10
52.2491
 20
-35.9788
 10
52.7132
 20
-35.9788
 10
52.7132
 20
-36.0921
 10
52.3624
 20
-36.0921
 10
52.2545
 20
-36.1162
 10
52.17349999999999
 20
-36.1645
 10
52.1195
 20
-36.2127
 10
52.0926
 20
-36.285
 10
52.0656
 20
-36.3815
  0
LWPOLYLINE
  5
12D
330
70
100
AcDbEntity
  8
COND
100
AcDbPolyline
 90
        9
 70
     1
 43
0.0
 10
57.43269999999999
 20
-36.7987
 10
57.7539
 20
-35.9788
 10
57.86719999999999
 20
-35.9788
 10
57.86719999999999
 20
-36.0921
 10
57.48940000000001
 20
-37.0567
 10
57.3761
 20
-37.0567
 10
56.9983
 20
-36.0921
 10
56.9983
 20
-35.9788
 10
57.1116
 20
-35.9788
  0
LWPOLYLINE
  5
138
330
70
100
AcDbEntity
  8
COND
100
AcDbPolyline
 90
       12
 70
     1
 43
0.0
 10
56.8472
 20
-36.0921
 10
56.0916
 20
-36.0921
 10
56.0916
 20
-36.4128
 10
56.7393
 20
-36.4128
 10
56.7393
 20
-36.52620000000001
 10
56.0916
 20
-36.52620000000001
 10
56.0916
 20
-36.9433
 10
56.8472
 20
-36.9433
 10
56.8472
 20
-37.0567
 10
55.9783
 20
-37.0567
 10
55.9783
 20
-35.9788
 10
56.8472
 20
-35.9788
  0
LWPOLYLINE
  5
146
330
70
100
AcDbEntity
  8
COND
100
AcDbPolyline
 90
       33
 70
     1
 43
0.0
 10
55.471
 20
-35.9788
 10
55.471
 20
-36.0921
 10
55.07159999999999
 20
-36.0921
 10
55.07159999999999
 20
-36.4611
 10
55.471
 20
-36.4611
 10
55.5789
 20
-36.4369
 10
55.6599
 20
-36.3887
 10
55.6869
 20
-36.3405
 10
55.7107
 20
-36.2766
 10
55.6869
 20
-36.2127
 10
55.6599
 20
-36.1645
 10
55.5789
 20
-36.1162
 10
55.471
 20
-36.0921
 10
55.471
 20
-35.9788
 10
55.5843
 20
-35.9788
 10
55.69230000000001
 20
-36.0029
 10
55.7732
 20
-36.0511
 10
55.8002
 20
-36.0994
 10
55.8272
 20
-36.1717
 10
55.8272
 20
-36.3815
 10
55.8002
 20
-36.4538
 10
55.7732
 20
-36.502
 10
55.69230000000001
 20
-36.5503
 10
55.5843
 20
-36.5744
 10
55.5795
 20
-36.5744
 10
55.8272
 20
-36.9433
 10
55.8272
 20
-37.0567
 10
55.7139
 20
-37.0567
 10
55.39
 20
-36.5744
 10
55.07159999999999
 20
-36.5744
 10
55.07159999999999
 20
-37.0567
 10
54.9583
 20
-37.0567
 10
54.9583
 20
-35.9788
  0
LWPOLYLINE
  5
169
330
70
100
AcDbEntity
  8
COND
100
AcDbPolyline
 90
       41
 70
     1
 43
0.0
 10
53.6523
 20
-36.4611
 10
53.7062
 20
-36.50930000000001
 10
53.7602
 20
-36.6299
 10
53.7602
 20
-36.8638
 10
53.7062
 20
-36.9602
 10
53.6523
 20
-37.0084
 10
53.5443
 20
-37.0567
 10
52.9453
 20
-37.0567
 10
52.9453
 20
-35.9788
 10
53.35
 20
-35.9788
 10
53.35
 20
-36.0921
 10
53.0586
 20
-36.0921
 10
53.0586
 20
-36.4128
 10
53.37699999999999
 20
-36.4128
 10
53.431
 20
-36.3968
 10
53.431
 20
-36.52620000000001
 10
53.0586
 20
-36.52620000000001
 10
53.0586
 20
-36.9433
 10
53.431
 20
-36.9433
 10
53.53889999999999
 20
-36.8951
 10
53.5929
 20
-36.8469
 10
53.6469
 20
-36.7504
 10
53.6469
 20
-36.7432
 10
53.5929
 20
-36.6226
 10
53.53889999999999
 20
-36.5744
 10
53.431
 20
-36.52620000000001
 10
53.431
 20
-36.3968
 10
53.458
 20
-36.3887
 10
53.53889999999999
 20
-36.3405
 10
53.5853
 20
-36.2577
 10
53.5659
 20
-36.1886
 10
53.485
 20
-36.1162
 10
53.35
 20
-36.0921
 10
53.35
 20
-35.9788
 10
53.4634
 20
-35.9788
 10
53.5983
 20
-36.0029
 10
53.6793
 20
-36.0752
 10
53.7062
 20
-36.1717
 10
53.7062
 20
-36.3574
 10
53.6523
 20
-36.4538
 10
53.6453
 20
-36.458
  0
LWPOLYLINE
  5
194
330
70
100
AcDbEntity
  8
COND
100
AcDbPolyline
 90
       28
 70
     1
 43
0.0
 10
50.9916
 20
-37.0567
 10
50.8783
 20
-37.0567
 10
50.8783
 20
-35.9788
 10
51.391
 20
-35.9788
 10
51.391
 20
-36.0921
 10
50.9916
 20
-36.0921
 10
50.9916
 20
-36.4611
 10
51.391
 20
-36.4611
 10
51.4989
 20
-36.4369
 10
51.5799
 20
-36.3887
 10
51.6069
 20
-36.3405
 10
51.6307
 20
-36.2766
 10
51.6069
 20
-36.2127
 10
51.5799
 20
-36.1645
 10
51.4989
 20
-36.1162
 10
51.391
 20
-36.0921
 10
51.391
 20
-35.9788
 10
51.5043
 20
-35.9788
 10
51.61229999999999
 20
-36.0029
 10
51.69319999999999
 20
-36.0511
 10
51.72019999999999
 20
-36.0994
 10
51.7472
 20
-36.1717
 10
51.7472
 20
-36.3815
 10
51.72019999999999
 20
-36.4538
 10
51.69319999999999
 20
-36.502
 10
51.61229999999999
 20
-36.5503
 10
51.5043
 20
-36.5744
 10
50.9916
 20
-36.5744
  0
LWPOLYLINE
  5
1B2
330
70
100
AcDbEntity
  8
COND
100
AcDbPolyline
 90
        8
 70
     1
 43
0.0
 10
48.83829999999999
 20
-35.9788
 10
49.7072
 20
-35.9788
 10
49.7072
 20
-36.0921
 10
49.3294
 20
-36.0921
 10
49.3294
 20
-37.0567
 10
49.2161
 20
-37.0567
 10
49.2161
 20
-36.0921
 10
48.83829999999999
 20
-36.0921
  0
LWPOLYLINE
  5
1BC
330
70
100
AcDbEntity
  8
COND
100
AcDbPolyline
 90
       28
 70
     1
 43
0.0
 10
48.0342
 20
-37.0325
 10
47.9532
 20
-36.9843
 10
47.8992
 20
-36.9361
 10
47.8453
 20
-36.8638
 10
47.8183
 20
-36.7673
 10
47.8183
 20
-35.9788
 10
47.9316
 20
-35.9788
 10
47.9316
 20
-36.654
 10
47.9586
 20
-36.7504
 10
48.0126
 20
-36.8228
 10
48.0665
 20
-36.871
 10
48.1475
 20
-36.9192
 10
48.2284
 20
-36.9433
 10
48.277
 20
-36.9433
 10
48.358
 20
-36.9192
 10
48.4389
 20
-36.871
 10
48.49289999999999
 20
-36.8228
 10
48.5469
 20
-36.7504
 10
48.5739
 20
-36.654
 10
48.5739
 20
-35.9788
 10
48.68719999999999
 20
-35.9788
 10
48.68719999999999
 20
-36.7673
 10
48.6602
 20
-36.8638
 10
48.6062
 20
-36.9361
 10
48.5523
 20
-36.9843
 10
48.47129999999999
 20
-37.0325
 10
48.3904
 20
-37.0567
 10
48.1151
 20
-37.0567
  0
LWPOLYLINE
  5
1DA
330
70
100
AcDbEntity
  8
COND
100
AcDbPolyline
 90
       28
 70
     1
 43
0.0
 10
46.91159999999999
 20
-37.0567
 10
46.79829999999999
 20
-37.0567
 10
46.79829999999999
 20
-35.9788
 10
47.311
 20
-35.9788
 10
47.311
 20
-36.0921
 10
46.91159999999999
 20
-36.0921
 10
46.91159999999999
 20
-36.4611
 10
47.311
 20
-36.4611
 10
47.4189
 20
-36.4369
 10
47.49989999999999
 20
-36.3887
 10
47.5269
 20
-36.3405
 10
47.55069999999999
 20
-36.2766
 10
47.5269
 20
-36.2127
 10
47.49989999999999
 20
-36.1645
 10
47.4189
 20
-36.1162
 10
47.311
 20
-36.0921
 10
47.311
 20
-35.9788
 10
47.4243
 20
-35.9788
 10
47.5323
 20
-36.0029
 10
47.6132
 20
-36.0511
 10
47.6402
 20
-36.0994
 10
47.6672
 20
-36.1717
 10
47.6672
 20
-36.3815
 10
47.6402
 20
-36.4538
 10
47.6132
 20
-36.502
 10
47.5323
 20
-36.5503
 10
47.4243
 20
-36.5744
 10
46.91159999999999
 20
-36.5744
  0
LWPOLYLINE
  5
1F8
330
70
100
AcDbEntity
  8
COND
100
AcDbPolyline
 90
        8
 70
     1
 43
0.0
 10
45.7783
 20
-35.9788
 10
46.64719999999999
 20
-35.9788
 10
46.64719999999999
 20
-36.0921
 10
46.2694
 20
-36.0921
 10
46.2694
 20
-37.0567
 10
46.1561
 20
-37.0567
 10
46.1561
 20
-36.0921
 10
45.7783
 20
-36.0921
  0
LWPOLYLINE
  5
202
330
70
100
AcDbEntity
  8
COND
100
AcDbPolyline
 90
       28
 70
     1
 43
0.0
 10
44.9742
 20
-37.0325
 10
44.8932
 20
-36.9843
 10
44.8392
 20
-36.9361
 10
44.7853
 20
-36.8638
 10
44.7583
 20
-36.7673
 10
44.7583
 20
-35.9788
 10
44.8716
 20
-35.9788
 10
44.8716
 20
-36.654
 10
44.8986
 20
-36.7504
 10
44.9526
 20
-36.8228
 10
45.0065
 20
-36.871
 10
45.0875
 20
-36.9192
 10
45.1684
 20
-36.9433
 10
45.217
 20
-36.9433
 10
45.298
 20
-36.9192
 10
45.37889999999999
 20
-36.871
 10
45.43289999999999
 20
-36.8228
 10
45.48689999999999
 20
-36.7504
 10
45.5139
 20
-36.654
 10
45.5139
 20
-35.9788
 10
45.6272
 20
-35.9788
 10
45.6272
 20
-36.7673
 10
45.6002
 20
-36.8638
 10
45.54619999999999
 20
-36.9361
 10
45.4923
 20
-36.9843
 10
45.41129999999999
 20
-37.0325
 10
45.33039999999999
 20
-37.0567
 10
45.0551
 20
-37.0567
  0
LWPOLYLINE
  5
220
330
70
100
AcDbEntity
  8
COND
100
AcDbPolyline
 90
       51
 70
     1
 43
0.0
 10
44.03509999999999
 20
-37.0567
 10
43.9542
 20
-37.0325
 10
43.87319999999999
 20
-36.9843
 10
43.8192
 20
-36.9361
 10
43.7653
 20
-36.8638
 10
43.7383
 20
-36.7673
 10
43.7383
 20
-36.2681
 10
43.7653
 20
-36.1717
 10
43.8192
 20
-36.0994
 10
43.87319999999999
 20
-36.0511
 10
43.9542
 20
-36.0029
 10
44.03509999999999
 20
-35.9788
 10
44.19699999999999
 20
-35.9788
 10
44.19699999999999
 20
-36.0921
 10
44.1484
 20
-36.0921
 10
44.0675
 20
-36.1162
 10
43.98649999999999
 20
-36.1645
 10
43.9326
 20
-36.2127
 10
43.87859999999999
 20
-36.285
 10
43.85159999999999
 20
-36.3815
 10
43.85159999999999
 20
-36.654
 10
43.87859999999999
 20
-36.7504
 10
43.9326
 20
-36.8228
 10
43.98649999999999
 20
-36.871
 10
44.0675
 20
-36.9192
 10
44.1484
 20
-36.9433
 10
44.19699999999999
 20
-36.9433
 10
44.278
 20
-36.9192
 10
44.35889999999999
 20
-36.871
 10
44.4129
 20
-36.8228
 10
44.4669
 20
-36.7504
 10
44.4939
 20
-36.654
 10
44.4939
 20
-36.3815
 10
44.4669
 20
-36.285
 10
44.4129
 20
-36.2127
 10
44.35889999999999
 20
-36.1645
 10
44.278
 20
-36.1162
 10
44.19699999999999
 20
-36.0921
 10
44.19699999999999
 20
-35.9788
 10
44.3104
 20
-35.9788
 10
44.3913
 20
-36.0029
 10
44.4723
 20
-36.0511
 10
44.5262
 20
-36.0994
 10
44.5802
 20
-36.1717
 10
44.6072
 20
-36.2681
 10
44.6072
 20
-36.7673
 10
44.5802
 20
-36.8638
 10
44.5262
 20
-36.9361
 10
44.4723
 20
-36.9843
 10
44.3913
 20
-37.0325
 10
44.3104
 20
-37.0567
  0
LWPOLYLINE
  5
255
330
70
100
AcDbEntity
  8
COND
100
AcDbPolyline
 90
       10
 70
     1
 43
0.0
 10
41.6983
 20
-35.9788
 10
42.5672
 20
-35.9788
 10
42.5672
 20
-36.0921
 10
41.90039999999999
 20
-36.9433
 10
42.5672
 20
-36.9433
 10
42.5672
 20
-37.0567
 10
41.6983
 20
-37.0567
 10
41.6983
 20
-36.9433
 10
42.36509999999999
 20
-36.0921
 10
41.6983
 20
-36.0921
  0
LWPOLYLINE
  5
261
330
70
100
AcDbEntity
  8
COND
100
AcDbPolyline
 90
       12
 70
     1
 43
0.0
 10
41.4339
 20
-37.0567
 10
41.4339
 20
-36.52620000000001
 10
40.7916
 20
-36.52620000000001
 10
40.7916
 20
-37.0567
 10
40.67829999999999
 20
-37.0567
 10
40.67829999999999
 20
-35.9788
 10
40.7916
 20
-35.9788
 10
40.7916
 20
-36.4128
 10
41.4339
 20
-36.4128
 10
41.4339
 20
-35.9788
 10
41.5472
 20
-35.9788
 10
41.5472
 20
-37.0567
  0
LWPOLYLINE
  5
26F
330
70
100
AcDbEntity
  8
COND
100
AcDbPolyline
 90
       13
 70
     1
 43
0.0
 10
39.7716
 20
-37.0567
 10
39.6583
 20
-37.0567
 10
39.6583
 20
-35.9788
 10
39.7716
 20
-35.9788
 10
40.09269999999999
 20
-36.4297
 10
40.41389999999999
 20
-35.9788
 10
40.52719999999999
 20
-35.9788
 10
40.52719999999999
 20
-37.0567
 10
40.41389999999999
 20
-37.0567
 10
40.41389999999999
 20
-36.2513
 10
40.1494
 20
-36.6226
 10
40.0361
 20
-36.6226
 10
39.7716
 20
-36.2513
  0
LWPOLYLINE
  5
27E
330
70
100
AcDbEntity
  8
COND
100
AcDbPolyline
 90
       26
 70
     1
 43
0.0
 10
39.232
 20
-36.502
 10
39.097
 20
-36.4779
 10
38.6922
 20
-36.4779
 10
38.6922
 20
-35.9788
 10
39.3993
 20
-35.9788
 10
39.3993
 20
-36.0921
 10
38.8056
 20
-36.0921
 10
38.8056
 20
-36.3646
 10
39.2104
 20
-36.3646
 10
39.3453
 20
-36.3887
 10
39.4262
 20
-36.4611
 10
39.4532
 20
-36.5575
 10
39.4532
 20
-36.8155
 10
39.4262
 20
-36.912
 10
39.3723
 20
-36.9843
 10
39.2913
 20
-37.0325
 10
39.2104
 20
-37.0567
 10
38.6922
 20
-37.0567
 10
38.6922
 20
-36.9433
 10
39.097
 20
-36.9433
 10
39.17800000000001
 20
-36.9192
 10
39.2589
 20
-36.871
 10
39.3129
 20
-36.7987
 10
39.3399
 20
-36.7022
 10
39.3399
 20
-36.6708
 10
39.3129
 20
-36.5744
  0
LWPOLYLINE
  5
29A
330
70
100
AcDbEntity
  8
COND
100
AcDbPolyline
 90
       25
 70
     1
 43
0.0
 10
37.2459
 20
-36.3164
 10
37.2945
 20
-36.2296
 10
37.2459
 20
-36.1645
 10
37.165
 20
-36.1162
 10
37.057
 20
-36.0921
 10
37.0084
 20
-36.0921
 10
36.9005
 20
-36.1162
 10
36.8195
 20
-36.1645
 10
36.7656
 20
-36.2368
 10
36.6522
 20
-36.2368
 10
36.6522
 20
-36.1235
 10
36.7062
 20
-36.0511
 10
36.7872
 20
-36.0029
 10
36.8951
 20
-35.9788
 10
37.1704
 20
-35.9788
 10
37.2783
 20
-36.0029
 10
37.3593
 20
-36.0511
 10
37.4132
 20
-36.1235
 10
37.4132
 20
-36.3333
 10
37.3593
 20
-36.4297
 10
36.8729
 20
-36.9433
 10
37.4132
 20
-36.9433
 10
37.4132
 20
-37.0567
 10
36.6522
 20
-37.0567
 10
36.6522
 20
-36.9433
  0
LWPOLYLINE
  5
2B5
330
70
100
AcDbEntity
  8
COND
100
AcDbPolyline
 90
        8
 70
     1
 43
0.0
 10
34.8875
 20
-36.3815
 10
34.7742
 20
-36.3815
 10
34.7742
 20
-36.2681
 10
35.098
 20
-35.9788
 10
35.2113
 20
-35.9788
 10
35.2113
 20
-37.0567
 10
35.098
 20
-37.0567
 10
35.098
 20
-36.1934
  0
LWPOLYLINE
  5
2BF
330
70
100
AcDbEntity
  8
COND
100
AcDbPolyline
 90
       10
 70
     1
 43
0.0
 10
34.3532
 20
-36.0921
 10
33.8135
 20
-37.0567
 10
33.7002
 20
-37.0567
 10
33.7002
 20
-36.9433
 10
34.1765
 20
-36.0921
 10
33.7056
 20
-36.0921
 10
33.7056
 20
-36.1886
 10
33.5922
 20
-36.1886
 10
33.5922
 20
-35.9788
 10
34.3532
 20
-35.9788
  0
LWPOLYLINE
  5
2CB
330
70
100
AcDbEntity
  8
COND
100
AcDbPolyline
 90
       26
 70
     1
 43
0.0
 10
33.11199999999999
 20
-36.502
 10
32.977
 20
-36.4779
 10
32.5722
 20
-36.4779
 10
32.5722
 20
-35.9788
 10
33.2793
 20
-35.9788
 10
33.2793
 20
-36.0921
 10
32.6856
 20
-36.0921
 10
32.6856
 20
-36.3646
 10
33.0904
 20
-36.3646
 10
33.2253
 20
-36.3887
 10
33.3062
 20
-36.4611
 10
33.3332
 20
-36.5575
 10
33.3332
 20
-36.8155
 10
33.3062
 20
-36.912
 10
33.2523
 20
-36.9843
 10
33.17130000000001
 20
-37.0325
 10
33.0904
 20
-37.0567
 10
32.5722
 20
-37.0567
 10
32.5722
 20
-36.9433
 10
32.977
 20
-36.9433
 10
33.058
 20
-36.9192
 10
33.1389
 20
-36.871
 10
33.1929
 20
-36.7987
 10
33.2199
 20
-36.7022
 10
33.2199
 20
-36.6708
 10
33.1929
 20
-36.5744
  0
LWPOLYLINE
  5
2E7
330
70
100
AcDbEntity
  8
COND
100
AcDbPolyline
 90
       10
 70
     1
 43
0.0
 10
32.3672
 20
-36.0921
 10
31.6116
 20
-36.0921
 10
31.6116
 20
-36.4128
 10
32.3672
 20
-36.4128
 10
32.3672
 20
-36.52620000000001
 10
31.6116
 20
-36.52620000000001
 10
31.6116
 20
-37.0567
 10
31.4983
 20
-37.0567
 10
31.4983
 20
-35.9788
 10
32.3672
 20
-35.9788
  0
LWPOLYLINE
  5
2F3
330
70
100
AcDbEntity
  8
COND
100
AcDbPolyline
 90
        6
 70
     1
 43
0.0
 10
30.6456
 20
-36.9433
 10
31.2932
 20
-36.9433
 10
31.2932
 20
-37.0567
 10
30.5322
 20
-37.0567
 10
30.5322
 20
-35.9788
 10
30.6456
 20
-35.9788
  0
LWPOLYLINE
  5
2FB
330
70
100
AcDbEntity
  8
COND
100
AcDbPolyline
 90
       41
 70
     1
 43
0.0
 10
30.1923
 20
-36.4611
 10
30.2462
 20
-36.50930000000001
 10
30.3002
 20
-36.6299
 10
30.3002
 20
-36.8638
 10
30.2462
 20
-36.9602
 10
30.1923
 20
-37.0084
 10
30.0843
 20
-37.0567
 10
29.4853
 20
-37.0567
 10
29.4853
 20
-35.9788
 10
29.89
 20
-35.9788
 10
29.89
 20
-36.0921
 10
29.5986
 20
-36.0921
 10
29.5986
 20
-36.4128
 10
29.917
 20
-36.4128
 10
29.971
 20
-36.3968
 10
29.971
 20
-36.52620000000001
 10
29.5986
 20
-36.52620000000001
 10
29.5986
 20
-36.9433
 10
29.971
 20
-36.9433
 10
30.0789
 20
-36.8951
 10
30.1329
 20
-36.8469
 10
30.1869
 20
-36.7504
 10
30.1869
 20
-36.7432
 10
30.1329
 20
-36.6226
 10
30.0789
 20
-36.5744
 10
29.971
 20
-36.52620000000001
 10
29.971
 20
-36.3968
 10
29.998
 20
-36.3887
 10
30.0789
 20
-36.3405
 10
30.1253
 20
-36.2577
 10
30.1059
 20
-36.1886
 10
30.025
 20
-36.1162
 10
29.89
 20
-36.0921
 10
29.89
 20
-35.9788
 10
30.0034
 20
-35.9788
 10
30.1383
 20
-36.0029
 10
30.2193
 20
-36.0752
 10
30.2462
 20
-36.1717
 10
30.2462
 20
-36.3574
 10
30.1923
 20
-36.4538
 10
30.1853
 20
-36.458
  0
LWPOLYLINE
  5
362
330
70
100
AcDbEntity
  8
COND
100
AcDbPolyline
 90
       48
 70
     1
 43
0.0
 10
69.1875
 20
39.7
 10
69.1875
 20
24.45
 10
46.1875
 20
24.45
 10
46.1875
 20
34.2
 10
7.4375
 20
34.2
 10
6.979499999999999
 20
34.18
 10
6.5255
 20
34.12
 10
6.0785
 20
34.021
 10
5.641499999999999
 20
33.883
 10
5.218499999999999
 20
33.708
 10
4.8125
 20
33.497
 10
4.426499999999999
 20
33.251
 10
4.0625
 20
32.972
 10
3.725499999999999
 20
32.662
 10
3.4155
 20
32.325
 10
3.136499999999999
 20
31.961
 10
2.890499999999999
 20
31.575
 10
2.679499999999999
 20
31.169
 10
2.5045
 20
30.746
 10
2.366499999999999
 20
30.309
 10
2.2675
 20
29.862
 10
2.2075
 20
29.408
 10
2.1875
 20
29.0205
 10
2.2
 20
15.7
 10
2.2
 20
13.7
 10
-0.3
 20
13.7
 10
-0.3125
 20
14.0353
 10
-0.3
 20
15.7
 10
-3.299999999999999
 20
15.7
 10
-3.3125
 20
28.95
 10
-3.2715
 20
29.887
 10
-3.1495
 20
30.817
 10
-2.946499999999999
 20
31.732
 10
-2.664499999999999
 20
32.627
 10
-2.305499999999999
 20
33.493
 10
-1.8725
 20
34.325
 10
-1.3685
 20
35.116
 10
-0.7975
 20
35.86
 10
-0.1635
 20
36.551
 10
0.5275
 20
37.18500000000001
 10
1.2715
 20
37.756
 10
2.0625
 20
38.26
 10
2.894499999999999
 20
38.69300000000001
 10
3.760499999999999
 20
39.052
 10
4.655499999999999
 20
39.33400000000001
 10
5.5705
 20
39.537
 10
6.500499999999999
 20
39.659
 10
7.4375
 20
39.7
  0
LWPOLYLINE
  5
394
330
70
100
AcDbEntity
  8
COND
100
AcDbPolyline
 90
        3
 70
     1
 43
0.0
 10
82.63769999999999
 20
-8.0524
 10
82.63769999999999
 20
-2.0524
 10
82.59100000000001
 20
-8.0524
  0
LWPOLYLINE
  5
399
330
70
100
AcDbEntity
  8
COND
100
AcDbPolyline
 90
        3
 70
     1
 43
0.0
 10
82.63769999999999
 20
7.489399999999999
 10
82.63769999999999
 20
1.4894
 10
82.59100000000001
 20
7.489399999999999
  0
LWPOLYLINE
  5
39E
330
70
100
AcDbEntity
  8
COND
100
AcDbPolyline
 90
        8
 70
     1
 43
0.0
 10
54.2
 20
2.2
 10
54.2
 20
0.9
 10
82.70000000000001
 20
0.9
 10
82.70000000000001
 20
-1.5
 10
54.2
 20
-1.5
 10
54.2
 20
-2.799999999999999
 10
51.2
 20
-2.799999999999999
 10
51.2
 20
2.2
  0
LWPOLYLINE
  5
3A8
330
70
100
AcDbEntity
  8
COND
100
AcDbPolyline
 90
       12
 70
     1
 43
0.0
 10
47.7
 20
2.2
 10
47.7
 20
-2.799999999999999
 10
44.7
 20
-2.799999999999999
 10
44.7
 20
-1.5
 10
17.7
 20
-1.5
 10
17.7
 20
-2.799999999999999
 10
14.7
 20
-2.799999999999999
 10
14.7
 20
2.2
 10
17.7
 20
2.2
 10
17.7
 20
0.9
 10
44.7
 20
0.9
 10
44.7
 20
2.2
  0
LWPOLYLINE
  5
3B6
330
70
100
AcDbEntity
  8
COND
100
AcDbPolyline
 90
        4
 70
     1
 43
0.0
 10
91.69999999999999
 20
-1.5
 10
91.69999999999999
 20
0.9
 10
83.7
 20
0.9
 10
83.7
 20
-1.5
  0
CIRCLE
  5
3BC
330
70
100
AcDbEntity
  8
HOLE
100
AcDbCircle
 10
7.2
 20
16.8
 30
0.0
 40
0.4
  0
CIRCLE
  5
3BD
330
70
100
AcDbEntity
  8
HOLE
100
AcDbCircle
 10
5.7
 20
16.8
 30
0.0
 40
0.4
  0
CIRCLE
  5
3BE
330
70
100
AcDbEntity
  8
HOLE
100
AcDbCircle
 10
19.7
 20
4.4
 30
0.0
 40
0.4
  0
CIRCLE
  5
3BF
330
70
100
AcDbEntity
  8
HOLE
100
AcDbCircle
 10
21.1097
 20
2.956
 30
0.0
 40
0.4
  0
CIRCLE
  5
3C0
330
70
100
AcDbEntity
  8
HOLE
100
AcDbCircle
 10
18.2
 20
5.5
 30
0.0
 40
0.4
  0
CIRCLE
  5
3C1
330
70
100
AcDbEntity
  8
HOLE
100
AcDbCircle
 10
9.199999999999999
 20
13.0
 30
0.0
 40
0.4
  0
CIRCLE
  5
3C2
330
70
100
AcDbEntity
  8
HOLE
100
AcDbCircle
 10
9.199999999999999
 20
14.5
 30
0.0
 40
0.4
  0
CIRCLE
  5
3C3
330
70
100
AcDbEntity
  8
HOLE
100
AcDbCircle
 10
9.199999999999999
 20
16.0
 30
0.0
 40
0.4
  0
CIRCLE
  5
3C4
330
70
100
AcDbEntity
  8
HOLE
100
AcDbCircle
 10
9.199999999999999
 20
11.5
 30
0.0
 40
0.4
  0
CIRCLE
  5
3C5
330
70
100
AcDbEntity
  8
HOLE
100
AcDbCircle
 10
9.199999999999999
 20
10.0
 30
0.0
 40
0.4
  0
CIRCLE
  5
3C6
330
70
100
AcDbEntity
  8
HOLE
100
AcDbCircle
 10
9.199999999999999
 20
8.5
 30
0.0
 40
0.4
  0
CIRCLE
  5
3C7
330
70
100
AcDbEntity
  8
HOLE
100
AcDbCircle
 10
9.199999999999999
 20
7.0
 30
0.0
 40
0.4
  0
CIRCLE
  5
3C8
330
70
100
AcDbEntity
  8
HOLE
100
AcDbCircle
 10
12.2
 20
5.5
 30
0.0
 40
0.4
  0
CIRCLE
  5
3C9
330
70
100
AcDbEntity
  8
HOLE
100
AcDbCircle
 10
13.7
 20
5.5
 30
0.0
 40
0.4
  0
CIRCLE
  5
3CA
330
70
100
AcDbEntity
  8
HOLE
100
AcDbCircle
 10
15.2
 20
5.5
 30
0.0
 40
0.4
  0
CIRCLE
  5
3CB
330
70
100
AcDbEntity
  8
HOLE
100
AcDbCircle
 10
16.7
 20
5.5
 30
0.0
 40
0.4
  0
CIRCLE
  5
3CC
330
70
100
AcDbEntity
  8
HOLE
100
AcDbCircle
 10
9.199999999999999
 20
5.5
 30
0.0
 40
0.4
  0
CIRCLE
  5
3CD
330
70
100
AcDbEntity
  8
HOLE
100
AcDbCircle
 10
10.7
 20
5.5
 30
0.0
 40
0.4
  0
CIRCLE
  5
3CE
330
70
100
AcDbEntity
  8
HOLE
100
AcDbCircle
 10
56.7
 20
-15.29
 30
0.0
 40
1.1
  0
CIRCLE
  5
3CF
330
70
100
AcDbEntity
  8
HOLE
100
AcDbCircle
 10
7.5
 20
-9.4
 30
0.0
 40
0.4
  0
CIRCLE
  5
3D0
330
70
100
AcDbEntity
  8
HOLE
100
AcDbCircle
 10
6.0
 20
-9.4
 30
0.0
 40
0.4
  0
CIRCLE
  5
3D1
330
70
100
AcDbEntity
  8
HOLE
100
AcDbCircle
 10
4.4202
 20
-9.402599999999999
 30
0.0
 40
0.4
  0
CIRCLE
  5
3D2
330
70
100
AcDbEntity
  8
HOLE
100
AcDbCircle
 10
9.3
 20
-7.7
 30
0.0
 40
0.4
  0
CIRCLE
  5
3D3
330
70
100
AcDbEntity
  8
HOLE
100
AcDbCircle
 10
12.3
 20
-6.099999999999999
 30
0.0
 40
0.4
  0
CIRCLE
  5
3D4
330
70
100
AcDbEntity
  8
HOLE
100
AcDbCircle
 10
13.8
 20
-6.099999999999999
 30
0.0
 40
0.4
  0
CIRCLE
  5
3D5
330
70
100
AcDbEntity
  8
HOLE
100
AcDbCircle
 10
15.3
 20
-6.099999999999999
 30
0.0
 40
0.4
  0
CIRCLE
  5
3D6
330
70
100
AcDbEntity
  8
HOLE
100
AcDbCircle
 10
16.8
 20
-6.099999999999999
 30
0.0
 40
0.4
  0
CIRCLE
  5
3D7
330
70
100
AcDbEntity
  8
HOLE
100
AcDbCircle
 10
18.3
 20
-6.099999999999999
 30
0.0
 40
0.4
  0
CIRCLE
  5
3D8
330
70
100
AcDbEntity
  8
HOLE
100
AcDbCircle
 10
9.3
 20
-6.099999999999999
 30
0.0
 40
0.4
  0
CIRCLE
  5
3D9
330
70
100
AcDbEntity
  8
HOLE
100
AcDbCircle
 10
10.8
 20
-6.099999999999999
 30
0.0
 40
0.4
  0
CIRCLE
  5
3DA
330
70
100
AcDbEntity
  8
HOLE
100
AcDbCircle
 10
45.4542
 20
22.4133
 30
0.0
 40
0.4
  0
CIRCLE
  5
3DB
330
70
100
AcDbEntity
  8
HOLE
100
AcDbCircle
 10
19.7
 20
-4.963
 30
0.0
 40
0.4
  0
CIRCLE
  5
3DC
330
70
100
AcDbEntity
  8
HOLE
100
AcDbCircle
 10
21.1097
 20
-3.518999999999999
 30
0.0
 40
0.4
  0
CIRCLE
  5
3DD
330
70
100
AcDbEntity
  8
HOLE
100
AcDbCircle
 10
22.6097
 20
-3.518999999999999
 30
0.0
 40
0.4
  0
CIRCLE
  5
3DE
330
70
100
AcDbEntity
  8
HOLE
100
AcDbCircle
 10
36.1097
 20
-3.518999999999999
 30
0.0
 40
0.4
  0
CIRCLE
  5
3DF
330
70
100
AcDbEntity
  8
HOLE
100
AcDbCircle
 10
37.6097
 20
-3.518999999999999
 30
0.0
 40
0.4
  0
CIRCLE
  5
3E0
330
70
100
AcDbEntity
  8
HOLE
100
AcDbCircle
 10
34.6097
 20
-3.518999999999999
 30
0.0
 40
0.4
  0
CIRCLE
  5
3E1
330
70
100
AcDbEntity
  8
HOLE
100
AcDbCircle
 10
33.1097
 20
-3.518999999999999
 30
0.0
 40
0.4
  0
CIRCLE
  5
3E2
330
70
100
AcDbEntity
  8
HOLE
100
AcDbCircle
 10
31.6097
 20
-3.518999999999999
 30
0.0
 40
0.4
  0
CIRCLE
  5
3E3
330
70
100
AcDbEntity
  8
HOLE
100
AcDbCircle
 10
30.1097
 20
-3.518999999999999
 30
0.0
 40
0.4
  0
CIRCLE
  5
3E4
330
70
100
AcDbEntity
  8
HOLE
100
AcDbCircle
 10
28.6097
 20
-3.518999999999999
 30
0.0
 40
0.4
  0
CIRCLE
  5
3E5
330
70
100
AcDbEntity
  8
HOLE
100
AcDbCircle
 10
27.1097
 20
-3.518999999999999
 30
0.0
 40
0.4
  0
CIRCLE
  5
3E6
330
70
100
AcDbEntity
  8
HOLE
100
AcDbCircle
 10
25.6097
 20
-3.518999999999999
 30
0.0
 40
0.4
  0
CIRCLE
  5
3E7
330
70
100
AcDbEntity
  8
HOLE
100
AcDbCircle
 10
24.1097
 20
-3.518999999999999
 30
0.0
 40
0.4
  0
CIRCLE
  5
3E8
330
70
100
AcDbEntity
  8
HOLE
100
AcDbCircle
 10
56.2
 20
-7.962999999999999
 30
0.0
 40
0.4
  0
CIRCLE
  5
3E9
330
70
100
AcDbEntity
  8
HOLE
100
AcDbCircle
 10
56.2
 20
-6.462999999999999
 30
0.0
 40
0.4
  0
CIRCLE
  5
3EA
330
70
100
AcDbEntity
  8
HOLE
100
AcDbCircle
 10
56.2
 20
-4.963
 30
0.0
 40
0.4
  0
CIRCLE
  5
3EB
330
70
100
AcDbEntity
  8
HOLE
100
AcDbCircle
 10
39.1097
 20
-3.518999999999999
 30
0.0
 40
0.4
  0
CIRCLE
  5
3EC
330
70
100
AcDbEntity
  8
HOLE
100
AcDbCircle
 10
40.6097
 20
-3.518999999999999
 30
0.0
 40
0.4
  0
CIRCLE
  5
3ED
330
70
100
AcDbEntity
  8
HOLE
100
AcDbCircle
 10
42.10969999999999
 20
-3.518999999999999
 30
0.0
 40
0.4
  0
CIRCLE
  5
3EE
330
70
100
AcDbEntity
  8
HOLE
100
AcDbCircle
 10
42.7
 20
-4.9184
 30
0.0
 40
0.4
  0
CIRCLE
  5
3EF
330
70
100
AcDbEntity
  8
HOLE
100
AcDbCircle
 10
42.7
 20
-6.4184
 30
0.0
 40
0.4
  0
CIRCLE
  5
3F0
330
70
100
AcDbEntity
  8
HOLE
100
AcDbCircle
 10
42.7
 20
-7.9184
 30
0.0
 40
0.4
  0
CIRCLE
  5
3F1
330
70
100
AcDbEntity
  8
HOLE
100
AcDbCircle
 10
46.39999999999999
 20
-9.4625
 30
0.0
 40
0.4
  0
CIRCLE
  5
3F2
330
70
100
AcDbEntity
  8
HOLE
100
AcDbCircle
 10
44.9
 20
-9.4625
 30
0.0
 40
0.4
  0
CIRCLE
  5
3F3
330
70
100
AcDbEntity
  8
HOLE
100
AcDbCircle
 10
43.39999999999999
 20
-9.4625
 30
0.0
 40
0.4
  0
CIRCLE
  5
3F4
330
70
100
AcDbEntity
  8
HOLE
100
AcDbCircle
 10
63.6096
 20
-3.463
 30
0.0
 40
0.4
  0
CIRCLE
  5
3F5
330
70
100
AcDbEntity
  8
HOLE
100
AcDbCircle
 10
62.1096
 20
-3.463
 30
0.0
 40
0.4
  0
CIRCLE
  5
3F6
330
70
100
AcDbEntity
  8
HOLE
100
AcDbCircle
 10
60.6096
 20
-3.463
 30
0.0
 40
0.4
  0
CIRCLE
  5
3F7
330
70
100
AcDbEntity
  8
HOLE
100
AcDbCircle
 10
59.1096
 20
-3.463
 30
0.0
 40
0.4
  0
CIRCLE
  5
3F8
330
70
100
AcDbEntity
  8
HOLE
100
AcDbCircle
 10
57.6096
 20
-3.463
 30
0.0
 40
0.4
  0
CIRCLE
  5
3F9
330
70
100
AcDbEntity
  8
HOLE
100
AcDbCircle
 10
55.4
 20
-9.4625
 30
0.0
 40
0.4
  0
CIRCLE
  5
3FA
330
70
100
AcDbEntity
  8
HOLE
100
AcDbCircle
 10
53.9
 20
-9.4625
 30
0.0
 40
0.4
  0
CIRCLE
  5
3FB
330
70
100
AcDbEntity
  8
HOLE
100
AcDbCircle
 10
52.4
 20
-9.4625
 30
0.0
 40
0.4
  0
CIRCLE
  5
3FC
330
70
100
AcDbEntity
  8
HOLE
100
AcDbCircle
 10
50.89999999999999
 20
-9.4625
 30
0.0
 40
0.4
  0
CIRCLE
  5
3FD
330
70
100
AcDbEntity
  8
HOLE
100
AcDbCircle
 10
49.4
 20
-9.4625
 30
0.0
 40
0.4
  0
CIRCLE
  5
3FE
330
70
100
AcDbEntity
  8
HOLE
100
AcDbCircle
 10
47.9
 20
-9.4625
 30
0.0
 40
0.4
  0
CIRCLE
  5
3FF
330
70
100
AcDbEntity
  8
HOLE
100
AcDbCircle
 10
71.1096
 20
-3.463
 30
0.0
 40
0.4
  0
CIRCLE
  5
400
330
70
100
AcDbEntity
  8
HOLE
100
AcDbCircle
 10
69.6096
 20
-3.463
 30
0.0
 40
0.4
  0
CIRCLE
  5
401
330
70
100
AcDbEntity
  8
HOLE
100
AcDbCircle
 10
68.1096
 20
-3.463
 30
0.0
 40
0.4
  0
CIRCLE
  5
402
330
70
100
AcDbEntity
  8
HOLE
100
AcDbCircle
 10
66.6096
 20
-3.463
 30
0.0
 40
0.4
  0
CIRCLE
  5
403
330
70
100
AcDbEntity
  8
HOLE
100
AcDbCircle
 10
65.1096
 20
-3.463
 30
0.0
 40
0.4
  0
CIRCLE
  5
404
330
70
100
AcDbEntity
  8
HOLE
100
AcDbCircle
 10
81.60960000000001
 20
-7.962999999999999
 30
0.0
 40
0.4
  0
CIRCLE
  5
405
330
70
100
AcDbEntity
  8
HOLE
100
AcDbCircle
 10
81.60960000000001
 20
-6.462999999999999
 30
0.0
 40
0.4
  0
CIRCLE
  5
406
330
70
100
AcDbEntity
  8
HOLE
100
AcDbCircle
 10
81.60960000000001
 20
-4.963
 30
0.0
 40
0.4
  0
CIRCLE
  5
407
330
70
100
AcDbEntity
  8
HOLE
100
AcDbCircle
 10
89.10960000000001
 20
-9.462999999999999
 30
0.0
 40
0.4
  0
CIRCLE
  5
408
330
70
100
AcDbEntity
  8
HOLE
100
AcDbCircle
 10
87.6096
 20
-9.462999999999999
 30
0.0
 40
0.4
  0
CIRCLE
  5
409
330
70
100
AcDbEntity
  8
HOLE
100
AcDbCircle
 10
86.1096
 20
-9.462999999999999
 30
0.0
 40
0.4
  0
CIRCLE
  5
40A
330
70
100
AcDbEntity
  8
HOLE
100
AcDbCircle
 10
84.6096
 20
-9.462999999999999
 30
0.0
 40
0.4
  0
CIRCLE
  5
40B
330
70
100
AcDbEntity
  8
HOLE
100
AcDbCircle
 10
83.10959999999999
 20
-9.462999999999999
 30
0.0
 40
0.4
  0
CIRCLE
  5
40C
330
70
100
AcDbEntity
  8
HOLE
100
AcDbCircle
 10
74.1096
 20
-3.463
 30
0.0
 40
0.4
  0
CIRCLE
  5
40D
330
70
100
AcDbEntity
  8
HOLE
100
AcDbCircle
 10
75.6096
 20
-3.463
 30
0.0
 40
0.4
  0
CIRCLE
  5
40E
330
70
100
AcDbEntity
  8
HOLE
100
AcDbCircle
 10
77.1096
 20
-3.463
 30
0.0
 40
0.4
  0
CIRCLE
  5
40F
330
70
100
AcDbEntity
  8
HOLE
100
AcDbCircle
 10
78.6096
 20
-3.463
 30
0.0
 40
0.4
  0
CIRCLE
  5
410
330
70
100
AcDbEntity
  8
HOLE
100
AcDbCircle
 10
80.1096
 20
-3.463
 30
0.0
 40
0.4
  0
CIRCLE
  5
411
330
70
100
AcDbEntity
  8
HOLE
100
AcDbCircle
 10
72.6096
 20
-3.463
 30
0.0
 40
0.4
  0
CIRCLE
  5
412
330
70
100
AcDbEntity
  8
HOLE
100
AcDbCircle
 10
22.6097
 20
2.956
 30
0.0
 40
0.4
  0
CIRCLE
  5
413
330
70
100
AcDbEntity
  8
HOLE
100
AcDbCircle
 10
36.1097
 20
2.956
 30
0.0
 40
0.4
  0
CIRCLE
  5
414
330
70
100
AcDbEntity
  8
HOLE
100
AcDbCircle
 10
37.6097
 20
2.956
 30
0.0
 40
0.4
  0
CIRCLE
  5
415
330
70
100
AcDbEntity
  8
HOLE
100
AcDbCircle
 10
34.6097
 20
2.956
 30
0.0
 40
0.4
  0
CIRCLE
  5
416
330
70
100
AcDbEntity
  8
HOLE
100
AcDbCircle
 10
33.1097
 20
2.956
 30
0.0
 40
0.4
  0
CIRCLE
  5
417
330
70
100
AcDbEntity
  8
HOLE
100
AcDbCircle
 10
31.6097
 20
2.956
 30
0.0
 40
0.4
  0
CIRCLE
  5
418
330
70
100
AcDbEntity
  8
HOLE
100
AcDbCircle
 10
30.1097
 20
2.956
 30
0.0
 40
0.4
  0
CIRCLE
  5
419
330
70
100
AcDbEntity
  8
HOLE
100
AcDbCircle
 10
28.6097
 20
2.956
 30
0.0
 40
0.4
  0
CIRCLE
  5
41A
330
70
100
AcDbEntity
  8
HOLE
100
AcDbCircle
 10
27.1097
 20
2.956
 30
0.0
 40
0.4
  0
CIRCLE
  5
41B
330
70
100
AcDbEntity
  8
HOLE
100
AcDbCircle
 10
25.6097
 20
2.956
 30
0.0
 40
0.4
  0
CIRCLE
  5
41C
330
70
100
AcDbEntity
  8
HOLE
100
AcDbCircle
 10
24.1097
 20
2.956
 30
0.0
 40
0.4
  0
CIRCLE
  5
41D
330
70
100
AcDbEntity
  8
HOLE
100
AcDbCircle
 10
56.2
 20
7.4
 30
0.0
 40
0.4
  0
CIRCLE
  5
41E
330
70
100
AcDbEntity
  8
HOLE
100
AcDbCircle
 10
56.2
 20
5.9
 30
0.0
 40
0.4
  0
CIRCLE
  5
41F
330
70
100
AcDbEntity
  8
HOLE
100
AcDbCircle
 10
56.2
 20
4.4
 30
0.0
 40
0.4
  0
CIRCLE
  5
420
330
70
100
AcDbEntity
  8
HOLE
100
AcDbCircle
 10
39.1097
 20
2.956
 30
0.0
 40
0.4
  0
CIRCLE
  5
421
330
70
100
AcDbEntity
  8
HOLE
100
AcDbCircle
 10
40.6097
 20
2.956
 30
0.0
 40
0.4
  0
CIRCLE
  5
422
330
70
100
AcDbEntity
  8
HOLE
100
AcDbCircle
 10
42.10969999999999
 20
2.956
 30
0.0
 40
0.4
  0
CIRCLE
  5
423
330
70
100
AcDbEntity
  8
HOLE
100
AcDbCircle
 10
42.7
 20
4.3554
 30
0.0
 40
0.4
  0
CIRCLE
  5
424
330
70
100
AcDbEntity
  8
HOLE
100
AcDbCircle
 10
42.7
 20
5.8554
 30
0.0
 40
0.4
  0
CIRCLE
  5
425
330
70
100
AcDbEntity
  8
HOLE
100
AcDbCircle
 10
42.7
 20
7.3554
 30
0.0
 40
0.4
  0
CIRCLE
  5
426
330
70
100
AcDbEntity
  8
HOLE
100
AcDbCircle
 10
46.39999999999999
 20
8.899499999999999
 30
0.0
 40
0.4
  0
CIRCLE
  5
427
330
70
100
AcDbEntity
  8
HOLE
100
AcDbCircle
 10
44.9
 20
8.899499999999999
 30
0.0
 40
0.4
  0
CIRCLE
  5
428
330
70
100
AcDbEntity
  8
HOLE
100
AcDbCircle
 10
43.39999999999999
 20
8.899499999999999
 30
0.0
 40
0.4
  0
CIRCLE
  5
429
330
70
100
AcDbEntity
  8
HOLE
100
AcDbCircle
 10
63.6096
 20
2.9
 30
0.0
 40
0.4
  0
CIRCLE
  5
42A
330
70
100
AcDbEntity
  8
HOLE
100
AcDbCircle
 10
62.1096
 20
2.9
 30
0.0
 40
0.4
  0
CIRCLE
  5
42B
330
70
100
AcDbEntity
  8
HOLE
100
AcDbCircle
 10
60.6096
 20
2.9
 30
0.0
 40
0.4
  0
CIRCLE
  5
42C
330
70
100
AcDbEntity
  8
HOLE
100
AcDbCircle
 10
59.1096
 20
2.9
 30
0.0
 40
0.4
  0
CIRCLE
  5
42D
330
70
100
AcDbEntity
  8
HOLE
100
AcDbCircle
 10
57.6096
 20
2.9
 30
0.0
 40
0.4
  0
CIRCLE
  5
42E
330
70
100
AcDbEntity
  8
HOLE
100
AcDbCircle
 10
55.4
 20
8.899499999999999
 30
0.0
 40
0.4
  0
CIRCLE
  5
42F
330
70
100
AcDbEntity
  8
HOLE
100
AcDbCircle
 10
53.9
 20
8.899499999999999
 30
0.0
 40
0.4
  0
CIRCLE
  5
430
330
70
100
AcDbEntity
  8
HOLE
100
AcDbCircle
 10
52.4
 20
8.899499999999999
 30
0.0
 40
0.4
  0
CIRCLE
  5
431
330
70
100
AcDbEntity
  8
HOLE
100
AcDbCircle
 10
50.89999999999999
 20
8.899499999999999
 30
0.0
 40
0.4
  0
CIRCLE
  5
432
330
70
100
AcDbEntity
  8
HOLE
100
AcDbCircle
 10
49.4
 20
8.899499999999999
 30
0.0
 40
0.4
  0
CIRCLE
  5
433
330
70
100
AcDbEntity
  8
HOLE
100
AcDbCircle
 10
47.9
 20
8.899499999999999
 30
0.0
 40
0.4
  0
CIRCLE
  5
434
330
70
100
AcDbEntity
  8
HOLE
100
AcDbCircle
 10
71.1096
 20
2.9
 30
0.0
 40
0.4
  0
CIRCLE
  5
435
330
70
100
AcDbEntity
  8
HOLE
100
AcDbCircle
 10
69.6096
 20
2.9
 30
0.0
 40
0.4
  0
CIRCLE
  5
436
330
70
100
AcDbEntity
  8
HOLE
100
AcDbCircle
 10
68.1096
 20
2.9
 30
0.0
 40
0.4
  0
CIRCLE
  5
437
330
70
100
AcDbEntity
  8
HOLE
100
AcDbCircle
 10
66.6096
 20
2.9
 30
0.0
 40
0.4
  0
CIRCLE
  5
438
330
70
100
AcDbEntity
  8
HOLE
100
AcDbCircle
 10
65.1096
 20
2.9
 30
0.0
 40
0.4
  0
CIRCLE
  5
439
330
70
100
AcDbEntity
  8
HOLE
100
AcDbCircle
 10
81.60960000000001
 20
7.4
 30
0.0
 40
0.4
  0
CIRCLE
  5
43A
330
70
100
AcDbEntity
  8
HOLE
100
AcDbCircle
 10
81.60960000000001
 20
5.9
 30
0.0
 40
0.4
  0
CIRCLE
  5
43B
330
70
100
AcDbEntity
  8
HOLE
100
AcDbCircle
 10
81.60960000000001
 20
4.4
 30
0.0
 40
0.4
  0
CIRCLE
  5
43C
330
70
100
AcDbEntity
  8
HOLE
100
AcDbCircle
 10
89.10960000000001
 20
8.9
 30
0.0
 40
0.4
  0
CIRCLE
  5
43D
330
70
100
AcDbEntity
  8
HOLE
100
AcDbCircle
 10
87.6096
 20
8.9
 30
0.0
 40
0.4
  0
CIRCLE
  5
43E
330
70
100
AcDbEntity
  8
HOLE
100
AcDbCircle
 10
86.1096
 20
8.9
 30
0.0
 40
0.4
  0
CIRCLE
  5
43F
330
70
100
AcDbEntity
  8
HOLE
100
AcDbCircle
 10
84.6096
 20
8.9
 30
0.0
 40
0.4
  0
CIRCLE
  5
440
330
70
100
AcDbEntity
  8
HOLE
100
AcDbCircle
 10
83.10959999999999
 20
8.9
 30
0.0
 40
0.4
  0
CIRCLE
  5
441
330
70
100
AcDbEntity
  8
HOLE
100
AcDbCircle
 10
74.1096
 20
2.9
 30
0.0
 40
0.4
  0
CIRCLE
  5
442
330
70
100
AcDbEntity
  8
HOLE
100
AcDbCircle
 10
75.6096
 20
2.9
 30
0.0
 40
0.4
  0
CIRCLE
  5
443
330
70
100
AcDbEntity
  8
HOLE
100
AcDbCircle
 10
77.1096
 20
2.9
 30
0.0
 40
0.4
  0
CIRCLE
  5
444
330
70
100
AcDbEntity
  8
HOLE
100
AcDbCircle
 10
78.6096
 20
2.9
 30
0.0
 40
0.4
  0
CIRCLE
  5
445
330
70
100
AcDbEntity
  8
HOLE
100
AcDbCircle
 10
80.1096
 20
2.9
 30
0.0
 40
0.4
  0
CIRCLE
  5
446
330
70
100
AcDbEntity
  8
HOLE
100
AcDbCircle
 10
72.6096
 20
2.9
 30
0.0
 40
0.4
  0
CIRCLE
  5
447
330
70
100
AcDbEntity
  8
HOLE
100
AcDbCircle
 10
18.1438
 20
32.1101
 30
0.0
 40
0.4
  0
CIRCLE
  5
448
330
70
100
AcDbEntity
  8
HOLE
100
AcDbCircle
 10
4.2
 20
18.3101
 30
0.0
 40
0.4
  0
CIRCLE
  5
449
330
70
100
AcDbEntity
  8
HOLE
100
AcDbCircle
 10
4.2
 20
19.8101
 30
0.0
 40
0.4
  0
CIRCLE
  5
44A
330
70
100
AcDbEntity
  8
HOLE
100
AcDbCircle
 10
4.2
 20
21.3101
 30
0.0
 40
0.4
  0
CIRCLE
  5
44B
330
70
100
AcDbEntity
  8
HOLE
100
AcDbCircle
 10
4.2
 20
22.8101
 30
0.0
 40
0.4
  0
CIRCLE
  5
44C
330
70
100
AcDbEntity
  8
HOLE
100
AcDbCircle
 10
4.2
 20
24.3101
 30
0.0
 40
0.4
  0
CIRCLE
  5
44D
330
70
100
AcDbEntity
  8
HOLE
100
AcDbCircle
 10
4.2
 20
25.8101
 30
0.0
 40
0.4
  0
CIRCLE
  5
44E
330
70
100
AcDbEntity
  8
HOLE
100
AcDbCircle
 10
4.2
 20
27.3101
 30
0.0
 40
0.4
  0
CIRCLE
  5
44F
330
70
100
AcDbEntity
  8
HOLE
100
AcDbCircle
 10
4.2
 20
16.8101
 30
0.0
 40
0.4
  0
CIRCLE
  5
450
330
70
100
AcDbEntity
  8
HOLE
100
AcDbCircle
 10
9.1438
 20
32.1101
 30
0.0
 40
0.4
  0
CIRCLE
  5
451
330
70
100
AcDbEntity
  8
HOLE
100
AcDbCircle
 10
10.6438
 20
32.1101
 30
0.0
 40
0.4
  0
CIRCLE
  5
452
330
70
100
AcDbEntity
  8
HOLE
100
AcDbCircle
 10
12.1438
 20
32.1101
 30
0.0
 40
0.4
  0
CIRCLE
  5
453
330
70
100
AcDbEntity
  8
HOLE
100
AcDbCircle
 10
13.6438
 20
32.1101
 30
0.0
 40
0.4
  0
CIRCLE
  5
454
330
70
100
AcDbEntity
  8
HOLE
100
AcDbCircle
 10
15.1438
 20
32.1101
 30
0.0
 40
0.4
  0
CIRCLE
  5
455
330
70
100
AcDbEntity
  8
HOLE
100
AcDbCircle
 10
16.6438
 20
32.1101
 30
0.0
 40
0.4
  0
CIRCLE
  5
456
330
70
100
AcDbEntity
  8
HOLE
100
AcDbCircle
 10
19.6438
 20
32.1101
 30
0.0
 40
0.4
  0
CIRCLE
  5
457
330
70
100
AcDbEntity
  8
HOLE
100
AcDbCircle
 10
21.1438
 20
32.1101
 30
0.0
 40
0.4
  0
CIRCLE
  5
458
330
70
100
AcDbEntity
  8
HOLE
100
AcDbCircle
 10
30.1438
 20
32.1101
 30
0.0
 40
0.4
  0
CIRCLE
  5
459
330
70
100
AcDbEntity
  8
HOLE
100
AcDbCircle
 10
28.6438
 20
32.1101
 30
0.0
 40
0.4
  0
CIRCLE
  5
45A
330
70
100
AcDbEntity
  8
HOLE
100
AcDbCircle
 10
27.1438
 20
32.1101
 30
0.0
 40
0.4
  0
CIRCLE
  5
45B
330
70
100
AcDbEntity
  8
HOLE
100
AcDbCircle
 10
25.6438
 20
32.1101
 30
0.0
 40
0.4
  0
CIRCLE
  5
45C
330
70
100
AcDbEntity
  8
HOLE
100
AcDbCircle
 10
24.1438
 20
32.1101
 30
0.0
 40
0.4
  0
CIRCLE
  5
45D
330
70
100
AcDbEntity
  8
HOLE
100
AcDbCircle
 10
22.6438
 20
32.1101
 30
0.0
 40
0.4
  0
CIRCLE
  5
45E
330
70
100
AcDbEntity
  8
HOLE
100
AcDbCircle
 10
39.1438
 20
32.1101
 30
0.0
 40
0.4
  0
CIRCLE
  5
45F
330
70
100
AcDbEntity
  8
HOLE
100
AcDbCircle
 10
40.64379999999999
 20
32.1101
 30
0.0
 40
0.4
  0
CIRCLE
  5
460
330
70
100
AcDbEntity
  8
HOLE
100
AcDbCircle
 10
42.1438
 20
32.1101
 30
0.0
 40
0.4
  0
CIRCLE
  5
461
330
70
100
AcDbEntity
  8
HOLE
100
AcDbCircle
 10
43.64379999999999
 20
32.1101
 30
0.0
 40
0.4
  0
CIRCLE
  5
462
330
70
100
AcDbEntity
  8
HOLE
100
AcDbCircle
 10
37.6438
 20
32.1101
 30
0.0
 40
0.4
  0
CIRCLE
  5
463
330
70
100
AcDbEntity
  8
HOLE
100
AcDbCircle
 10
36.1438
 20
32.1101
 30
0.0
 40
0.4
  0
CIRCLE
  5
464
330
70
100
AcDbEntity
  8
HOLE
100
AcDbCircle
 10
34.6438
 20
32.1101
 30
0.0
 40
0.4
  0
CIRCLE
  5
465
330
70
100
AcDbEntity
  8
HOLE
100
AcDbCircle
 10
33.1438
 20
32.1101
 30
0.0
 40
0.4
  0
CIRCLE
  5
466
330
70
100
AcDbEntity
  8
HOLE
100
AcDbCircle
 10
31.6438
 20
32.1101
 30
0.0
 40
0.4
  0
CIRCLE
  5
467
330
70
100
AcDbEntity
  8
HOLE
100
AcDbCircle
 10
44.2
 20
30.6101
 30
0.0
 40
0.4
  0
CIRCLE
  5
468
330
70
100
AcDbEntity
  8
HOLE
100
AcDbCircle
 10
44.2
 20
24.6101
 30
0.0
 40
0.4
  0
CIRCLE
  5
469
330
70
100
AcDbEntity
  8
HOLE
100
AcDbCircle
 10
44.2
 20
26.1101
 30
0.0
 40
0.4
  0
CIRCLE
  5
46A
330
70
100
AcDbEntity
  8
HOLE
100
AcDbCircle
 10
44.2
 20
27.6101
 30
0.0
 40
0.4
  0
CIRCLE
  5
46B
330
70
100
AcDbEntity
  8
HOLE
100
AcDbCircle
 10
44.2
 20
29.1101
 30
0.0
 40
0.4
  0
CIRCLE
  5
46C
330
70
100
AcDbEntity
  8
HOLE
100
AcDbCircle
 10
44.2
 20
30.6101
 30
0.0
 40
0.4
  0
CIRCLE
  5
46D
330
70
100
AcDbEntity
  8
HOLE
100
AcDbCircle
 10
46.9542
 20
22.4133
 30
0.0
 40
0.4
  0
CIRCLE
  5
46E
330
70
100
AcDbEntity
  8
HOLE
100
AcDbCircle
 10
48.4542
 20
22.4133
 30
0.0
 40
0.4
  0
CIRCLE
  5
46F
330
70
100
AcDbEntity
  8
HOLE
100
AcDbCircle
 10
49.9542
 20
22.4133
 30
0.0
 40
0.4
  0
CIRCLE
  5
470
330
70
100
AcDbEntity
  8
HOLE
100
AcDbCircle
 10
51.4542
 20
22.4133
 30
0.0
 40
0.4
  0
CIRCLE
  5
471
330
70
100
AcDbEntity
  8
HOLE
100
AcDbCircle
 10
52.9542
 20
22.4133
 30
0.0
 40
0.4
  0
CIRCLE
  5
472
330
70
100
AcDbEntity
  8
HOLE
100
AcDbCircle
 10
54.4542
 20
22.4133
 30
0.0
 40
0.4
  0
CIRCLE
  5
473
330
70
100
AcDbEntity
  8
HOLE
100
AcDbCircle
 10
55.9542
 20
22.4133
 30
0.0
 40
0.4
  0
CIRCLE
  5
474
330
70
100
AcDbEntity
  8
HOLE
100
AcDbCircle
 10
57.4542
 20
22.4133
 30
0.0
 40
0.4
  0
CIRCLE
  5
475
330
70
100
AcDbEntity
  8
HOLE
100
AcDbCircle
 10
66.4542
 20
22.4133
 30
0.0
 40
0.4
  0
CIRCLE
  5
476
330
70
100
AcDbEntity
  8
HOLE
100
AcDbCircle
 10
64.9542
 20
22.4133
 30
0.0
 40
0.4
  0
CIRCLE
  5
477
330
70
100
AcDbEntity
  8
HOLE
100
AcDbCircle
 10
63.4542
 20
22.4133
 30
0.0
 40
0.4
  0
CIRCLE
  5
478
330
70
100
AcDbEntity
  8
HOLE
100
AcDbCircle
 10
61.9542
 20
22.4133
 30
0.0
 40
0.4
  0
CIRCLE
  5
479
330
70
100
AcDbEntity
  8
HOLE
100
AcDbCircle
 10
60.4542
 20
22.4133
 30
0.0
 40
0.4
  0
CIRCLE
  5
47A
330
70
100
AcDbEntity
  8
HOLE
100
AcDbCircle
 10
58.9542
 20
22.4133
 30
0.0
 40
0.4
  0
CIRCLE
  5
47B
330
70
100
AcDbEntity
  8
HOLE
100
AcDbCircle
 10
69.4542
 20
22.4133
 30
0.0
 40
0.4
  0
CIRCLE
  5
47C
330
70
100
AcDbEntity
  8
HOLE
100
AcDbCircle
 10
67.9542
 20
22.4133
 30
0.0
 40
0.4
  0
CIRCLE
  5
47D
330
70
100
AcDbEntity
  8
HOLE
100
AcDbCircle
 10
71.2
 20
23.8101
 30
0.0
 40
0.4
  0
CIRCLE
  5
47E
330
70
100
AcDbEntity
  8
HOLE
100
AcDbCircle
 10
71.2
 20
26.8101
 30
0.0
 40
0.4
  0
CIRCLE
  5
47F
330
70
100
AcDbEntity
  8
HOLE
100
AcDbCircle
 10
71.2
 20
28.3101
 30
0.0
 40
0.4
  0
CIRCLE
  5
480
330
70
100
AcDbEntity
  8
HOLE
100
AcDbCircle
 10
71.2
 20
29.8101
 30
0.0
 40
0.4
  0
CIRCLE
  5
481
330
70
100
AcDbEntity
  8
HOLE
100
AcDbCircle
 10
71.2
 20
31.3101
 30
0.0
 40
0.4
  0
CIRCLE
  5
482
330
70
100
AcDbEntity
  8
HOLE
100
AcDbCircle
 10
71.2
 20
32.8101
 30
0.0
 40
0.4
  0
CIRCLE
  5
483
330
70
100
AcDbEntity
  8
HOLE
100
AcDbCircle
 10
71.2
 20
34.3101
 30
0.0
 40
0.4
  0
CIRCLE
  5
484
330
70
100
AcDbEntity
  8
HOLE
100
AcDbCircle
 10
71.2
 20
35.8101
 30
0.0
 40
0.4
  0
CIRCLE
  5
485
330
70
100
AcDbEntity
  8
HOLE
100
AcDbCircle
 10
71.2
 20
25.3101
 30
0.0
 40
0.4
  0
CIRCLE
  5
486
330
70
100
AcDbEntity
  8
HOLE
100
AcDbCircle
 10
71.2
 20
37.3101
 30
0.0
 40
0.4
  0
CIRCLE
  5
487
330
70
100
AcDbEntity
  8
HOLE
100
AcDbCircle
 10
72.59999999999999
 20
38.7101
 30
0.0
 40
0.4
  0
CIRCLE
  5
488
330
70
100
AcDbEntity
  8
HOLE
100
AcDbCircle
 10
74.1
 20
38.7101
 30
0.0
 40
0.4
  0
CIRCLE
  5
489
330
70
100
AcDbEntity
  8
HOLE
100
AcDbCircle
 10
75.59999999999999
 20
38.7101
 30
0.0
 40
0.4
  0
CIRCLE
  5
48A
330
70
100
AcDbEntity
  8
HOLE
100
AcDbCircle
 10
77.09999999999999
 20
38.7101
 30
0.0
 40
0.4
  0
CIRCLE
  5
48B
330
70
100
AcDbEntity
  8
HOLE
100
AcDbCircle
 10
78.59999999999999
 20
38.7101
 30
0.0
 40
0.4
  0
CIRCLE
  5
48C
330
70
100
AcDbEntity
  8
HOLE
100
AcDbCircle
 10
80.09999999999999
 20
38.7101
 30
0.0
 40
0.4
  0
CIRCLE
  5
48D
330
70
100
AcDbEntity
  8
HOLE
100
AcDbCircle
 10
81.6
 20
38.7101
 30
0.0
 40
0.4
  0
CIRCLE
  5
48E
330
70
100
AcDbEntity
  8
HOLE
100
AcDbCircle
 10
83.1
 20
38.7101
 30
0.0
 40
0.4
  0
CIRCLE
  5
48F
330
70
100
AcDbEntity
  8
HOLE
100
AcDbCircle
 10
84.59999999999999
 20
38.7101
 30
0.0
 40
0.4
  0
CIRCLE
  5
490
330
70
100
AcDbEntity
  8
HOLE
100
AcDbCircle
 10
89.1
 20
38.7101
 30
0.0
 40
0.4
  0
CIRCLE
  5
491
330
70
100
AcDbEntity
  8
HOLE
100
AcDbCircle
 10
87.59999999999999
 20
38.7101
 30
0.0
 40
0.4
  0
CIRCLE
  5
492
330
70
100
AcDbEntity
  8
HOLE
100
AcDbCircle
 10
86.09999999999999
 20
38.7101
 30
0.0
 40
0.4
  0
CIRCLE
  5
493
330
70
100
AcDbEntity
  8
HOLE
100
AcDbCircle
 10
90.7
 20
34.1101
 30
0.0
 40
0.4
  0
CIRCLE
  5
494
330
70
100
AcDbEntity
  8
HOLE
100
AcDbCircle
 10
90.7
 20
35.6101
 30
0.0
 40
0.4
  0
CIRCLE
  5
495
330
70
100
AcDbEntity
  8
HOLE
100
AcDbCircle
 10
90.7
 20
37.1101
 30
0.0
 40
0.4
  0
CIRCLE
  5
496
330
70
100
AcDbEntity
  8
HOLE
100
AcDbCircle
 10
90.7
 20
26.6101
 30
0.0
 40
0.4
  0
CIRCLE
  5
497
330
70
100
AcDbEntity
  8
HOLE
100
AcDbCircle
 10
90.7
 20
29.6101
 30
0.0
 40
0.4
  0
CIRCLE
  5
498
330
70
100
AcDbEntity
  8
HOLE
100
AcDbCircle
 10
90.7
 20
31.1101
 30
0.0
 40
0.4
  0
CIRCLE
  5
499
330
70
100
AcDbEntity
  8
HOLE
100
AcDbCircle
 10
90.7
 20
32.61010000000001
 30
0.0
 40
0.4
  0
CIRCLE
  5
49A
330
70
100
AcDbEntity
  8
HOLE
100
AcDbCircle
 10
90.7
 20
28.1101
 30
0.0
 40
0.4
  0
CIRCLE
  5
49B
330
70
100
AcDbEntity
  8
HOLE
100
AcDbCircle
 10
90.7
 20
14.6101
 30
0.0
 40
0.4
  0
CIRCLE
  5
49C
330
70
100
AcDbEntity
  8
HOLE
100
AcDbCircle
 10
90.7
 20
17.6101
 30
0.0
 40
0.4
  0
CIRCLE
  5
49D
330
70
100
AcDbEntity
  8
HOLE
100
AcDbCircle
 10
90.7
 20
19.1101
 30
0.0
 40
0.4
  0
CIRCLE
  5
49E
330
70
100
AcDbEntity
  8
HOLE
100
AcDbCircle
 10
90.7
 20
20.6101
 30
0.0
 40
0.4
  0
CIRCLE
  5
49F
330
70
100
AcDbEntity
  8
HOLE
100
AcDbCircle
 10
90.7
 20
22.1101
 30
0.0
 40
0.4
  0
CIRCLE
  5
4A0
330
70
100
AcDbEntity
  8
HOLE
100
AcDbCircle
 10
90.7
 20
23.6101
 30
0.0
 40
0.4
  0
CIRCLE
  5
4A1
330
70
100
AcDbEntity
  8
HOLE
100
AcDbCircle
 10
90.7
 20
25.1101
 30
0.0
 40
0.4
  0
CIRCLE
  5
4A2
330
70
100
AcDbEntity
  8
HOLE
100
AcDbCircle
 10
90.7
 20
16.1101
 30
0.0
 40
0.4
  0
CIRCLE
  5
4A3
330
70
100
AcDbEntity
  8
HOLE
100
AcDbCircle
 10
90.7
 20
10.1101
 30
0.0
 40
0.4
  0
CIRCLE
  5
4A4
330
70
100
AcDbEntity
  8
HOLE
100
AcDbCircle
 10
90.7
 20
11.6101
 30
0.0
 40
0.4
  0
CIRCLE
  5
4A5
330
70
100
AcDbEntity
  8
HOLE
100
AcDbCircle
 10
90.7
 20
13.1101
 30
0.0
 40
0.4
  0
CIRCLE
  5
4A6
330
70
100
AcDbEntity
  8
HOLE
100
AcDbCircle
 10
6.7
 20
-30.29
 30
0.0
 40
1.6
  0
CIRCLE
  5
4A7
330
70
100
AcDbEntity
  8
HOLE
100
AcDbCircle
 10
76.7
 20
29.71
 30
0.0
 40
1.6
  0
CIRCLE
  5
4A8
330
70
100
AcDbEntity
  8
HOLE
100
AcDbCircle
 10
6.7
 20
29.71
 30
0.0
 40
1.6
  0
CIRCLE
  5
4A9
330
70
100
AcDbEntity
  8
HOLE
100
AcDbCircle
 10
76.7
 20
-30.273
 30
0.0
 40
1.6
  0
CIRCLE
  5
4AA
330
70
100
AcDbEntity
  8
HOLE
100
AcDbCircle
 10
26.7
 20
14.71
 30
0.0
 40
1.1
  0
CIRCLE
  5
4AB
330
70
100
AcDbEntity
  8
HOLE
100
AcDbCircle
 10
56.7
 20
14.71
 30
0.0
 40
1.1
  0
CIRCLE
  5
4AC
330
70
100
AcDbEntity
  8
HOLE
100
AcDbCircle
 10
26.7
 20
-15.29
 30
0.0
 40
1.1
  0
LWPOLYLINE
  5
4AD
330
70
100
AcDbEntity
  8
BOUND
100
AcDbPolyline
 90
        4
 70
     1
 43
0.0
 10
91.68750000000001
 20
-40.2501
 10
91.68750000000001
 20
39.7499
 10
-3.3125
 20
39.7499
 10
-3.3125
 20
-40.2501
  0
ENDSEC
  0
SECTION
  2
OBJECTS
  0
DICTIONARY
  5
C
330
0
100
AcDbDictionary
281
     1
  3
ACAD_CIP_PREVIOUS_PRODUCT_INFO
350
4B4
  3
ACAD_COLOR
350
62
  3
ACAD_DETAILVIEWSTYLE
350
6A
  3
ACAD_GROUP
350
D
  3
ACAD_LAYOUT
350
61
  3
ACAD_MATERIAL
350
10
  3
ACAD_MLEADERSTYLE
350
65
  3
ACAD_MLINESTYLE
350
5E
  3
ACAD_PLOTSETTINGS
350
60
  3
ACAD_PLOTSTYLENAME
350
E
  3
ACAD_SCALELIST
350
42
  3
ACAD_SECTIONVIEWSTYLE
350
67
  3
ACAD_TABLESTYLE
350
63
  3
ACAD_VISUALSTYLE
350
29
  3
ACDB_RECOMPOSE_DATA
350
4D2
  3
AcDbVariableDictionary
350
4C5
  0
DICTIONARY
  5
4BB
330
54
100
AcDbDictionary
280
     1
281
     1
  3
ADSK_XREC_LAYER_RECONCILED
360
4BC
  0
DICTIONARY
  5
4BD
330
74
100
AcDbDictionary
280
     1
281
     1
  3
ADSK_XREC_LAYER_RECONCILED
360
4BE
  0
DICTIONARY
  5
4BF
330
75
100
AcDbDictionary
280
     1
281
     1
  3
ADSK_XREC_LAYER_RECONCILED
360
4C0
  0
DICTIONARY
  5
4C1
330
76
100
AcDbDictionary
280
     1
281
     1
  3
ADSK_XREC_LAYER_RECONCILED
360
4C2
  0
DICTIONARY
  5
4C3
330
77
100
AcDbDictionary
280
     1
281
     1
  3
ADSK_XREC_LAYER_RECONCILED
360
4C4
  0
XRECORD
  5
4B4
102
{ACAD_REACTORS
330
C
102
}
330
C
100
AcDbXrecord
280
     1
300
ACD
300
2013
300
85871ACD_2013_0F
  0
DICTIONARY
  5
62
102
{ACAD_REACTORS
330
C
102
}
330
C
100
AcDbDictionary
281
     1
  0
DICTIONARY
  5
6A
102
{ACAD_REACTORS
330
C
102
}
330
C
100
AcDbDictionary
281
     1
  3
Imperial24
350
6B
  0
DICTIONARY
  5
D
102
{ACAD_REACTORS
330
C
102
}
330
C
100
AcDbDictionary
281
     1
  0
DICTIONARY
  5
61
102
{ACAD_REACTORS
330
C
102
}
330
C
100
AcDbDictionary
281
     1
  3
Layout1
350
6F
  3
Model
350
73
  0
DICTIONARY
  5
10
102
{ACAD_REACTORS
330
C
102
}
330
C
100
AcDbDictionary
281
     1
  3
ByBlock
350
19
  3
ByLayer
350
11
  3
Global
350
21
  0
DICTIONARY
  5
65
102
{ACAD_REACTORS
330
C
102
}
330
C
100
AcDbDictionary
281
     1
  3
Standard
350
66
  0
DICTIONARY
  5
5E
102
{ACAD_REACTORS
330
C
102
}
330
C
100
AcDbDictionary
281
     1
  3
Standard
350
5F
  0
DICTIONARY
  5
60
102
{ACAD_REACTORS
330
C
102
}
330
C
100
AcDbDictionary
281
     1
  0
ACDBDICTIONARYWDFLT
  5
E
102
{ACAD_REACTORS
330
C
102
}
330
C
100
AcDbDictionary
281
     1
  3
Normal
350
F
100
AcDbDictionaryWithDefault
340
F
  0
DICTIONARY
  5
42
102
{ACAD_REACTORS
330
C
102
}
330
C
100
AcDbDictionary
281
     1
  3
A0
350
43
  3
A1
350
44
  3
A2
350
45
  3
A3
350
46
  3
A4
350
47
  3
A5
350
48
  3
A6
350
49
  3
A7
350
4A
  3
A8
350
4B
  3
A9
350
4C
  3
B0
350
4D
  3
B1
350
4E
  3
B2
350
4F
  3
B3
350
50
  3
B4
350
51
  3
B5
350
52
  3
B6
350
53
  0
DICTIONARY
  5
67
102
{ACAD_REACTORS
330
C
102
}
330
C
100
AcDbDictionary
281
     1
  3
Imperial24
350
69
  0
DICTIONARY
  5
63
102
{ACAD_REACTORS
330
C
102
}
330
C
100
AcDbDictionary
281
     1
  3
Standard
350
64
  0
DICTIONARY
  5
29
102
{ACAD_REACTORS
330
C
102
}
330
C
100
AcDbDictionary
281
     1
  3
2dWireframe
350
2F
  3
Basic
350
2E
  3
Brighten
350
35
  3
ColorChange
350
39
  3
Conceptual
350
32
  3
Dim
350
34
  3
EdgeColorOff
350
41
  3
Facepattern
350
38
  3
Flat
350
2A
  3
FlatWithEdges
350
2B
  3
Gouraud
350
2C
  3
GouraudWithEdges
350
2D
  3
Hidden
350
31
  3
JitterOff
350
3F
  3
Linepattern
350
37
  3
OverhangOff
350
40
  3
Realistic
350
33
  3
Shaded
350
3E
  3
Shaded with edges
350
3D
  3
Shades of Gray
350
3A
  3
Sketchy
350
3B
  3
Thicken
350
36
  3
Wireframe
350
30
  3
X-Ray
350
3C
  0
XRECORD
  5
4D2
102
{ACAD_REACTORS
330
C
102
}
330
C
100
AcDbXrecord
280
     1
 90
        1
330
64
  0
DICTIONARY
  5
4C5
102
{ACAD_REACTORS
330
C
102
}
330
C
100
AcDbDictionary
281
     1
  3
CANNOSCALE
350
4CB
  3
CMLEADERSTYLE
350
4C7
  3
CTABLESTYLE
350
4C6
  3
CVIEWDETAILSTYLE
350
4C8
  3
CVIEWSECTIONSTYLE
350
4C9
  3
LAYEREVAL
350
4CD
  3
LAYERNOTIFY
350
4CE
  3
LIGHTINGUNITS
350
4CC
  3
MSLTSCALE
350
4CA
  0
XRECORD
  5
4BC
102
{ACAD_REACTORS
330
4BB
102
}
330
4BB
100
AcDbXrecord
280
     1
290
     1
  0
XRECORD
  5
4BE
102
{ACAD_REACTORS
330
4BD
102
}
330
4BD
100
AcDbXrecord
280
     1
290
     1
  0
XRECORD
  5
4C0
102
{ACAD_REACTORS
330
4BF
102
}
330
4BF
100
AcDbXrecord
280
     1
290
     1
  0
XRECORD
  5
4C2
102
{ACAD_REACTORS
330
4C1
102
}
330
4C1
100
AcDbXrecord
280
     1
290
     1
  0
XRECORD
  5
4C4
102
{ACAD_REACTORS
330
4C3
102
}
330
4C3
100
AcDbXrecord
280
     1
290
     1
  0
ACDBDETAILVIEWSTYLE
  5
6B
102
{ACAD_REACTORS
330
6A
102
}
330
6A
100
AcDbModelDocViewStyle
 70
     0
  3
Imperial24
290
     0
100
AcDbDetailViewStyle
 70
     0
 71
     0
 90
        3
 71
     1
340
55
 62
   256
 40
0.24
340
0
 62
   256
 40
0.24
300

 40
0.36
280
     3
 71
     2
340
5C
 90
       25
 62
   256
 71
     3
340
55
 62
   256
 40
0.24
 90
        1
 40
0.75
 90
        1
300
%<\AcVar ViewType \f "%tc1">% %<\AcVar ViewDetailId>%\PSCALE %<\AcVar ViewScale \f "%sn">%
 71
     4
340
5C
 90
       25
 62
   256
340
5C
 90
       25
 62
   256
280
     0
  0
LAYOUT
  5
6F
102
{ACAD_REACTORS
330
61
102
}
330
61
100
AcDbPlotSettings
  1

  2
\\NLVNYMAC01MS301\NLNYMBW
  4

  6

 40
0.0
 41
0.0
 42
0.0
 43
0.0
 44
0.0
 45
0.0
 46
0.0
 47
0.0
 48
0.0
 49
0.0
140
0.0
141
0.0
142
1.0
143
1.0
 70
   688
 72
     0
 73
     0
 74
     5
  7

 75
    16
147
1.0
 76
     0
 77
     2
 78
   300
148
0.0
149
0.0
100
AcDbLayout
  1
Layout1
 70
     1
 71
     1
 10
0.0
 20
0.0
 11
12.0
 21
9.0
 12
0.0
 22
0.0
 32
0.0
 14
1.000000000000000E+20
 24
1.000000000000000E+20
 34
1.000000000000000E+20
 15
-1.000000000000000E+20
 25
-1.000000000000000E+20
 35
-1.000000000000000E+20
146
0.0
 13
0.0
 23
0.0
 33
0.0
 16
1.0
 26
0.0
 36
0.0
 17
0.0
 27
1.0
 37
0.0
 76
     0
330
6C
  0
LAYOUT
  5
73
102
{ACAD_REACTORS
330
61
102
}
330
61
100
AcDbPlotSettings
  1

  2
\\NLVNYMAC01MS301\NLNYMBW
  4

  6

 40
0.0
 41
0.0
 42
0.0
 43
0.0
 44
0.0
 45
0.0
 46
0.0
 47
0.0
 48
0.0
 49
0.0
140
0.0
141
0.0
142
1.0
143
1.0
 70
  1712
 72
     0
 73
     0
 74
     0
  7

 75
     0
147
1.0
 76
     0
 77
     2
 78
   300
148
0.0
149
0.0
100
AcDbLayout
  1
Model
 70
     1
 71
     0
 10
0.0
 20
0.0
 11
12.0
 21
9.0
 12
0.0
 22
0.0
 32
0.0
 14
0.0
 24
0.0
 34
0.0
 15
0.0
 25
0.0
 35
0.0
146
0.0
 13
0.0
 23
0.0
 33
0.0
 16
1.0
 26
0.0
 36
0.0
 17
0.0
 27
1.0
 37
0.0
 76
     0
330
70
331
79
  0
MATERIAL
  5
19
102
{ACAD_XDICTIONARY
360
1A
102
}
102
{ACAD_REACTORS
330
10
102
}
330
10
100
AcDbMaterial
  1
ByBlock
 72
     0
 43
0.0208333333333333
 43
0.0
 43
0.0
 43
0.0
 43
0.0
 43
0.0208333333333333
 43
0.0
 43
0.0
 43
0.0
 43
0.0
 43
1.0
 43
0.0
 43
0.0
 43
0.0
 43
0.0
 43
1.0
 77
     0
 47
0.0208333333333333
 47
0.0
 47
0.0
 47
0.0
 47
0.0
 47
0.0208333333333333
 47
0.0
 47
0.0
 47
0.0
 47
0.0
 47
1.0
 47
0.0
 47
0.0
 47
0.0
 47
0.0
 47
1.0
171
     0
 49
0.0208333333333333
 49
0.0
 49
0.0
 49
0.0
 49
0.0
 49
0.0208333333333333
 49
0.0
 49
0.0
 49
0.0
 49
0.0
 49
1.0
 49
0.0
 49
0.0
 49
0.0
 49
0.0
 49
1.0
175
     0
142
0.0208333333333333
142
0.0
142
0.0
142
0.0
142
0.0
142
0.0208333333333333
142
0.0
142
0.0
142
0.0
142
0.0
142
1.0
142
0.0
142
0.0
142
0.0
142
0.0
142
1.0
179
     0
144
0.0208333333333333
144
0.0
144
0.0
144
0.0
144
0.0
144
0.0208333333333333
144
0.0
144
0.0
144
0.0
144
0.0
144
1.0
144
0.0
144
0.0
144
0.0
144
0.0
144
1.0
147
0.0208333333333333
147
0.0
147
0.0
147
0.0
147
0.0
147
0.0208333333333333
147
0.0
147
0.0
147
0.0
147
0.0
147
1.0
147
0.0
147
0.0
147
0.0
147
0.0
147
1.0
  0
MATERIAL
  5
11
102
{ACAD_XDICTIONARY
360
12
102
}
102
{ACAD_REACTORS
330
10
102
}
330
10
100
AcDbMaterial
  1
ByLayer
 72
     0
 43
0.0208333333333333
 43
0.0
 43
0.0
 43
0.0
 43
0.0
 43
0.0208333333333333
 43
0.0
 43
0.0
 43
0.0
 43
0.0
 43
1.0
 43
0.0
 43
0.0
 43
0.0
 43
0.0
 43
1.0
 77
     0
 47
0.0208333333333333
 47
0.0
 47
0.0
 47
0.0
 47
0.0
 47
0.0208333333333333
 47
0.0
 47
0.0
 47
0.0
 47
0.0
 47
1.0
 47
0.0
 47
0.0
 47
0.0
 47
0.0
 47
1.0
171
     0
 49
0.0208333333333333
 49
0.0
 49
0.0
 49
0.0
 49
0.0
 49
0.0208333333333333
 49
0.0
 49
0.0
 49
0.0
 49
0.0
 49
1.0
 49
0.0
 49
0.0
 49
0.0
 49
0.0
 49
1.0
175
     0
142
0.0208333333333333
142
0.0
142
0.0
142
0.0
142
0.0
142
0.0208333333333333
142
0.0
142
0.0
142
0.0
142
0.0
142
1.0
142
0.0
142
0.0
142
0.0
142
0.0
142
1.0
179
     0
144
0.0208333333333333
144
0.0
144
0.0
144
0.0
144
0.0
144
0.0208333333333333
144
0.0
144
0.0
144
0.0
144
0.0
144
1.0
144
0.0
144
0.0
144
0.0
144
0.0
144
1.0
147
0.0208333333333333
147
0.0
147
0.0
147
0.0
147
0.0
147
0.0208333333333333
147
0.0
147
0.0
147
0.0
147
0.0
147
1.0
147
0.0
147
0.0
147
0.0
147
0.0
147
1.0
  0
MATERIAL
  5
21
102
{ACAD_XDICTIONARY
360
22
102
}
102
{ACAD_REACTORS
330
10
102
}
330
10
100
AcDbMaterial
  1
Global
 72
     0
 43
0.0208333333333333
 43
0.0
 43
0.0
 43
0.0
 43
0.0
 43
0.0208333333333333
 43
0.0
 43
0.0
 43
0.0
 43
0.0
 43
1.0
 43
0.0
 43
0.0
 43
0.0
 43
0.0
 43
1.0
 77
     0
 47
0.0208333333333333
 47
0.0
 47
0.0
 47
0.0
 47
0.0
 47
0.0208333333333333
 47
0.0
 47
0.0
 47
0.0
 47
0.0
 47
1.0
 47
0.0
 47
0.0
 47
0.0
 47
0.0
 47
1.0
171
     0
 49
0.0208333333333333
 49
0.0
 49
0.0
 49
0.0
 49
0.0
 49
0.0208333333333333
 49
0.0
 49
0.0
 49
0.0
 49
0.0
 49
1.0
 49
0.0
 49
0.0
 49
0.0
 49
0.0
 49
1.0
175
     0
142
0.0208333333333333
142
0.0
142
0.0
142
0.0
142
0.0
142
0.0208333333333333
142
0.0
142
0.0
142
0.0
142
0.0
142
1.0
142
0.0
142
0.0
142
0.0
142
0.0
142
1.0
179
     0
144
0.0208333333333333
144
0.0
144
0.0
144
0.0
144
0.0
144
0.0208333333333333
144
0.0
144
0.0
144
0.0
144
0.0
144
1.0
144
0.0
144
0.0
144
0.0
144
0.0
144
1.0
147
0.0208333333333333
147
0.0
147
0.0
147
0.0
147
0.0
147
0.0208333333333333
147
0.0
147
0.0
147
0.0
147
0.0
147
1.0
147
0.0
147
0.0
147
0.0
147
0.0
147
1.0
  0
MLEADERSTYLE
  5
66
102
{ACAD_REACTORS
330
65
102
}
330
65
100
AcDbMLeaderStyle
179
     2
170
     2
171
     1
172
     0
 90
        2
 40
0.0
 41
0.0
173
     1
 91
-1056964608
340
5A
 92
       -2
290
     1
 42
0.09
291
     1
 43
0.36
  3
Standard
 44
0.18
300

342
55
174
     1
178
     6
175
     1
176
     0
 93
-1056964608
 45
0.18
292
     0
297
     0
 46
0.18
 94
-1056964608
 47
1.0
 49
1.0
140
1.0
293
     1
141
0.0
294
     1
177
     0
142
1.0
295
     0
296
     0
143
0.125
271
     0
272
     9
273
     9
298
     0
  0
MLINESTYLE
  5
5F
102
{ACAD_REACTORS
330
5E
102
}
330
5E
100
AcDbMlineStyle
  2
STANDARD
 70
     0
  3

 62
   256
 51
90.0
 52
90.0
 71
     2
 49
0.5
 62
   256
  6
BYLAYER
 49
-0.5
 62
   256
  6
BYLAYER
  0
ACDBPLACEHOLDER
  5
F
102
{ACAD_REACTORS
330
E
102
}
330
E
  0
SCALE
  5
43
102
{ACAD_REACTORS
330
42
102
}
330
42
100
AcDbScale
 70
     0
300
1:1
140
1.0
141
1.0
290
     1
  0
SCALE
  5
44
102
{ACAD_REACTORS
330
42
102
}
330
42
100
AcDbScale
 70
     0
300
1/128" = 1'-0"
140
0.0078125
141
12.0
290
     0
  0
SCALE
  5
45
102
{ACAD_REACTORS
330
42
102
}
330
42
100
AcDbScale
 70
     0
300
1/64" = 1'-0"
140
0.015625
141
12.0
290
     0
  0
SCALE
  5
46
102
{ACAD_REACTORS
330
42
102
}
330
42
100
AcDbScale
 70
     0
300
1/32" = 1'-0"
140
0.03125
141
12.0
290
     0
  0
SCALE
  5
47
102
{ACAD_REACTORS
330
42
102
}
330
42
100
AcDbScale
 70
     0
300
1/16" = 1'-0"
140
0.0625
141
12.0
290
     0
  0
SCALE
  5
48
102
{ACAD_REACTORS
330
42
102
}
330
42
100
AcDbScale
 70
     0
300
3/32" = 1'-0"
140
0.09375
141
12.0
290
     0
  0
SCALE
  5
49
102
{ACAD_REACTORS
330
42
102
}
330
42
100
AcDbScale
 70
     0
300
1/8" = 1'-0"
140
0.125
141
12.0
290
     0
  0
SCALE
  5
4A
102
{ACAD_REACTORS
330
42
102
}
330
42
100
AcDbScale
 70
     0
300
3/16" = 1'-0"
140
0.1875
141
12.0
290
     0
  0
SCALE
  5
4B
102
{ACAD_REACTORS
330
42
102
}
330
42
100
AcDbScale
 70
     0
300
1/4" = 1'-0"
140
0.25
141
12.0
290
     0
  0
SCALE
  5
4C
102
{ACAD_REACTORS
330
42
102
}
330
42
100
AcDbScale
 70
     0
300
3/8" = 1'-0"
140
0.375
141
12.0
290
     0
  0
SCALE
  5
4D
102
{ACAD_REACTORS
330
42
102
}
330
42
100
AcDbScale
 70
     0
300
1/2" = 1'-0"
140
0.5
141
12.0
290
     0
  0
SCALE
  5
4E
102
{ACAD_REACTORS
330
42
102
}
330
42
100
AcDbScale
 70
     0
300
3/4" = 1'-0"
140
0.75
141
12.0
290
     0
  0
SCALE
  5
4F
102
{ACAD_REACTORS
330
42
102
}
330
42
100
AcDbScale
 70
     0
300
1" = 1'-0"
140
1.0
141
12.0
290
     0
  0
SCALE
  5
50
102
{ACAD_REACTORS
330
42
102
}
330
42
100
AcDbScale
 70
     0
300
1-1/2" = 1'-0"
140
1.5
141
12.0
290
     0
  0
SCALE
  5
51
102
{ACAD_REACTORS
330
42
102
}
330
42
100
AcDbScale
 70
     0
300
3" = 1'-0"
140
3.0
141
12.0
290
     0
  0
SCALE
  5
52
102
{ACAD_REACTORS
330
42
102
}
330
42
100
AcDbScale
 70
     0
300
6" = 1'-0"
140
6.0
141
12.0
290
     0
  0
SCALE
  5
53
102
{ACAD_REACTORS
330
42
102
}
330
42
100
AcDbScale
 70
     0
300
1'-0" = 1'-0"
140
12.0
141
12.0
290
     0
  0
ACDBSECTIONVIEWSTYLE
  5
69
102
{ACAD_REACTORS
330
67
102
}
330
67
100
AcDbModelDocViewStyle
 70
     0
  3
Imperial24
290
     0
100
AcDbSectionViewStyle
 70
     0
 71
     0
 90
       78
 71
     1
340
55
 62
   256
 40
0.24
340
0
340
0
 62
   256
 40
0.24
300
I, O, Q, S, X, Z
 40
0.48
 90
        3
 40
0.18
 90
        1
 71
     2
340
68
 90
       25
 62
   256
340
5C
 90
       50
 62
   256
 40
0.24
 40
0.0
 40
0.24
 71
     3
340
55
 62
   256
 40
0.24
 90
        1
 40
0.75
 90
        1
300
%<\AcVar ViewType \f "%tc1">% %<\AcVar ViewSectionStartId>%-%<\AcVar ViewSectionEndId>%\PSCALE %<\AcVar ViewScale \f "%sn">%
 71
     4
 62
   256
 62
   257
300
ANSI31
 40
1.0
 90
        0
290
     0
290
     0
 90
        6
 40
0.0
 40
1.570796326794896
 40
0.2617993877991494
 40
1.308996938995747
 40
-0.2617993877991494
 40
1.832595714594046
  0
TABLESTYLE
  5
64
102
{ACAD_XDICTIONARY
360
4D0
102
}
102
{ACAD_REACTORS
330
63
102
}
330
63
100
AcDbTableStyle
280
     0
  3
Standard
 70
     0
 71
     0
 40
0.06
 41
0.06
280
     0
281
     0
  7
STANDARD
140
0.18
170
     2
 62
     0
 63
     7
283
     0
 90
      512
 91
        0
  1

274
    -2
284
     1
 64
     0
275
    -2
285
     1
 65
     0
276
    -2
286
     1
 66
     0
277
    -2
287
     1
 67
     0
278
    -2
288
     1
 68
     0
279
    -2
289
     1
 69
     0
  7
STANDARD
140
0.25
170
     5
 62
     0
 63
     7
283
     0
 90
      512
 91
        0
  1

274
    -2
284
     1
 64
     0
275
    -2
285
     1
 65
     0
276
    -2
286
     1
 66
     0
277
    -2
287
     1
 67
     0
278
    -2
288
     1
 68
     0
279
    -2
289
     1
 69
     0
  7
STANDARD
140
0.18
170
     5
 62
     0
 63
     7
283
     0
 90
      512
 91
        0
  1

274
    -2
284
     1
 64
     0
275
    -2
285
     1
 65
     0
276
    -2
286
     1
 66
     0
277
    -2
287
     1
 67
     0
278
    -2
288
     1
 68
     0
279
    -2
289
     1
 69
     0
  0
VISUALSTYLE
  5
2F
102
{ACAD_REACTORS
330
29
102
}
330
29
100
AcDbVisualStyle
  2
2dWireframe
 70
     4
177
     3
291
     0
 70
    58
 90
        0
176
     1
 90
        2
176
     1
 90
        0
176
     1
 90
        0
176
     1
 40
0.6
176
     1
 40
30.0
176
     1
 62
     7
420
 16777215
176
     1
 90
        1
176
     1
 90
        4
176
     1
 62
     7
176
     1
 62
   257
176
     1
 90
        1
176
     1
 90
        1
176
     1
 40
1.0
176
     1
 90
        0
176
     1
 62
   257
176
     1
 40
1.0
176
     1
 90
        1
176
     1
 90
        6
176
     1
 90
        2
176
     1
 62
     7
176
     1
 90
        5
176
     1
 90
        0
176
     1
 90
        0
176
     1
290
     0
176
     1
 90
        1
176
     1
 40
0.0
176
     1
 90
        0
176
     1
290
     1
176
     1
290
     1
176
     1
290
     0
176
     1
290
     0
176
     1
290
     0
176
     1
290
     0
176
     1
290
     0
176
     1
290
     0
176
     1
290
     0
176
     1
 90
       50
176
     1
 40
0.0
176
     1
 40
1.0
176
     1
 90
        0
176
     1
 62
    18
420
        0
176
     1
 90
       50
176
     1
 90
        3
176
     1
 62
     5
420
      255
176
     1
290
     0
176
     1
 90
       50
176
     1
 90
       50
176
     1
 90
       50
176
     1
290
     0
176
     1
 90
       50
176
     1
 62
   256
176
     0
 40
1.0
176
     0
 90
        2
176
     1
  1
strokes_ogs.tif
176
     1
290
     0
176
     1
 40
1.0
176
     1
 40
1.0
176
     1
  0
VISUALSTYLE
  5
2E
102
{ACAD_REACTORS
330
29
102
}
330
29
100
AcDbVisualStyle
  2
Basic
 70
     7
177
     3
291
     1
 70
    58
 90
        1
176
     1
 90
        0
176
     1
 90
        1
176
     1
 90
        0
176
     1
 40
0.6
176
     1
 40
30.0
176
     1
 62
     7
420
 16777215
176
     1
 90
        0
176
     1
 90
        4
176
     1
 62
     7
176
     1
 62
   257
176
     1
 90
        1
176
     1
 90
        1
176
     1
 40
1.0
176
     1
 90
        8
176
     1
 62
     7
176
     1
 40
1.0
176
     1
 90
        1
176
     1
 90
        6
176
     1
 90
        2
176
     1
 62
     7
176
     1
 90
        5
176
     1
 90
        0
176
     1
 90
        0
176
     1
290
     0
176
     1
 90
        1
176
     1
 40
0.0
176
     1
 90
        0
176
     1
290
     0
176
     1
290
     1
176
     1
290
     1
176
     1
290
     0
176
     1
290
     0
176
     1
290
     0
176
     1
290
     0
176
     1
290
     0
176
     1
290
     0
176
     1
 90
       50
176
     1
 40
0.0
176
     1
 40
1.0
176
     1
 90
        0
176
     1
 62
    18
420
        0
176
     1
 90
       50
176
     1
 90
        3
176
     1
 62
     5
420
      255
176
     1
290
     0
176
     1
 90
       50
176
     1
 90
       50
176
     1
 90
       50
176
     1
290
     0
176
     1
 90
       50
176
     1
 62
   256
176
     0
 40
1.0
176
     0
 90
        2
176
     1
  1
strokes_ogs.tif
176
     1
290
     0
176
     1
 40
1.0
176
     1
 40
1.0
176
     1
  0
VISUALSTYLE
  5
35
102
{ACAD_REACTORS
330
29
102
}
330
29
100
AcDbVisualStyle
  2
Brighten
 70
    12
177
     3
291
     1
 70
    58
 90
        2
176
     1
 90
        2
176
     1
 90
        0
176
     1
 90
        0
176
     1
 40
0.6
176
     1
 40
30.0
176
     1
 62
     7
420
 16777215
176
     1
 90
        1
176
     1
 90
        4
176
     1
 62
     7
176
     1
 62
   257
176
     1
 90
        1
176
     1
 90
        1
176
     1
 40
1.0
176
     1
 90
        8
176
     1
 62
     7
176
     1
 40
1.0
176
     1
 90
        1
176
     1
 90
        6
176
     1
 90
        2
176
     1
 62
     7
176
     1
 90
        5
176
     1
 90
        0
176
     1
 90
        0
176
     1
290
     0
176
     1
 90
        1
176
     1
 40
50.0
176
     1
 90
        0
176
     1
290
     0
176
     1
290
     1
176
     1
290
     1
176
     1
290
     0
176
     1
290
     0
176
     1
290
     0
176
     1
290
     0
176
     1
290
     0
176
     1
290
     0
176
     1
 90
       50
176
     1
 40
0.0
176
     1
 40
1.0
176
     1
 90
        0
176
     1
 62
    18
420
        0
176
     1
 90
       50
176
     1
 90
        3
176
     1
 62
     5
420
      255
176
     1
290
     0
176
     1
 90
       50
176
     1
 90
       50
176
     1
 90
       50
176
     1
290
     0
176
     1
 90
       50
176
     1
 62
   256
176
     0
 40
1.0
176
     0
 90
        2
176
     1
  1
strokes_ogs.tif
176
     1
290
     0
176
     1
 40
1.0
176
     1
 40
1.0
176
     1
  0
VISUALSTYLE
  5
39
102
{ACAD_REACTORS
330
29
102
}
330
29
100
AcDbVisualStyle
  2
ColorChange
 70
    16
177
     3
291
     1
 70
    58
 90
        2
176
     1
 90
        2
176
     1
 90
        3
176
     1
 90
        0
176
     1
 40
0.6
176
     1
 40
30.0
176
     1
 62
     8
420
  8421504
176
     1
 90
        1
176
     1
 90
        4
176
     1
 62
     7
176
     1
 62
   257
176
     1
 90
        1
176
     1
 90
        1
176
     1
 40
1.0
176
     1
 90
        8
176
     1
 62
     8
420
  8421504
176
     1
 40
1.0
176
     1
 90
        1
176
     1
 90
        6
176
     1
 90
        2
176
     1
 62
     7
176
     1
 90
        5
176
     1
 90
        0
176
     1
 90
        0
176
     1
290
     0
176
     1
 90
        1
176
     1
 40
0.0
176
     1
 90
        0
176
     1
290
     0
176
     1
290
     1
176
     1
290
     1
176
     1
290
     0
176
     1
290
     0
176
     1
290
     0
176
     1
290
     0
176
     1
290
     0
176
     1
290
     0
176
     1
 90
       50
176
     1
 40
0.0
176
     1
 40
1.0
176
     1
 90
        0
176
     1
 62
    18
420
        0
176
     1
 90
       50
176
     1
 90
        3
176
     1
 62
     5
420
      255
176
     1
290
     0
176
     1
 90
       50
176
     1
 90
       50
176
     1
 90
       50
176
     1
290
     0
176
     1
 90
       50
176
     1
 62
   256
176
     0
 40
1.0
176
     0
 90
        2
176
     1
  1
strokes_ogs.tif
176
     1
290
     0
176
     1
 40
1.0
176
     1
 40
1.0
176
     1
  0
VISUALSTYLE
  5
32
102
{ACAD_REACTORS
330
29
102
}
330
29
100
AcDbVisualStyle
  2
Conceptual
 70
     9
177
     3
291
     0
 70
    58
 90
        3
176
     1
 90
        2
176
     1
 90
        0
176
     1
 90
        0
176
     1
 40
0.6
176
     1
 40
30.0
176
     1
 62
     7
420
 16777215
176
     1
 90
        2
176
     1
 90
        2
176
     1
 62
     7
176
     1
 62
   257
176
     1
 90
        1
176
     1
 90
        1
176
     1
 40
179.0
176
     1
 90
        8
176
     1
 62
     7
176
     1
 40
1.0
176
     1
 90
        1
176
     1
 90
        6
176
     1
 90
        2
176
     1
 62
     7
176
     1
 90
        3
176
     1
 90
        0
176
     1
 90
        0
176
     1
290
     0
176
     1
 90
        1
176
     1
 40
0.0
176
     1
 90
        0
176
     1
290
     0
176
     1
290
     1
176
     1
290
     1
176
     1
290
     0
176
     1
290
     0
176
     1
290
     0
176
     1
290
     0
176
     1
290
     0
176
     1
290
     0
176
     1
 90
       50
176
     1
 40
0.0
176
     1
 40
1.0
176
     1
 90
        0
176
     1
 62
    18
420
        0
176
     1
 90
       50
176
     1
 90
        3
176
     1
 62
     5
420
      255
176
     1
290
     0
176
     1
 90
       50
176
     1
 90
       50
176
     1
 90
       50
176
     1
290
     0
176
     1
 90
       50
176
     1
 62
   256
176
     0
 40
1.0
176
     0
 90
        2
176
     1
  1
strokes_ogs.tif
176
     1
290
     0
176
     1
 40
1.0
176
     1
 40
1.0
176
     1
  0
VISUALSTYLE
  5
34
102
{ACAD_REACTORS
330
29
102
}
330
29
100
AcDbVisualStyle
  2
Dim
 70
    11
177
     3
291
     1
 70
    58
 90
        2
176
     1
 90
        2
176
     1
 90
        0
176
     1
 90
        0
176
     1
 40
0.6
176
     1
 40
30.0
176
     1
 62
     7
420
 16777215
176
     1
 90
        1
176
     1
 90
        4
176
     1
 62
     7
176
     1
 62
   257
176
     1
 90
        1
176
     1
 90
        1
176
     1
 40
1.0
176
     1
 90
        8
176
     1
 62
     7
176
     1
 40
1.0
176
     1
 90
        1
176
     1
 90
        6
176
     1
 90
        2
176
     1
 62
     7
176
     1
 90
        5
176
     1
 90
        0
176
     1
 90
        0
176
     1
290
     0
176
     1
 90
        1
176
     1
 40
-50.0
176
     1
 90
        0
176
     1
290
     0
176
     1
290
     1
176
     1
290
     1
176
     1
290
     0
176
     1
290
     0
176
     1
290
     0
176
     1
290
     0
176
     1
290
     0
176
     1
290
     0
176
     1
 90
       50
176
     1
 40
0.0
176
     1
 40
1.0
176
     1
 90
        0
176
     1
 62
    18
420
        0
176
     1
 90
       50
176
     1
 90
        3
176
     1
 62
     5
420
      255
176
     1
290
     0
176
     1
 90
       50
176
     1
 90
       50
176
     1
 90
       50
176
     1
290
     0
176
     1
 90
       50
176
     1
 62
   256
176
     0
 40
1.0
176
     0
 90
        2
176
     1
  1
strokes_ogs.tif
176
     1
290
     0
176
     1
 40
1.0
176
     1
 40
1.0
176
     1
  0
VISUALSTYLE
  5
41
102
{ACAD_REACTORS
330
29
102
}
330
29
100
AcDbVisualStyle
  2
EdgeColorOff
 70
    22
177
     3
291
     1
 70
    58
 90
        2
176
     0
 90
        2
176
     0
 90
        0
176
     0
 90
        0
176
     0
 40
0.6
176
     0
 40
30.0
176
     0
 62
     7
420
 16777215
176
     0
 90
        1
176
     0
 90
        4
176
     0
 62
     7
176
     0
 62
   257
176
     0
 90
        1
176
     0
 90
        1
176
     0
 40
1.0
176
     0
 90
        8
176
     2
 62
     7
176
     0
 40
1.0
176
     0
 90
        1
176
     0
 90
        6
176
     0
 90
        2
176
     0
 62
     7
176
     0
 90
        5
176
     0
 90
        0
176
     0
 90
        0
176
     0
290
     0
176
     0
 90
        1
176
     0
 40
0.0
176
     0
 90
        0
176
     0
290
     0
176
     1
290
     1
176
     1
290
     1
176
     1
290
     0
176
     1
290
     0
176
     1
290
     0
176
     1
290
     0
176
     1
290
     0
176
     1
290
     0
176
     1
 90
       50
176
     0
 40
0.0
176
     0
 40
1.0
176
     0
 90
        0
176
     0
 62
    18
420
        0
176
     0
 90
       50
176
     0
 90
        3
176
     0
 62
     5
420
      255
176
     0
290
     0
176
     1
 90
       50
176
     0
 90
       50
176
     0
 90
       50
176
     0
290
     0
176
     1
 90
       50
176
     0
 62
   256
176
     0
 40
1.0
176
     0
 90
        2
176
     0
  1
strokes_ogs.tif
176
     0
290
     0
176
     1
 40
1.0
176
     0
 40
1.0
176
     0
  0
VISUALSTYLE
  5
38
102
{ACAD_REACTORS
330
29
102
}
330
29
100
AcDbVisualStyle
  2
Facepattern
 70
    15
177
     3
291
     1
 70
    58
 90
        2
176
     1
 90
        2
176
     1
 90
        0
176
     1
 90
        0
176
     1
 40
0.6
176
     1
 40
30.0
176
     1
 62
     7
420
 16777215
176
     1
 90
        1
176
     1
 90
        4
176
     1
 62
     7
176
     1
 62
   257
176
     1
 90
        1
176
     1
 90
        1
176
     1
 40
1.0
176
     1
 90
        8
176
     1
 62
     7
176
     1
 40
1.0
176
     1
 90
        1
176
     1
 90
        6
176
     1
 90
        2
176
     1
 62
     7
176
     1
 90
        5
176
     1
 90
        0
176
     1
 90
        0
176
     1
290
     0
176
     1
 90
        1
176
     1
 40
0.0
176
     1
 90
        0
176
     1
290
     0
176
     1
290
     1
176
     1
290
     1
176
     1
290
     0
176
     1
290
     0
176
     1
290
     0
176
     1
290
     0
176
     1
290
     0
176
     1
290
     0
176
     1
 90
       50
176
     1
 40
0.0
176
     1
 40
1.0
176
     1
 90
        0
176
     1
 62
    18
420
        0
176
     1
 90
       50
176
     1
 90
        3
176
     1
 62
     5
420
      255
176
     1
290
     0
176
     1
 90
       50
176
     1
 90
       50
176
     1
 90
       50
176
     1
290
     0
176
     1
 90
       50
176
     1
 62
   256
176
     0
 40
1.0
176
     0
 90
        2
176
     1
  1
strokes_ogs.tif
176
     1
290
     0
176
     1
 40
1.0
176
     1
 40
1.0
176
     1
  0
VISUALSTYLE
  5
2A
102
{ACAD_REACTORS
330
29
102
}
330
29
100
AcDbVisualStyle
  2
Flat
 70
     0
177
     3
291
     1
 70
    58
 90
        2
176
     1
 90
        1
176
     1
 90
        1
176
     1
 90
        2
176
     1
 40
0.6
176
     1
 40
30.0
176
     1
 62
     7
420
 16777215
176
     1
 90
        0
176
     1
 90
        0
176
     1
 62
     7
176
     1
 62
   257
176
     1
 90
        1
176
     1
 90
        1
176
     1
 40
1.0
176
     1
 90
        8
176
     1
 62
     7
176
     1
 40
1.0
176
     1
 90
        1
176
     1
 90
        6
176
     1
 90
        2
176
     1
 62
     7
176
     1
 90
        5
176
     1
 90
        0
176
     1
 90
        0
176
     1
290
     0
176
     1
 90
       13
176
     1
 40
0.0
176
     1
 90
        0
176
     1
290
     0
176
     1
290
     1
176
     1
290
     1
176
     1
290
     0
176
     1
290
     0
176
     1
290
     0
176
     1
290
     0
176
     1
290
     0
176
     1
290
     0
176
     1
 90
       50
176
     1
 40
0.0
176
     1
 40
1.0
176
     1
 90
        0
176
     1
 62
    18
420
        0
176
     1
 90
       50
176
     1
 90
        3
176
     1
 62
     5
420
      255
176
     1
290
     0
176
     1
 90
       50
176
     1
 90
       50
176
     1
 90
       50
176
     1
290
     0
176
     1
 90
       50
176
     1
 62
   256
176
     0
 40
1.0
176
     0
 90
        2
176
     1
  1
strokes_ogs.tif
176
     1
290
     0
176
     1
 40
1.0
176
     1
 40
1.0
176
     1
  0
VISUALSTYLE
  5
2B
102
{ACAD_REACTORS
330
29
102
}
330
29
100
AcDbVisualStyle
  2
FlatWithEdges
 70
     1
177
     3
291
     1
 70
    58
 90
        2
176
     1
 90
        1
176
     1
 90
        1
176
     1
 90
        2
176
     1
 40
0.6
176
     1
 40
30.0
176
     1
 62
     7
420
 16777215
176
     1
 90
        1
176
     1
 90
        0
176
     1
 62
     7
176
     1
 62
   257
176
     1
 90
        1
176
     1
 90
        1
176
     1
 40
1.0
176
     1
 90
        0
176
     1
 62
   257
176
     1
 40
1.0
176
     1
 90
        1
176
     1
 90
        6
176
     1
 90
        2
176
     1
 62
     7
176
     1
 90
        5
176
     1
 90
        0
176
     1
 90
        0
176
     1
290
     0
176
     1
 90
       13
176
     1
 40
0.0
176
     1
 90
        0
176
     1
290
     0
176
     1
290
     1
176
     1
290
     1
176
     1
290
     0
176
     1
290
     0
176
     1
290
     0
176
     1
290
     0
176
     1
290
     0
176
     1
290
     0
176
     1
 90
       50
176
     1
 40
0.0
176
     1
 40
1.0
176
     1
 90
        0
176
     1
 62
    18
420
        0
176
     1
 90
       50
176
     1
 90
        3
176
     1
 62
     5
420
      255
176
     1
290
     0
176
     1
 90
       50
176
     1
 90
       50
176
     1
 90
       50
176
     1
290
     0
176
     1
 90
       50
176
     1
 62
   256
176
     0
 40
1.0
176
     0
 90
        2
176
     1
  1
strokes_ogs.tif
176
     1
290
     0
176
     1
 40
1.0
176
     1
 40
1.0
176
     1
  0
VISUALSTYLE
  5
2C
102
{ACAD_REACTORS
330
29
102
}
330
29
100
AcDbVisualStyle
  2
Gouraud
 70
     2
177
     3
291
     1
 70
    58
 90
        2
176
     1
 90
        2
176
     1
 90
        1
176
     1
 90
        2
176
     1
 40
0.6
176
     1
 40
30.0
176
     1
 62
     7
420
 16777215
176
     1
 90
        0
176
     1
 90
        0
176
     1
 62
     7
176
     1
 62
   257
176
     1
 90
        1
176
     1
 90
        1
176
     1
 40
1.0
176
     1
 90
        0
176
     1
 62
     7
176
     1
 40
1.0
176
     1
 90
        1
176
     1
 90
        6
176
     1
 90
        2
176
     1
 62
     7
176
     1
 90
        5
176
     1
 90
        0
176
     1
 90
        0
176
     1
290
     0
176
     1
 90
       13
176
     1
 40
0.0
176
     1
 90
        0
176
     1
290
     0
176
     1
290
     1
176
     1
290
     1
176
     1
290
     0
176
     1
290
     0
176
     1
290
     0
176
     1
290
     0
176
     1
290
     0
176
     1
290
     0
176
     1
 90
       50
176
     1
 40
0.0
176
     1
 40
1.0
176
     1
 90
        0
176
     1
 62
    18
420
        0
176
     1
 90
       50
176
     1
 90
        3
176
     1
 62
     5
420
      255
176
     1
290
     0
176
     1
 90
       50
176
     1
 90
       50
176
     1
 90
       50
176
     1
290
     0
176
     1
 90
       50
176
     1
 62
   256
176
     0
 40
1.0
176
     0
 90
        2
176
     1
  1
strokes_ogs.tif
176
     1
290
     0
176
     1
 40
1.0
176
     1
 40
1.0
176
     1
  0
VISUALSTYLE
  5
2D
102
{ACAD_REACTORS
330
29
102
}
330
29
100
AcDbVisualStyle
  2
GouraudWithEdges
 70
     3
177
     3
291
     1
 70
    58
 90
        2
176
     1
 90
        2
176
     1
 90
        1
176
     1
 90
        2
176
     1
 40
0.6
176
     1
 40
30.0
176
     1
 62
     7
420
 16777215
176
     1
 90
        1
176
     1
 90
        0
176
     1
 62
     7
176
     1
 62
   257
176
     1
 90
        1
176
     1
 90
        1
176
     1
 40
1.0
176
     1
 90
        0
176
     1
 62
   257
176
     1
 40
1.0
176
     1
 90
        1
176
     1
 90
        6
176
     1
 90
        2
176
     1
 62
     7
176
     1
 90
        5
176
     1
 90
        0
176
     1
 90
        0
176
     1
290
     0
176
     1
 90
       13
176
     1
 40
0.0
176
     1
 90
        0
176
     1
290
     0
176
     1
290
     1
176
     1
290
     1
176
     1
290
     0
176
     1
290
     0
176
     1
290
     0
176
     1
290
     0
176
     1
290
     0
176
     1
290
     0
176
     1
 90
       50
176
     1
 40
0.0
176
     1
 40
1.0
176
     1
 90
        0
176
     1
 62
    18
420
        0
176
     1
 90
       50
176
     1
 90
        3
176
     1
 62
     5
420
      255
176
     1
290
     0
176
     1
 90
       50
176
     1
 90
       50
176
     1
 90
       50
176
     1
290
     0
176
     1
 90
       50
176
     1
 62
   256
176
     0
 40
1.0
176
     0
 90
        2
176
     1
  1
strokes_ogs.tif
176
     1
290
     0
176
     1
 40
1.0
176
     1
 40
1.0
176
     1
  0
VISUALSTYLE
  5
31
102
{ACAD_REACTORS
330
29
102
}
330
29
100
AcDbVisualStyle
  2
Hidden
 70
     6
177
     3
291
     0
 70
    58
 90
        1
176
     1
 90
        2
176
     1
 90
        2
176
     1
 90
        0
176
     1
 40
0.6
176
     1
 40
30.0
176
     1
 62
     7
420
 16777215
176
     1
 90
        2
176
     1
 90
        2
176
     1
 62
     7
176
     1
 62
   257
176
     1
 90
        2
176
     1
 90
        1
176
     1
 40
40.0
176
     1
 90
        0
176
     1
 62
   257
176
     1
 40
1.0
176
     1
 90
        1
176
     1
 90
        6
176
     1
 90
        2
176
     1
 62
     7
176
     1
 90
        3
176
     1
 90
        0
176
     1
 90
        0
176
     1
290
     0
176
     1
 90
        1
176
     1
 40
0.0
176
     1
 90
        0
176
     1
290
     0
176
     1
290
     1
176
     1
290
     1
176
     1
290
     0
176
     1
290
     0
176
     1
290
     0
176
     1
290
     0
176
     1
290
     0
176
     1
290
     0
176
     1
 90
       50
176
     1
 40
0.0
176
     1
 40
1.0
176
     1
 90
        0
176
     1
 62
    18
420
        0
176
     1
 90
       50
176
     1
 90
        3
176
     1
 62
     5
420
      255
176
     1
290
     0
176
     1
 90
       50
176
     1
 90
       50
176
     1
 90
       50
176
     1
290
     0
176
     1
 90
       50
176
     1
 62
   256
176
     0
 40
1.0
176
     0
 90
        2
176
     1
  1
strokes_ogs.tif
176
     1
290
     0
176
     1
 40
1.0
176
     1
 40
1.0
176
     1
  0
VISUALSTYLE
  5
3F
102
{ACAD_REACTORS
330
29
102
}
330
29
100
AcDbVisualStyle
  2
JitterOff
 70
    20
177
     3
291
     1
 70
    58
 90
        2
176
     0
 90
        2
176
     0
 90
        0
176
     0
 90
        0
176
     0
 40
0.6
176
     0
 40
30.0
176
     0
 62
     7
420
 16777215
176
     0
 90
        1
176
     0
 90
        4
176
     0
 62
     7
176
     0
 62
   257
176
     0
 90
        1
176
     0
 90
        1
176
     0
 40
1.0
176
     0
 90
       10
176
     2
 62
     7
176
     0
 40
1.0
176
     0
 90
        1
176
     0
 90
        6
176
     0
 90
        2
176
     0
 62
     7
176
     0
 90
        5
176
     0
 90
        0
176
     0
 90
        0
176
     0
290
     0
176
     0
 90
        1
176
     0
 40
0.0
176
     0
 90
        0
176
     0
290
     0
176
     1
290
     1
176
     1
290
     1
176
     1
290
     0
176
     1
290
     0
176
     1
290
     0
176
     1
290
     0
176
     1
290
     0
176
     1
290
     0
176
     1
 90
       50
176
     0
 40
0.0
176
     0
 40
1.0
176
     0
 90
        0
176
     0
 62
    18
420
        0
176
     0
 90
       50
176
     0
 90
        3
176
     0
 62
     5
420
      255
176
     0
290
     0
176
     1
 90
       50
176
     0
 90
       50
176
     0
 90
       50
176
     0
290
     0
176
     1
 90
       50
176
     0
 62
   256
176
     0
 40
1.0
176
     0
 90
        2
176
     0
  1
strokes_ogs.tif
176
     0
290
     0
176
     1
 40
1.0
176
     0
 40
1.0
176
     0
  0
VISUALSTYLE
  5
37
102
{ACAD_REACTORS
330
29
102
}
330
29
100
AcDbVisualStyle
  2
Linepattern
 70
    14
177
     3
291
     1
 70
    58
 90
        2
176
     1
 90
        2
176
     1
 90
        0
176
     1
 90
        0
176
     1
 40
0.6
176
     1
 40
30.0
176
     1
 62
     7
420
 16777215
176
     1
 90
        1
176
     1
 90
        4
176
     1
 62
     7
176
     1
 62
   257
176
     1
 90
        7
176
     1
 90
        7
176
     1
 40
1.0
176
     1
 90
        8
176
     1
 62
     7
176
     1
 40
1.0
176
     1
 90
        1
176
     1
 90
        6
176
     1
 90
        2
176
     1
 62
     7
176
     1
 90
        5
176
     1
 90
        0
176
     1
 90
        0
176
     1
290
     0
176
     1
 90
        1
176
     1
 40
0.0
176
     1
 90
        0
176
     1
290
     0
176
     1
290
     1
176
     1
290
     1
176
     1
290
     0
176
     1
290
     0
176
     1
290
     0
176
     1
290
     0
176
     1
290
     0
176
     1
290
     0
176
     1
 90
       50
176
     1
 40
0.0
176
     1
 40
1.0
176
     1
 90
        0
176
     1
 62
    18
420
        0
176
     1
 90
       50
176
     1
 90
        3
176
     1
 62
     5
420
      255
176
     1
290
     0
176
     1
 90
       50
176
     1
 90
       50
176
     1
 90
       50
176
     1
290
     0
176
     1
 90
       50
176
     1
 62
   256
176
     0
 40
1.0
176
     0
 90
        2
176
     1
  1
strokes_ogs.tif
176
     1
290
     0
176
     1
 40
1.0
176
     1
 40
1.0
176
     1
  0
VISUALSTYLE
  5
40
102
{ACAD_REACTORS
330
29
102
}
330
29
100
AcDbVisualStyle
  2
OverhangOff
 70
    21
177
     3
291
     1
 70
    58
 90
        2
176
     0
 90
        2
176
     0
 90
        0
176
     0
 90
        0
176
     0
 40
0.6
176
     0
 40
30.0
176
     0
 62
     7
420
 16777215
176
     0
 90
        1
176
     0
 90
        4
176
     0
 62
     7
176
     0
 62
   257
176
     0
 90
        1
176
     0
 90
        1
176
     0
 40
1.0
176
     0
 90
        9
176
     2
 62
     7
176
     0
 40
1.0
176
     0
 90
        1
176
     0
 90
        6
176
     0
 90
        2
176
     0
 62
     7
176
     0
 90
        5
176
     0
 90
        0
176
     0
 90
        0
176
     0
290
     0
176
     0
 90
        1
176
     0
 40
0.0
176
     0
 90
        0
176
     0
290
     0
176
     1
290
     1
176
     1
290
     1
176
     1
290
     0
176
     1
290
     0
176
     1
290
     0
176
     1
290
     0
176
     1
290
     0
176
     1
290
     0
176
     1
 90
       50
176
     0
 40
0.0
176
     0
 40
1.0
176
     0
 90
        0
176
     0
 62
    18
420
        0
176
     0
 90
       50
176
     0
 90
        3
176
     0
 62
     5
420
      255
176
     0
290
     0
176
     1
 90
       50
176
     0
 90
       50
176
     0
 90
       50
176
     0
290
     0
176
     1
 90
       50
176
     0
 62
   256
176
     0
 40
1.0
176
     0
 90
        2
176
     0
  1
strokes_ogs.tif
176
     0
290
     0
176
     1
 40
1.0
176
     0
 40
1.0
176
     0
  0
VISUALSTYLE
  5
33
102
{ACAD_REACTORS
330
29
102
}
330
29
100
AcDbVisualStyle
  2
Realistic
 70
     8
177
     3
291
     0
 70
    58
 90
        2
176
     1
 90
        3
176
     1
 90
        0
176
     1
 90
        2
176
     1
 40
0.6
176
     1
 40
30.0
176
     1
 62
     7
420
 16777215
176
     1
 90
        0
176
     1
 90
        0
176
     1
 62
     7
176
     1
 62
   257
176
     1
 90
        1
176
     1
 90
        1
176
     1
 40
1.0
176
     1
 90
        8
176
     1
 62
   257
176
     1
 40
1.0
176
     1
 90
        1
176
     1
 90
        6
176
     1
 90
        2
176
     1
 62
     7
176
     1
 90
        3
176
     1
 90
        0
176
     1
 90
        0
176
     1
290
     0
176
     1
 90
       13
176
     1
 40
0.0
176
     1
 90
        0
176
     1
290
     0
176
     1
290
     1
176
     1
290
     1
176
     1
290
     0
176
     1
290
     0
176
     1
290
     0
176
     1
290
     0
176
     1
290
     0
176
     1
290
     0
176
     1
 90
       50
176
     1
 40
0.0
176
     1
 40
1.0
176
     1
 90
        0
176
     1
 62
    18
420
        0
176
     1
 90
       50
176
     1
 90
        3
176
     1
 62
     5
420
      255
176
     1
290
     0
176
     1
 90
       50
176
     1
 90
       50
176
     1
 90
       50
176
     1
290
     0
176
     1
 90
       50
176
     1
 62
   256
176
     0
 40
1.0
176
     0
 90
        2
176
     1
  1
strokes_ogs.tif
176
     1
290
     0
176
     1
 40
1.0
176
     1
 40
1.0
176
     1
  0
VISUALSTYLE
  5
3E
102
{ACAD_REACTORS
330
29
102
}
330
29
100
AcDbVisualStyle
  2
Shaded
 70
    27
177
     3
291
     0
 70
    58
 90
        2
176
     1
 90
        2
176
     1
 90
        1
176
     1
 90
        2
176
     1
 40
0.6
176
     1
 40
30.0
176
     1
 62
     7
420
 16777215
176
     1
 90
        0
176
     1
 90
        4
176
     1
 62
     7
176
     1
 62
   257
176
     1
 90
        1
176
     1
 90
        1
176
     1
 40
1.0
176
     1
 90
        8
176
     1
 62
   257
176
     1
 40
1.0
176
     1
 90
        1
176
     1
 90
        6
176
     1
 90
        2
176
     1
 62
     8
420
  7895160
176
     1
 90
        3
176
     1
 90
        0
176
     1
 90
        0
176
     1
290
     0
176
     1
 90
        5
176
     1
 40
0.0
176
     1
 90
        0
176
     1
290
     0
176
     1
290
     1
176
     1
290
     1
176
     1
290
     0
176
     1
290
     0
176
     1
290
     0
176
     1
290
     0
176
     1
290
     0
176
     1
290
     0
176
     1
 90
       50
176
     1
 40
0.0
176
     1
 40
1.0
176
     1
 90
        0
176
     1
 62
    18
420
        0
176
     1
 90
       50
176
     1
 90
        3
176
     1
 62
     5
420
      255
176
     1
290
     0
176
     1
 90
       50
176
     1
 90
       50
176
     1
 90
       50
176
     1
290
     0
176
     1
 90
       50
176
     1
 62
   256
176
     0
 40
1.0
176
     0
 90
        2
176
     1
  1
strokes_ogs.tif
176
     1
290
     0
176
     1
 40
1.0
176
     1
 40
1.0
176
     1
  0
VISUALSTYLE
  5
3D
102
{ACAD_REACTORS
330
29
102
}
330
29
100
AcDbVisualStyle
  2
Shaded with edges
 70
    26
177
     3
291
     0
 70
    58
 90
        2
176
     1
 90
        2
176
     1
 90
        1
176
     1
 90
        2
176
     1
 40
0.6
176
     1
 40
30.0
176
     1
 62
     7
420
 16777215
176
     1
 90
        1
176
     1
 90
       10
176
     1
 62
     7
176
     1
 62
   257
176
     1
 90
        2
176
     1
 90
        1
176
     1
 40
1.0
176
     1
 90
        8
176
     1
 62
   257
176
     1
 40
1.0
176
     1
 90
        1
176
     1
 90
        6
176
     1
 90
        2
176
     1
 62
     7
176
     1
 90
        3
176
     1
 90
        0
176
     1
 90
        0
176
     1
290
     0
176
     1
 90
        5
176
     1
 40
0.0
176
     1
 90
        0
176
     1
290
     0
176
     1
290
     1
176
     1
290
     1
176
     1
290
     0
176
     1
290
     0
176
     1
290
     0
176
     1
290
     0
176
     1
290
     0
176
     1
290
     0
176
     1
 90
       50
176
     1
 40
0.0
176
     1
 40
1.0
176
     1
 90
        0
176
     1
 62
    18
420
        0
176
     1
 90
       50
176
     1
 90
        3
176
     1
 62
     5
420
      255
176
     1
290
     0
176
     1
 90
       50
176
     1
 90
       50
176
     1
 90
       50
176
     1
290
     0
176
     1
 90
       50
176
     1
 62
   256
176
     0
 40
1.0
176
     0
 90
        2
176
     1
  1
strokes_ogs.tif
176
     1
290
     0
176
     1
 40
1.0
176
     1
 40
1.0
176
     1
  0
VISUALSTYLE
  5
3A
102
{ACAD_REACTORS
330
29
102
}
330
29
100
AcDbVisualStyle
  2
Shades of Gray
 70
    23
177
     3
291
     0
 70
    58
 90
        2
176
     1
 90
        2
176
     1
 90
        3
176
     1
 90
        0
176
     1
 40
0.6
176
     1
 40
30.0
176
     1
 62
     7
420
 16777215
176
     1
 90
        2
176
     1
 90
        2
176
     1
 62
     7
176
     1
 62
     7
176
     1
 90
        1
176
     1
 90
        1
176
     1
 40
40.0
176
     1
 90
        8
176
     1
 62
     7
176
     1
 40
1.0
176
     1
 90
        1
176
     1
 90
        6
176
     1
 90
        2
176
     1
 62
     7
176
     1
 90
        3
176
     1
 90
        0
176
     1
 90
        0
176
     1
290
     0
176
     1
 90
        1
176
     1
 40
0.0
176
     1
 90
        0
176
     1
290
     0
176
     1
290
     1
176
     1
290
     1
176
     1
290
     0
176
     1
290
     0
176
     1
290
     0
176
     1
290
     0
176
     1
290
     0
176
     1
290
     0
176
     1
 90
       50
176
     1
 40
0.0
176
     1
 40
1.0
176
     1
 90
        0
176
     1
 62
    18
420
        0
176
     1
 90
       50
176
     1
 90
        3
176
     1
 62
     5
420
      255
176
     1
290
     0
176
     1
 90
       50
176
     1
 90
       50
176
     1
 90
       50
176
     1
290
     0
176
     1
 90
       50
176
     1
 62
   256
176
     0
 40
1.0
176
     0
 90
        2
176
     1
  1
strokes_ogs.tif
176
     1
290
     0
176
     1
 40
1.0
176
     1
 40
1.0
176
     1
  0
VISUALSTYLE
  5
3B
102
{ACAD_REACTORS
330
29
102
}
330
29
100
AcDbVisualStyle
  2
Sketchy
 70
    24
177
     3
291
     0
 70
    58
 90
        1
176
     1
 90
        2
176
     1
 90
        2
176
     1
 90
        0
176
     1
 40
0.6
176
     1
 40
30.0
176
     1
 62
     7
420
 16777215
176
     1
 90
        2
176
     1
 90
        2
176
     1
 62
     7
176
     1
 62
     7
176
     1
 90
        1
176
     1
 90
        1
176
     1
 40
40.0
176
     1
 90
       11
176
     1
 62
     7
176
     1
 40
1.0
176
     1
 90
        1
176
     1
 90
        6
176
     1
 90
        2
176
     1
 62
     7
176
     1
 90
        6
176
     1
 90
        0
176
     1
 90
        0
176
     1
290
     0
176
     1
 90
        1
176
     1
 40
0.0
176
     1
 90
        0
176
     1
290
     0
176
     1
290
     1
176
     1
290
     1
176
     1
290
     0
176
     1
290
     0
176
     1
290
     0
176
     1
290
     0
176
     1
290
     0
176
     1
290
     0
176
     1
 90
       50
176
     1
 40
0.0
176
     1
 40
1.0
176
     1
 90
        0
176
     1
 62
    18
420
        0
176
     1
 90
       50
176
     1
 90
        3
176
     1
 62
     5
420
      255
176
     1
290
     0
176
     1
 90
       50
176
     1
 90
       50
176
     1
 90
       50
176
     1
290
     0
176
     1
 90
       50
176
     1
 62
   256
176
     0
 40
1.0
176
     0
 90
        2
176
     1
  1
strokes_ogs.tif
176
     1
290
     0
176
     1
 40
1.0
176
     1
 40
1.0
176
     1
  0
VISUALSTYLE
  5
36
102
{ACAD_REACTORS
330
29
102
}
330
29
100
AcDbVisualStyle
  2
Thicken
 70
    13
177
     3
291
     1
 70
    58
 90
        2
176
     1
 90
        2
176
     1
 90
        0
176
     1
 90
        0
176
     1
 40
0.6
176
     1
 40
30.0
176
     1
 62
     7
420
 16777215
176
     1
 90
        1
176
     1
 90
        4
176
     1
 62
     7
176
     1
 62
   257
176
     1
 90
        1
176
     1
 90
        1
176
     1
 40
1.0
176
     1
 90
       12
176
     1
 62
     7
176
     1
 40
1.0
176
     1
 90
        1
176
     1
 90
        6
176
     1
 90
        2
176
     1
 62
     7
176
     1
 90
        5
176
     1
 90
        0
176
     1
 90
        0
176
     1
290
     0
176
     1
 90
        1
176
     1
 40
0.0
176
     1
 90
        0
176
     1
290
     0
176
     1
290
     1
176
     1
290
     1
176
     1
290
     0
176
     1
290
     0
176
     1
290
     0
176
     1
290
     0
176
     1
290
     0
176
     1
290
     0
176
     1
 90
       50
176
     1
 40
0.0
176
     1
 40
1.0
176
     1
 90
        0
176
     1
 62
    18
420
        0
176
     1
 90
       50
176
     1
 90
        3
176
     1
 62
     5
420
      255
176
     1
290
     0
176
     1
 90
       50
176
     1
 90
       50
176
     1
 90
       50
176
     1
290
     0
176
     1
 90
       50
176
     1
 62
   256
176
     0
 40
1.0
176
     0
 90
        2
176
     1
  1
strokes_ogs.tif
176
     1
290
     0
176
     1
 40
1.0
176
     1
 40
1.0
176
     1
  0
VISUALSTYLE
  5
30
102
{ACAD_REACTORS
330
29
102
}
330
29
100
AcDbVisualStyle
  2
Wireframe
 70
     5
177
     3
291
     0
 70
    58
 90
        0
176
     1
 90
        2
176
     1
 90
        0
176
     1
 90
        0
176
     1
 40
0.6
176
     1
 40
30.0
176
     1
 62
     7
420
 16777215
176
     1
 90
        1
176
     1
 90
        4
176
     1
 62
     7
176
     1
 62
   257
176
     1
 90
        1
176
     1
 90
        1
176
     1
 40
1.0
176
     1
 90
        0
176
     1
 62
   257
176
     1
 40
1.0
176
     1
 90
        1
176
     1
 90
        6
176
     1
 90
        2
176
     1
 62
     7
176
     1
 90
        3
176
     1
 90
        0
176
     1
 90
        0
176
     1
290
     0
176
     1
 90
        1
176
     1
 40
0.0
176
     1
 90
        0
176
     1
290
     0
176
     1
290
     1
176
     1
290
     1
176
     1
290
     0
176
     1
290
     0
176
     1
290
     0
176
     1
290
     0
176
     1
290
     0
176
     1
290
     0
176
     1
 90
       50
176
     1
 40
0.0
176
     1
 40
1.0
176
     1
 90
        0
176
     1
 62
    18
420
        0
176
     1
 90
       50
176
     1
 90
        3
176
     1
 62
     5
420
      255
176
     1
290
     0
176
     1
 90
       50
176
     1
 90
       50
176
     1
 90
       50
176
     1
290
     0
176
     1
 90
       50
176
     1
 62
   256
176
     0
 40
1.0
176
     0
 90
        2
176
     1
  1
strokes_ogs.tif
176
     1
290
     0
176
     1
 40
1.0
176
     1
 40
1.0
176
     1
  0
VISUALSTYLE
  5
3C
102
{ACAD_REACTORS
330
29
102
}
330
29
100
AcDbVisualStyle
  2
X-Ray
 70
    25
177
     3
291
     0
 70
    58
 90
        2
176
     1
 90
        2
176
     1
 90
        1
176
     1
 90
        1
176
     1
 40
0.5
176
     1
 40
30.0
176
     1
 62
     7
420
 16777215
176
     1
 90
        1
176
     1
 90
        0
176
     1
 62
     7
176
     1
 62
   257
176
     1
 90
        1
176
     1
 90
        1
176
     1
 40
1.0
176
     1
 90
        8
176
     1
 62
     7
176
     1
 40
1.0
176
     1
 90
        1
176
     1
 90
        6
176
     1
 90
        2
176
     1
 62
     7
176
     1
 90
        3
176
     1
 90
        0
176
     1
 90
        0
176
     1
290
     0
176
     1
 90
       13
176
     1
 40
0.0
176
     1
 90
        0
176
     1
290
     0
176
     1
290
     1
176
     1
290
     1
176
     1
290
     0
176
     1
290
     0
176
     1
290
     0
176
     1
290
     0
176
     1
290
     0
176
     1
290
     0
176
     1
 90
       50
176
     1
 40
0.0
176
     1
 40
1.0
176
     1
 90
        0
176
     1
 62
    18
420
        0
176
     1
 90
       50
176
     1
 90
        3
176
     1
 62
     5
420
      255
176
     1
290
     0
176
     1
 90
       50
176
     1
 90
       50
176
     1
 90
       50
176
     1
290
     0
176
     1
 90
       50
176
     1
 62
   256
176
     0
 40
1.0
176
     0
 90
        2
176
     1
  1
strokes_ogs.tif
176
     1
290
     0
176
     1
 40
1.0
176
     1
 40
1.0
176
     1
  0
DICTIONARYVAR
  5
4CB
102
{ACAD_REACTORS
330
4C5
102
}
330
4C5
100
DictionaryVariables
280
     0
  1
1:1
  0
DICTIONARYVAR
  5
4C7
102
{ACAD_REACTORS
330
4C5
102
}
330
4C5
100
DictionaryVariables
280
     0
  1
STANDARD
  0
DICTIONARYVAR
  5
4C6
102
{ACAD_REACTORS
330
4C5
102
}
330
4C5
100
DictionaryVariables
280
     0
  1
STANDARD
  0
DICTIONARYVAR
  5
4C8
102
{ACAD_REACTORS
330
4C5
102
}
330
4C5
100
DictionaryVariables
280
     0
  1
Imperial24
  0
DICTIONARYVAR
  5
4C9
102
{ACAD_REACTORS
330
4C5
102
}
330
4C5
100
DictionaryVariables
280
     0
  1
Imperial24
  0
DICTIONARYVAR
  5
4CD
102
{ACAD_REACTORS
330
4C5
102
}
330
4C5
100
DictionaryVariables
280
     0
  1
1
  0
DICTIONARYVAR
  5
4CE
102
{ACAD_REACTORS
330
4C5
102
}
330
4C5
100
DictionaryVariables
280
     0
  1
15
  0
DICTIONARYVAR
  5
4CC
102
{ACAD_REACTORS
330
4C5
102
}
330
4C5
100
DictionaryVariables
280
     0
  1
0
  0
DICTIONARYVAR
  5
4CA
102
{ACAD_REACTORS
330
4C5
102
}
330
4C5
100
DictionaryVariables
280
     0
  1
0
  0
DICTIONARY
  5
1A
330
19
100
AcDbDictionary
280
     1
281
     1
  3
BUMPTILE
360
1C
  3
DIFFUSETILE
360
1B
  3
OPACITYTILE
360
1F
  3
REFLECTIONTILE
360
1E
  3
REFRACTIONTILE
360
20
  3
SPECULARTILE
360
1D
  0
DICTIONARY
  5
12
330
11
100
AcDbDictionary
280
     1
281
     1
  3
BUMPTILE
360
14
  3
DIFFUSETILE
360
13
  3
OPACITYTILE
360
17
  3
REFLECTIONTILE
360
16
  3
REFRACTIONTILE
360
18
  3
SPECULARTILE
360
15
  0
DICTIONARY
  5
22
330
21
100
AcDbDictionary
280
     1
281
     1
  3
BUMPTILE
360
24
  3
DIFFUSETILE
360
23
  3
OPACITYTILE
360
27
  3
REFLECTIONTILE
360
26
  3
REFRACTIONTILE
360
28
  3
SPECULARTILE
360
25
  0
DICTIONARY
  5
4D0
330
64
100
AcDbDictionary
280
     1
281
     1
  3
ACAD_ROUNDTRIP_2008_TABLESTYLE_CELLSTYLEMAP
360
4D1
  0
XRECORD
  5
1C
102
{ACAD_REACTORS
330
1A
102
}
330
1A
100
AcDbXrecord
280
     1
270
     1
271
     1
  0
XRECORD
  5
1B
102
{ACAD_REACTORS
330
1A
102
}
330
1A
100
AcDbXrecord
280
     1
270
     1
271
     1
  0
XRECORD
  5
1F
102
{ACAD_REACTORS
330
1A
102
}
330
1A
100
AcDbXrecord
280
     1
270
     1
271
     1
  0
XRECORD
  5
1E
102
{ACAD_REACTORS
330
1A
102
}
330
1A
100
AcDbXrecord
280
     1
270
     1
271
     1
  0
XRECORD
  5
20
102
{ACAD_REACTORS
330
1A
102
}
330
1A
100
AcDbXrecord
280
     1
270
     1
271
     1
  0
XRECORD
  5
1D
102
{ACAD_REACTORS
330
1A
102
}
330
1A
100
AcDbXrecord
280
     1
270
     1
271
     1
  0
XRECORD
  5
14
102
{ACAD_REACTORS
330
12
102
}
330
12
100
AcDbXrecord
280
     1
270
     1
271
     1
  0
XRECORD
  5
13
102
{ACAD_REACTORS
330
12
102
}
330
12
100
AcDbXrecord
280
     1
270
     1
271
     1
  0
XRECORD
  5
17
102
{ACAD_REACTORS
330
12
102
}
330
12
100
AcDbXrecord
280
     1
270
     1
271
     1
  0
XRECORD
  5
16
102
{ACAD_REACTORS
330
12
102
}
330
12
100
AcDbXrecord
280
     1
270
     1
271
     1
  0
XRECORD
  5
18
102
{ACAD_REACTORS
330
12
102
}
330
12
100
AcDbXrecord
280
     1
270
     1
271
     1
  0
XRECORD
  5
15
102
{ACAD_REACTORS
330
12
102
}
330
12
100
AcDbXrecord
280
     1
270
     1
271
     1
  0
XRECORD
  5
24
102
{ACAD_REACTORS
330
22
102
}
330
22
100
AcDbXrecord
280
     1
270
     1
271
     1
  0
XRECORD
  5
23
102
{ACAD_REACTORS
330
22
102
}
330
22
100
AcDbXrecord
280
     1
270
     1
271
     1
  0
XRECORD
  5
27
102
{ACAD_REACTORS
330
22
102
}
330
22
100
AcDbXrecord
280
     1
270
     1
271
     1
  0
XRECORD
  5
26
102
{ACAD_REACTORS
330
22
102
}
330
22
100
AcDbXrecord
280
     1
270
     1
271
     1
  0
XRECORD
  5
28
102
{ACAD_REACTORS
330
22
102
}
330
22
100
AcDbXrecord
280
     1
270
     1
271
     1
  0
XRECORD
  5
25
102
{ACAD_REACTORS
330
22
102
}
330
22
100
AcDbXrecord
280
     1
270
     1
271
     1
  0
CELLSTYLEMAP
  5
4D1
102
{ACAD_REACTORS
330
4D0
102
}
330
4D0
100
AcDbCellStyleMap
 90
        3
300
CELLSTYLE
  1
TABLEFORMAT_BEGIN
 90
        5
170
     1
 91
        0
 92
    32768
 62
   257
 93
        1
300
CONTENTFORMAT
  1
CONTENTFORMAT_BEGIN
 90
        0
 91
        0
 92
      512
 93
        0
300

 40
0.0
140
1.0
 94
        5
 62
     0
340
55
144
0.25
309
CONTENTFORMAT_END
171
     0
 94
        0
309
TABLEFORMAT_END
  1
CELLSTYLE_BEGIN
 90
        1
 91
        1
300
_TITLE
309
CELLSTYLE_END
300
CELLSTYLE
  1
TABLEFORMAT_BEGIN
 90
        5
170
     1
 91
        0
 92
        0
 62
   257
 93
        1
300
CONTENTFORMAT
  1
CONTENTFORMAT_BEGIN
 90
        0
 91
        0
 92
      512
 93
        0
300

 40
0.0
140
1.0
 94
        5
 62
     0
340
55
144
0.18
309
CONTENTFORMAT_END
171
     0
 94
        0
309
TABLEFORMAT_END
  1
CELLSTYLE_BEGIN
 90
        2
 91
        1
300
_HEADER
309
CELLSTYLE_END
300
CELLSTYLE
  1
TABLEFORMAT_BEGIN
 90
        5
170
     1
 91
        0
 92
        0
 62
   257
 93
        1
300
CONTENTFORMAT
  1
CONTENTFORMAT_BEGIN
 90
        0
 91
        0
 92
      512
 93
        0
300

 40
0.0
140
1.0
 94
        2
 62
     0
340
55
144
0.18
309
CONTENTFORMAT_END
171
     0
 94
        0
309
TABLEFORMAT_END
  1
CELLSTYLE_BEGIN
 90
        3
 91
        2
300
_DATA
309
CELLSTYLE_END
  0
ENDSEC
  0
EOF
